<svg width="525" height="489" viewBox="0 0 525 489" fill="none" xmlns="http://www.w3.org/2000/svg">
<g opacity="0.2">
<path d="M523.188 246.743C523.696 240.143 524.001 233.441 524.001 226.435V0L0.0517578 0V90.3204L56.7622 90.3204V56.863L466.986 56.863L466.986 226.435C467.059 242.012 465.356 257.547 461.909 272.738L523.188 246.743Z" fill="#C1986D"/>
<path d="M467.849 57.0171H443.226L462.214 0.256348L524.052 0.256348L467.849 57.0171Z" fill="url(#paint0_linear_29_945)"/>
<path d="M330.211 194.801L0.204773 194.801V226.685C0.204773 234.91 0.661804 243.033 1.42334 251.055L290.814 251.055L342.396 194.801H330.211Z" fill="#083D5C"/>
<path d="M243.902 115.961L56.9658 115.961L0.103119 115.961V172.214L56.9658 172.214L243.902 172.214L363.161 172.214L414.744 115.961L243.902 115.961Z" fill="#083D5C"/>
<path d="M277.715 488.153C335.653 484.625 390.784 461.977 434.471 423.757C478.157 385.537 507.931 333.904 519.127 276.949V276.035L451.4 304.974C444.396 321.886 435.158 337.782 423.933 352.241C397.166 383.968 361.603 407.058 321.729 418.596C281.855 430.135 239.457 429.605 199.884 417.075C184.586 412.19 169.739 405.99 155.511 398.543C146.781 393.927 138.307 388.843 130.126 383.312C112.803 368.767 97.9846 351.479 86.26 332.136L216.181 332.136L267.764 275.882L4.87537 275.882C8.20642 293.281 13.3101 310.293 20.1064 326.653C39.7798 373.681 72.6483 414.009 114.742 442.765C153.745 469.389 199.247 484.919 246.389 487.696C251.466 488.001 256.543 488.204 262.027 488.204C267.51 488.204 272.536 488.458 277.715 488.153Z" fill="#083D5C"/>
</g>
<defs>
<linearGradient id="paint0_linear_29_945" x1="506.485" y1="43.9185" x2="469.88" y2="19.4472" gradientUnits="userSpaceOnUse">
<stop stop-color="#513A13"/>
<stop offset="1" stop-color="#7B6C3B" stop-opacity="0"/>
</linearGradient>
</defs>
</svg>
