<svg width="14" height="14" viewBox="0 0 14 14" fill="none" xmlns="http://www.w3.org/2000/svg">
<g clip-path="url(#clip0_13_2641)">
<path d="M13.9709 7C13.9709 7.10615 13.9675 7.21115 13.9628 7.31618C14.0213 6.79443 14.0149 6.28082 13.9149 5.75655C13.8729 5.60279 13.8312 5.44903 13.7891 5.29558C13.8031 5.22585 13.7611 5.10009 13.6914 4.93233C13.6217 4.72285 13.5656 4.49909 13.4679 4.28961C13.2164 3.71688 12.8952 3.17191 12.504 2.68294C12.1267 2.22197 11.7075 1.80273 11.2325 1.45349C11.2132 1.43779 11.1925 1.42521 11.1729 1.40979C12.8714 2.68464 13.9709 4.71476 13.9709 7Z" fill="#B8C1C7"/>
<path d="M5.08832 0.583199C5.08277 0.584976 5.07725 0.586781 5.07181 0.589515C5.07575 0.589515 5.08152 0.587109 5.08832 0.583199Z" fill="#B8C1C7"/>
<path d="M13.5937 7.014C13.5797 7.028 13.5797 7.056 13.5797 7.07C13.6077 7.056 13.6077 7.042 13.5937 7.014Z" fill="#B8C1C7"/>
<path d="M6.09122 7.042C6.09507 7.03839 6.09425 7.03713 6.09431 7.03544C6.09433 7.03527 6.09428 7.03514 6.09431 7.035C6.09406 7.03336 6.09237 7.03093 6.09171 7.02912C6.09149 7.02898 6.09124 7.02885 6.09124 7.02885C6.09122 7.04178 6.09122 7.042 6.09122 7.042Z" fill="#B8C1C7"/>
<path d="M13.5519 7.79648C13.5519 7.85249 13.5519 7.99197 13.5799 8.03397C13.5936 7.83821 13.5799 7.62873 13.5659 7.41924C13.5519 7.531 13.5519 7.68473 13.5519 7.79648Z" fill="#B8C1C7"/>
<path d="M5.86837 1.80443C5.86767 1.80372 5.86767 1.80255 5.86739 1.80157C5.86685 1.8022 5.86712 1.80314 5.86837 1.80443Z" fill="#B8C1C7"/>
<path d="M13.6776 5.2813C13.6496 5.15554 13.6079 5.02981 13.5799 4.91806C13.3982 4.44309 12.9652 3.7166 12.9372 3.73063C12.8952 3.75863 13.2584 4.30336 13.2864 4.37336C13.3004 4.41536 13.3004 4.40136 13.2864 4.38736C13.4262 4.69457 13.5659 5.00208 13.6777 5.3093C13.6776 5.2953 13.6776 5.2953 13.6776 5.2813Z" fill="#B8C1C7"/>
<path d="M3.87009 2.89269C3.87009 2.89772 3.87009 2.89942 3.87009 2.90139C3.87288 2.89354 3.874 2.88851 3.87009 2.89269Z" fill="#B8C1C7"/>
<path d="M6.0775 1.97048C6.1055 1.94248 6.0635 1.97048 6.0495 1.97048C6.0355 1.99848 6.0635 1.98448 6.0775 1.97048Z" fill="#B8C1C7"/>
<path d="M5.19727 2.19397C5.18327 2.16596 5.16927 2.16596 5.14127 2.17996C5.12727 2.19397 5.16927 2.17996 5.19727 2.19397Z" fill="#B8C1C7"/>
<path d="M9.98039 1.07206C9.97861 1.06892 9.97681 1.06607 9.97503 1.06255C9.97358 1.06255 9.97569 1.06607 9.98039 1.07206Z" fill="#B8C1C7"/>
<path d="M10.7337 1.10763C10.6411 1.04859 10.547 0.991854 10.4515 0.937111C10.4747 0.950865 10.4978 0.964674 10.52 0.97851C10.5934 1.01912 10.6629 1.06421 10.7337 1.10763Z" fill="#B8C1C7"/>
<path d="M10.3156 0.860962C10.3613 0.885791 10.4065 0.911275 10.4515 0.937116C10.4075 0.911002 10.3621 0.885544 10.3156 0.860962Z" fill="#B8C1C7"/>
<path d="M10.7337 1.10764C10.8729 1.19642 11.0093 1.28882 11.1415 1.38685C11.0104 1.28603 10.8743 1.19361 10.7337 1.10764Z" fill="#B8C1C7"/>
<path d="M5.70026 1.53752C5.74226 1.52351 5.78398 1.52351 5.82601 1.48151C5.77001 1.50951 5.72798 1.49551 5.70026 1.53752Z" fill="#B8C1C7"/>
<path d="M13.6497 6.73451C13.6357 6.77651 13.6217 6.81854 13.6357 6.84624C13.6357 6.81824 13.6637 6.79024 13.6497 6.73451Z" fill="#B8C1C7"/>
<path d="M13.6356 8.14542C13.6496 8.32718 13.5799 8.49494 13.5659 8.69042C13.6356 8.60669 13.6496 8.29918 13.6496 8.18745C13.6496 8.17342 13.6496 8.15942 13.6356 8.14542Z" fill="#B8C1C7"/>
<path d="M13.4122 8.88618C13.4262 8.88618 13.4402 8.87218 13.4542 8.87218C13.4542 8.87218 13.4542 8.85818 13.4682 8.84418C13.4542 8.84418 13.3842 8.88618 13.4122 8.88618Z" fill="#B8C1C7"/>
<path d="M13.7474 7.056C13.7614 7.014 13.7474 6.98627 13.7334 6.95827C13.6357 7.01399 13.6637 7.20948 13.6637 7.30751C13.7474 7.22375 13.7197 7.18175 13.7474 7.056Z" fill="#B8C1C7"/>
<path d="M13.5516 8.03397C13.4819 8.07569 13.4819 8.07569 13.4819 8.14569C13.4959 8.10369 13.5379 8.07597 13.5516 8.03397Z" fill="#B8C1C7"/>
<path d="M1.81616 7.23748C1.80216 7.20948 1.81616 7.25148 1.81616 7.23748V7.23748Z" fill="#B8C1C7"/>
<path d="M4.02328 2.75433C4.02379 2.75414 4.02446 2.75383 4.02496 2.75359C4.02461 2.7534 4.02411 2.75351 4.02328 2.75433Z" fill="#B8C1C7"/>
<path d="M2.30514 5.71481C2.29338 5.72657 2.29199 5.76382 2.29169 5.78512C2.31941 5.81257 2.34714 5.82657 2.37487 5.82657C2.40314 5.79857 2.33314 5.68681 2.30514 5.71481Z" fill="#B8C1C7"/>
<path d="M2.12366 5.30957C2.09566 5.32357 2.16539 5.30957 2.12366 5.30957V5.30957Z" fill="#B8C1C7"/>
<path d="M2.29059 5.79827C2.29086 5.79827 2.29086 5.79854 2.29116 5.79854C2.29116 5.7963 2.29174 5.78903 2.29174 5.78509C2.29146 5.78482 2.29146 5.78482 2.29116 5.78452C2.29116 5.78624 2.29086 5.79127 2.29059 5.79827Z" fill="#B8C1C7"/>
<path d="M4.07957 5.96631C4.05157 5.95231 4.12129 5.96631 4.07957 5.96631V5.96631Z" fill="#B8C1C7"/>
<path d="M3.36713 1.74699C3.40913 1.73299 3.60461 1.52351 3.56261 1.48151C3.54861 1.45351 3.40885 1.52351 3.39485 1.53751C3.34555 1.54984 3.42258 1.58121 3.43267 1.56972C3.42734 1.55881 3.42903 1.54815 3.45058 1.53751C3.47746 1.53751 3.47634 1.55124 3.43937 1.57699C3.45113 1.61087 3.40631 1.67978 3.38113 1.70499C3.38113 1.71899 3.36713 1.73299 3.36713 1.74699Z" fill="#B8C1C7"/>
<path d="M4.40079 11.7083C4.34506 11.7083 4.42882 11.6663 4.40079 11.7083V11.7083Z" fill="#B8C1C7"/>
<path d="M3.3111 1.70499C3.2971 1.71899 3.2971 1.73299 3.2691 1.761C3.3111 1.761 3.3251 1.747 3.3111 1.70499Z" fill="#B8C1C7"/>
<path d="M3.50657 1.31375C3.49257 1.31375 3.47857 1.32775 3.46457 1.34175C3.47884 1.34175 3.49284 1.34175 3.50657 1.31375Z" fill="#B8C1C7"/>
<path d="M3.54857 2.02649C3.50657 2.05449 3.74406 2.08249 3.73033 2.06849C3.80006 2.09649 3.81406 1.98476 3.78633 1.94273C3.7026 1.831 3.64657 1.91473 3.50685 1.95673C3.45084 1.97073 3.40912 2.01273 3.35309 2.04046C3.39484 2.08221 3.49285 2.05421 3.54857 2.02649Z" fill="#B8C1C7"/>
<path d="M3.43686 1.57924C3.43853 1.57812 3.43798 1.57784 3.43965 1.57672C3.43853 1.57309 3.43965 1.56803 3.43686 1.56524C3.43853 1.5686 3.43435 1.56833 3.43295 1.56972C3.43462 1.57279 3.43377 1.57615 3.43686 1.57924Z" fill="#B8C1C7"/>
<path d="M10.191 0.966578C10.1875 0.965422 10.1848 0.964516 10.1848 0.964516C10.1871 0.965297 10.1891 0.965953 10.191 0.966578Z" fill="#B8C1C7"/>
<path d="M10.1902 0.966316C10.1909 0.966551 10.1917 0.966785 10.1924 0.967058C10.1917 0.966824 10.1909 0.966551 10.1902 0.966316Z" fill="#B8C1C7"/>
<path d="M5.4534 1.46076C5.45674 1.45865 5.45994 1.45633 5.46278 1.45348C5.4587 1.45622 5.45578 1.45857 5.4534 1.46076Z" fill="#B8C1C7"/>
<path d="M13.5085 9.09482C13.3968 9.3323 13.313 9.58379 13.2013 9.82127C13.1593 9.919 13.0615 9.97503 13.0195 10.0728C12.9778 10.1708 12.9218 10.2825 12.838 10.3662C12.6845 10.52 12.5865 10.7575 12.3911 10.8692C12.2933 10.9252 12.1536 10.9112 12.0699 10.995C12.0141 10.8692 12.1536 10.6875 12.1956 10.5757C12.2376 10.3802 12.2236 10.1988 12.3073 10.017C12.4471 9.66779 12.2933 9.27657 12.4471 8.94133C12.5031 8.80158 12.5591 8.68985 12.6288 8.56409C12.6989 8.45233 12.6709 8.24288 12.6849 8.10312C12.7129 7.93564 12.6428 7.68415 12.5731 7.53039C12.5451 7.47439 12.3636 7.22288 12.4334 7.15315C12.5451 7.06943 12.5031 6.59415 12.3774 6.52443C12.3076 6.49642 12.1959 6.62215 12.1399 6.52443C12.0979 6.4547 12.0979 6.35694 12.0141 6.31494C11.9024 6.25894 11.5114 6.53843 11.4554 6.52443C11.3574 6.48242 11.2597 6.46842 11.1619 6.49642C11.0499 6.52443 10.9802 6.62218 10.8685 6.55243C10.7985 6.52443 10.7567 6.4687 10.7007 6.41267C10.5609 6.30094 10.3795 6.23091 10.3375 6.03543C10.2955 5.88167 10.086 5.85394 10.072 5.68619C9.93221 5.79791 9.94621 5.5187 9.93221 5.4767C9.84848 5.32295 9.87621 5.28122 9.91821 5.11346C9.98794 4.79195 9.6107 4.51273 9.89021 4.23325C9.94621 4.17752 9.86248 4.06576 9.94621 4.02376C9.98821 3.99576 9.98821 3.95404 9.98821 3.91203C9.98821 3.82831 10.1697 3.78628 10.2117 3.70255C10.2537 3.57679 10.1557 3.47907 10.1977 3.33931C10.2117 3.26931 10.2954 3.26931 10.3235 3.19955C10.3375 3.15755 10.3095 3.0318 10.3515 3.01779C10.4352 2.98979 10.6309 3.18555 10.7147 3.0318C10.7707 2.94807 10.8965 2.92007 10.9942 2.89204C11.0502 2.87804 11.3574 2.83604 11.3854 2.86404C11.4274 2.90604 11.5812 3.00379 11.5532 3.11552C11.5112 3.24098 11.8047 3.26898 11.8744 3.29701C11.9581 3.32501 11.9861 3.43676 12.0839 3.43676C12.1539 3.43676 12.1816 3.49249 12.2376 3.52049C12.3357 3.57622 12.1259 3.14325 12.2796 3.25501C12.3774 3.32501 12.5171 3.39476 12.6429 3.42276C12.6429 3.39504 12.6569 3.38104 12.6709 3.35304C12.7549 3.32504 12.8106 3.43706 12.7129 3.25531C12.6849 3.21358 12.4754 2.79434 12.4194 2.82234C12.3914 2.83634 12.4334 2.86434 12.4194 2.87834C12.3914 2.89207 12.3357 2.79431 12.3217 2.82234C12.3217 2.82234 12.3357 2.86434 12.3357 2.87834C12.3077 2.90634 11.9584 2.57113 11.9444 2.5151C11.9584 2.5151 11.9864 2.5011 12.0004 2.5011C12.0004 2.4731 11.9864 2.4591 11.9724 2.4451C11.9864 2.4311 12.0004 2.4311 12.0144 2.4311C12.0004 2.40337 12.0004 2.37537 12.0144 2.34737C12.0422 2.31937 12.1539 2.4311 12.1959 2.4311C12.1679 2.29134 11.9164 2.10988 11.8047 2.05385C11.7907 2.06785 11.8047 2.09585 11.8047 2.10986C11.7767 2.06785 11.7069 2.06785 11.6929 1.9981C11.7209 2.0261 11.7487 2.0401 11.7907 2.0401C11.8187 2.0121 11.6789 1.90034 11.6649 1.88634C11.6649 1.91407 11.6649 1.94207 11.6789 1.97007C11.6372 1.99807 11.6092 1.94207 11.5812 1.94207C11.6369 2.10887 11.8304 2.3445 11.97 2.42948C11.9569 2.43058 11.8925 2.48707 11.9304 2.48707C11.8607 2.48707 11.8467 2.51507 11.8187 2.51507C11.8187 2.5991 11.9721 2.64083 12.0141 2.69683C12.0419 2.73883 12.0559 2.80858 12.0839 2.86458C12.0281 2.85058 11.8884 2.72483 11.8884 2.72483C11.8464 2.72483 11.6789 2.52934 11.6509 2.48734C11.5672 2.38931 11.5392 2.36159 11.4414 2.30559C11.3017 2.23558 11.1619 2.0961 11.0362 2.0541C10.9525 2.0261 11.0782 2.17986 11.0782 2.17986C11.1479 2.23586 11.2319 2.27759 11.3017 2.33361C11.4134 2.41734 11.5812 2.43134 11.6789 2.5571C11.6509 2.5291 11.6232 2.5291 11.5812 2.5151C11.5812 2.57083 11.6789 2.64085 11.6929 2.72458C11.6929 2.73858 11.7209 2.85034 11.7209 2.86434C11.6932 2.86434 11.5114 2.78061 11.5254 2.75261C11.5394 2.72461 11.7349 2.76661 11.6512 2.65488C11.5812 2.57115 11.4974 2.51543 11.3997 2.4594C11.2459 2.37537 11.0645 2.22191 10.8967 2.16591C10.9387 2.3754 10.6312 2.22191 10.6592 2.30567C10.6592 2.33367 10.799 2.43142 10.6872 2.45942C10.6172 2.47342 10.6452 2.52915 10.6312 2.58518C10.6312 2.61318 10.771 2.80867 10.6592 2.83667C10.5615 2.86439 10.729 2.90639 10.5335 2.90639C10.4495 2.90639 10.4218 3.00442 10.3657 2.9624C10.268 2.89267 10.268 2.90667 10.1562 2.89267C10.1005 2.87894 10.1005 2.87894 10.0865 2.82294C10.0585 2.75294 9.97479 2.75294 9.98879 2.66918C9.98879 2.55745 9.91906 2.51543 9.89106 2.4177C9.89106 2.4037 9.7653 2.26394 9.89106 2.27794C9.94706 2.27794 10.2963 2.34794 10.3243 2.29194C10.436 2.12418 9.93306 1.8867 9.84933 1.8587C9.90533 1.8307 9.96136 1.8447 10.0311 1.8447C10.0171 1.80297 9.98909 1.78897 9.97509 1.77497C9.97509 1.77497 10.1986 1.80297 10.1008 1.69124C10.1008 1.69124 10.1288 1.49576 10.1288 1.50976C10.1288 1.45403 10.2686 1.44003 10.2126 1.41203C10.0868 1.3423 10.0311 1.28627 10.0031 1.17454C10.0868 1.23055 10.2126 1.42603 10.3243 1.42603C10.3663 1.42603 10.4641 1.42603 10.4781 1.39803C10.5478 1.3143 10.5061 1.39803 10.6038 1.38403C10.5898 1.2863 10.4223 1.23027 10.4083 1.16054C10.4361 1.16054 10.4501 1.18854 10.4921 1.18854C10.4921 1.17454 10.1846 1.00679 10.3383 1.03479C10.394 0.964786 10.2266 0.909031 10.1845 0.895031C10.2123 0.922758 10.2403 0.936758 10.2683 0.964759C10.0585 1.13224 9.82103 0.699273 9.61154 0.685273C9.62554 0.741 9.79303 0.852756 9.83503 0.894757C9.91906 0.964759 10.0448 0.978786 10.1285 1.04851C10.2125 1.13254 10.2683 1.23027 10.3103 1.314C10.2728 1.37659 10.0215 1.12442 9.98039 1.07203C9.99261 1.09355 10.0048 1.10782 10.0171 1.13224C9.97506 1.15997 9.93333 1.06224 9.8913 1.07624C9.82158 1.11824 9.9473 1.18827 9.77957 1.13224C9.66785 1.09024 9.47236 0.964485 9.45836 0.852756C9.44436 0.797029 9.19287 0.489515 9.16488 0.517543C9.2486 0.405787 9.65385 0.559544 9.7656 0.629272C9.7656 0.643272 9.7516 0.629272 9.7516 0.643272C9.7516 0.657272 9.94736 0.741 10.0171 0.755001C10.0031 0.741 9.89133 0.685273 9.89133 0.657272C9.91933 0.699273 10.1148 0.755001 10.1568 0.783029C10.2102 0.806681 10.2633 0.83326 10.3157 0.86096C9.3255 0.321977 8.19153 0.0145721 6.98543 0.0145721C3.12964 0.0145721 0 3.14391 0 7C0 10.8561 3.12964 13.9854 6.98543 13.9854C10.7354 13.9854 13.7975 11.0255 13.963 7.31618C13.956 7.37836 13.9521 7.44051 13.9417 7.50215C13.76 8.06085 13.732 8.56384 13.5085 9.09482ZM12.4479 2.97645C12.4759 2.99018 12.4899 3.01818 12.4899 3.04618C12.4482 3.03218 12.4342 3.00445 12.4479 2.97645ZM12.2525 3.01845C12.2245 3.03245 12.2105 3.04645 12.2105 3.03245C12.1827 3.00445 12.1407 3.03245 12.1267 2.97645C12.1687 2.99045 12.2107 2.99045 12.2525 3.01845ZM11.1908 2.66921C11.1488 2.73894 11.065 2.55748 11.009 2.52945C11.037 2.51545 11.051 2.50145 11.065 2.48745C11.107 2.48745 11.2048 2.64121 11.1908 2.66921ZM10.9533 2.34772C10.981 2.31972 11.037 2.44545 11.037 2.45945C11.023 2.44545 10.9112 2.37572 10.9533 2.34772ZM10.7998 2.66921C10.7858 2.66921 10.7718 2.66921 10.7578 2.65521C10.6878 2.64121 10.8555 2.59921 10.7998 2.66921ZM9.08109 1.16C9.09509 1.174 9.10909 1.174 9.09509 1.202C9.09509 1.202 9.10909 1.216 9.10909 1.23C9.09509 1.23 9.05309 1.16027 9.08109 1.16ZM8.25688 0.22433C8.28185 0.22433 8.22907 0.235432 8.22721 0.237838C8.14384 0.210385 8.04658 0.210138 7.96339 0.182302C8.06112 0.168329 8.18688 0.210056 8.25688 0.22433ZM8.04712 0.727027C8.08912 0.713027 8.45236 0.754755 8.32661 0.810756C8.22888 0.852756 8.08912 0.908484 8.00539 0.824756C7.97739 0.811029 7.86564 0.755028 7.85164 0.755028C7.85164 0.713027 8.0194 0.727027 8.04712 0.727027ZM5.88258 0.238604C6.05006 0.140875 6.38527 0.126875 6.56703 0.140875C6.77652 0.168876 6.98627 0.0988746 7.18176 0.140875C7.26549 0.140875 7.33552 0.154876 7.41924 0.154876C7.48897 0.168876 7.40524 0.238604 7.48897 0.252604C7.5307 0.252604 7.62843 0.36436 7.67046 0.350333C7.67046 0.420061 7.62845 0.378333 7.65646 0.448061C7.65646 0.461788 7.75418 0.517789 7.74018 0.517789C7.72618 0.531789 7.5027 0.517789 7.5167 0.517789C7.5027 0.517789 7.5167 0.55979 7.5307 0.545789C7.57243 0.55979 7.67015 0.545789 7.72618 0.545789C7.61415 0.657819 7.4327 0.643819 7.30694 0.727547C7.22291 0.783275 7.11118 0.769274 7.02745 0.811275C7.02745 0.895304 6.95773 1.00703 6.9017 1.10476C6.8597 1.13276 6.56646 0.993033 6.53846 0.951004C6.46845 0.881276 6.3287 0.671792 6.48246 0.615764C6.67794 0.545762 6.48246 0.601763 6.42645 0.559762C6.46846 0.489761 6.52448 0.517762 6.59421 0.531762C6.55221 0.475761 6.51048 0.46176 6.45445 0.489761C6.44045 0.43376 6.53818 0.378032 6.45445 0.322004C6.42645 0.294003 6.21697 0.322004 6.21697 0.294003C6.20324 0.210275 6.46845 0.252003 6.51046 0.182275C6.31497 0.140274 6.10521 0.336032 5.92373 0.308031C5.88173 0.308031 5.854 0.308031 5.81197 0.308031C5.812 0.266058 5.93776 0.266057 5.88258 0.238604ZM5.868 0.321785C5.826 0.363786 5.74225 0.363786 5.63052 0.349786C5.67224 0.349786 5.60252 0.321785 5.57452 0.335785C5.70024 0.252057 5.72797 0.308058 5.868 0.321785ZM5.57452 0.293785C5.57452 0.293785 5.53279 0.377814 5.50479 0.349786C5.49079 0.335785 5.47679 0.349786 5.46279 0.335785C5.49049 0.280058 5.53251 0.294058 5.57452 0.293785ZM5.30873 0.419814C5.36473 0.377814 5.42046 0.377814 5.47649 0.377814C5.42076 0.405814 5.37876 0.419814 5.30873 0.419814ZM5.32303 0.419814C5.30903 0.433815 5.30903 0.433815 5.29503 0.433815C5.29503 0.419814 5.30903 0.419814 5.32303 0.419814ZM5.40703 0.307785C5.36503 0.335785 5.37903 0.321785 5.39303 0.307785C5.33703 0.335785 5.2813 0.321785 5.22527 0.335785C5.30903 0.280058 5.33703 0.280058 5.40703 0.307785ZM1.77415 7.26548C1.76015 7.25148 1.76015 7.15375 1.77415 7.13973C1.78815 7.16773 1.80215 7.20945 1.81615 7.23745C1.81615 7.26548 1.80215 7.27951 1.77415 7.26548ZM1.87218 7.22348C1.84418 7.16775 1.85818 7.29351 1.87218 7.22348V7.22348ZM4.54109 12.323C4.49909 12.267 4.61082 12.1973 4.49909 12.1693C4.42909 12.1553 4.45709 12.197 4.45709 12.1133C4.44309 11.9735 4.37336 11.9455 4.48509 11.9735C4.47109 11.9735 4.49909 11.6803 4.38736 11.75C4.48509 11.8478 4.37336 11.8898 4.37336 11.8618C4.37336 11.75 4.23361 11.4008 4.20561 11.3728C4.19161 11.3448 4.21961 11.2891 4.21961 11.247C4.20561 11.1353 4.20561 11.0095 4.21961 10.8978C4.21961 10.8281 4.16388 10.7443 4.13588 10.6883C4.10788 10.6323 4.16388 10.6046 4.12188 10.5485C4.05188 10.4648 4.13588 10.2971 4.09388 10.1993C4.02388 10.0595 4.05188 9.86409 4.03788 9.71034C4.03788 9.45912 3.88412 9.26337 3.67463 9.15164C3.40915 9.01188 3.25539 8.84442 3.14364 8.56491C3.08763 8.36915 2.87815 8.04794 2.72439 7.90818C2.62636 7.83818 2.79412 7.48894 2.79412 7.48894C2.69639 7.41921 2.68239 7.40521 2.72439 7.26546C2.73839 7.20973 2.78039 7.14 2.76639 7.08397C2.76639 7.06997 2.86412 7.01424 2.87812 6.97222C2.89212 6.90221 3.10161 6.74873 3.03188 6.69273C2.97588 6.623 3.07388 6.44124 3.03188 6.35752C3.00388 6.30151 2.94785 6.07803 2.86412 6.07803C2.75239 6.09203 2.76639 6.31552 2.71037 6.28751C2.64064 6.25951 2.58461 6.14776 2.50088 6.11976C2.44488 6.10576 2.44488 5.98 2.36197 5.94079C2.36197 5.95479 2.36197 5.96879 2.34797 5.98279C2.28664 6.01949 2.29 5.85146 2.29167 5.80076C2.19449 5.77218 2.20822 5.60527 2.18021 5.56355C2.13849 5.52155 1.915 5.53555 1.859 5.43779C1.817 5.36806 1.789 5.22831 1.70524 5.20031C1.60752 5.18631 1.59352 5.28434 1.49576 5.22831C1.45376 5.20031 1.20227 4.99082 1.20227 4.93482C1.20227 4.85109 1.07652 4.73906 1.17427 4.66933C1.17427 4.65533 1.20227 4.54358 1.21627 4.52958C1.27227 4.32009 1.16055 4.08233 1.24427 3.88685C1.272 3.84512 1.342 3.45388 1.328 3.43988C1.22997 3.39788 1.10452 4.34782 1.04852 4.38982C1.09024 4.18034 1.04852 3.97085 1.14625 3.8031C1.21597 3.73309 1.22997 3.59334 1.258 3.50961C1.3 3.39788 1.38376 3.28612 1.36973 3.16037C1.36973 2.99261 2.05446 2.18213 2.24994 2.00067C2.59918 1.65115 2.9344 1.35794 3.35364 1.09246C3.60513 0.938699 3.87061 0.79897 4.13612 0.673214C4.24788 0.617213 4.37361 0.575485 4.49937 0.533457C4.56909 0.589185 4.48537 0.589185 4.45737 0.617185C4.51337 0.645186 4.56909 0.631186 4.61112 0.589185C4.58312 0.505457 4.96036 0.3517 5.08609 0.3517C5.05836 0.3797 5.03036 0.3797 5.01636 0.393701C5.04409 0.421701 5.07209 0.393701 5.10009 0.393701C5.05809 0.449428 4.68085 0.603185 4.68085 0.603185C4.70885 0.673187 4.91833 0.533457 4.97434 0.533457C4.96034 0.589185 4.89061 0.575185 4.86261 0.603185C4.99591 0.627276 5.05585 0.473519 5.17852 0.450276C5.16339 0.452245 5.14715 0.452518 5.12809 0.449428C5.18382 0.407701 5.25355 0.393701 5.30958 0.3797C5.2687 0.410517 5.23509 0.44076 5.18718 0.449428C5.20343 0.447186 5.22052 0.446639 5.23955 0.449702C5.21549 0.473765 5.12982 0.55938 5.08833 0.583142C5.11122 0.575841 5.13572 0.575458 5.16955 0.575458C5.15555 0.617185 5.08582 0.603185 5.07182 0.659186C5.15555 0.617185 5.25358 0.603185 5.3373 0.53343C5.3233 0.51943 5.3233 0.505429 5.3093 0.491429C5.3793 0.435701 5.47706 0.393701 5.57479 0.3797C5.51879 0.421428 5.47706 0.435428 5.44903 0.477429C5.53276 0.449702 5.58879 0.393701 5.68652 0.407701C5.68652 0.435701 5.65852 0.435701 5.64452 0.463702C5.68652 0.463702 5.71424 0.463702 5.75625 0.435701C5.74225 0.421701 5.72825 0.435701 5.71424 0.421701C5.74225 0.407701 5.78397 0.393701 5.81197 0.407701C5.78397 0.505429 5.86797 0.491429 5.93773 0.533457C5.99346 0.575185 5.8397 0.589185 5.88173 0.617185C5.92373 0.658913 6.00748 0.658913 6.04949 0.700914C6.03576 0.728641 5.896 0.798642 5.868 0.784642C5.854 0.784642 5.71424 0.644885 5.74225 0.770642C5.78397 0.910398 5.78397 0.952126 5.58849 0.85437C5.58849 0.86837 5.65849 0.938098 5.64449 0.952098C5.63049 0.979825 5.435 0.924098 5.435 0.896097C5.393 0.784368 5.22552 0.85437 5.21152 0.812369C5.21152 0.826369 5.82625 0.672612 5.57476 0.532883C5.53276 0.504883 5.32328 0.57461 5.29528 0.630611C5.26727 0.686339 5.19725 0.700339 5.12752 0.71434C5.11513 0.71434 5.02651 0.71434 5.01579 0.71434C4.98806 0.74234 5.04379 0.840096 5.05779 0.854096C5.00179 0.896097 4.84831 0.868097 4.7923 0.868097C4.82003 0.840096 4.86203 0.854096 4.87603 0.812096C4.80603 0.770095 4.42879 0.951551 4.35906 0.993579C4.1633 1.09161 4.1633 1.14734 4.06558 1.27307C4.09358 1.30079 4.21933 1.24506 4.20533 1.34279C4.20533 1.39852 4.38682 1.42652 4.40082 1.42652C4.35909 1.46852 4.33109 1.51025 4.30309 1.55228C4.31709 1.56628 4.35909 1.55228 4.35909 1.58028C4.34536 1.60828 4.31736 1.59428 4.28936 1.56628C4.24736 1.63601 4.27536 1.72004 4.35909 1.69203C4.44312 1.65003 4.45682 1.59401 4.51285 1.52428C4.59657 1.39852 4.77833 1.41255 4.84806 1.27279C4.89006 1.18906 4.77833 1.20279 4.90406 1.13304C4.96006 1.10503 5.01579 1.02131 5.05782 0.965278C5.14155 0.853549 5.3373 1.02101 5.40706 1.04901C5.2253 1.30049 5.56082 1.14673 5.65854 1.07701C5.68654 1.30049 5.72827 1.38452 5.91003 1.46825C5.89603 1.49625 5.88203 1.48225 5.86803 1.49625C5.89603 1.49625 6.02179 1.55198 5.99379 1.59398C5.96942 1.64271 5.94142 1.66707 5.91006 1.68246C5.92545 1.67434 5.94591 1.67098 5.97979 1.67771C5.96628 1.69121 5.86212 1.78246 5.86737 1.80144C5.87309 1.79471 6.00779 1.83234 6.00779 1.84546C6.13354 1.80346 6.04979 1.90119 6.11951 1.91519C6.11951 1.92919 6.11951 2.16668 6.02179 2.05495C6.03579 2.04095 6.03579 2.02695 6.03579 2.01295C5.99379 1.99895 5.89603 2.05495 5.86803 2.05495C5.86803 2.02695 5.91003 2.04095 5.91003 2.01295C5.86803 1.98495 5.61654 1.99895 5.61654 1.98495C5.61654 1.97122 5.64454 1.94322 5.67254 1.91522C5.73555 1.85222 5.82882 1.75895 5.85767 1.7301C5.86439 1.72673 5.87503 1.71973 5.86803 1.71973C5.88118 1.70658 5.89155 1.69368 5.90585 1.68501C5.84842 1.71134 5.78009 1.70852 5.70027 1.76174C5.56052 1.85976 5.32303 1.78974 5.15527 1.80374C5.00179 1.81774 4.83406 1.98549 4.6943 2.06922C4.86206 2.06922 5.00182 1.84574 5.21127 1.88774C5.33703 1.91546 5.09955 1.97147 5.07152 1.97147C5.09924 1.99947 5.12725 2.01347 5.15525 1.99947C5.19725 2.05519 5.07152 2.18095 5.281 2.18095C5.39273 2.18095 5.39273 2.06922 5.47649 2.06922L5.50449 2.13895C5.46249 2.23668 5.09924 2.29271 4.98752 2.36243C4.88979 2.41844 5.02952 2.20895 5.11327 2.18095C5.11327 2.18095 5.11327 2.18095 5.11327 2.16695C4.95952 2.22295 4.79206 2.30671 4.6383 2.33471C4.54057 2.34843 4.48454 2.44644 4.49855 2.53019C4.41452 2.57219 4.31679 2.55819 4.23306 2.58619C4.26079 2.60019 4.27479 2.58619 4.30279 2.60019C4.2192 2.65592 4.09442 2.72516 4.02448 2.75343C4.03055 2.75663 3.953 2.94602 3.93957 2.86568C3.92557 2.82368 3.92557 2.75395 3.98157 2.73992C3.89785 2.73992 3.93957 2.87968 3.85582 2.83765C3.85582 2.85138 3.93955 2.92138 3.86982 2.90738C3.86982 2.90738 3.86982 2.90571 3.86982 2.90205C3.86254 2.92138 3.84182 2.96311 3.84182 2.96311C3.84182 2.97683 3.88382 2.99083 3.86982 3.03283C3.85609 3.07484 3.80009 3.04683 3.80009 3.08884C3.82809 3.06083 3.84209 3.08884 3.84209 3.11684C3.81409 3.15884 3.71633 3.20056 3.67433 3.22856C3.54858 3.29829 3.42285 3.38232 3.31109 3.48005C3.15734 3.60581 3.12961 4.22051 3.07361 4.22051C3.03161 4.22051 3.04561 4.16478 3.01761 4.13678C2.97588 4.09505 3.04561 3.62008 2.93388 3.68981C2.86415 3.73153 2.79412 3.66181 2.71039 3.64781C2.71039 3.64781 2.50091 3.63381 2.50091 3.66181C2.50091 3.67581 2.55664 3.68981 2.57064 3.68981L2.55664 3.77354C2.51464 3.78726 2.43088 3.75954 2.40288 3.71753C2.37488 3.67553 2.2214 3.74554 2.19339 3.70353C2.2214 3.73153 2.01191 3.84329 1.99791 3.85729C1.92791 3.92729 1.91418 4.10878 1.85815 4.15078C1.6484 4.27653 1.7184 4.64005 1.7044 4.82151C1.6764 4.97526 1.83015 5.00326 1.94188 4.94726C1.98388 4.91926 2.02561 4.98926 2.05361 4.93326C2.08161 4.87726 2.12334 4.84953 2.15134 4.79351C2.17907 4.7375 2.41655 4.50002 2.47255 4.62575C2.48655 4.65375 2.3468 4.91896 2.3188 4.97499C2.27707 4.97499 2.24907 5.03099 2.24907 5.12875C2.24907 5.12875 2.13734 5.35223 2.23507 5.2825C2.27707 5.2405 2.66831 5.2685 2.62631 5.36623C2.52858 5.58972 2.44483 5.8832 2.64031 6.07869C2.75204 6.19041 2.82207 5.99466 2.9058 6.02269C3.00352 6.06441 3.10128 6.10641 3.12928 6.21817C3.17128 6.21817 3.31104 5.7572 3.39477 5.88296C3.42249 5.84123 3.68798 5.67347 3.71598 5.68747C3.68798 5.67347 3.68798 5.91096 3.65998 5.93896C3.52052 6.06471 3.81373 6.14844 3.71598 5.96696C3.65998 5.86923 3.72998 5.8412 3.81371 5.8132C3.85571 5.7992 3.82771 5.72947 3.85571 5.71547C3.85571 5.72947 3.98146 5.8132 3.99547 5.8132C4.09319 5.86893 3.98146 5.92493 4.14922 5.89693C4.27498 5.86893 4.34471 6.00866 4.45644 5.91093C4.54016 5.84093 4.63819 5.91093 4.70792 5.88293C4.68019 5.89693 4.65219 5.91093 4.62419 5.89693C4.63819 5.98096 4.84768 5.99496 4.83368 6.06469C4.81968 6.13441 4.8894 6.13441 4.93141 6.14841C5.02943 6.19041 5.02943 6.26044 5.09916 6.33017C5.15516 6.3859 5.30892 6.51166 5.40668 6.4419C5.50441 6.3859 5.89565 6.53963 5.89565 6.66539C5.92337 6.63738 6.09113 7.0006 6.09113 7.01463C6.09113 7.01463 6.09113 7.01485 6.09113 7.02778C6.09113 7.02805 6.09149 7.02854 6.0916 7.0289C6.09253 7.02947 6.09455 7.03131 6.09419 7.03478C6.09417 7.03494 6.09419 7.03508 6.09419 7.03522C6.09417 7.03535 6.09422 7.03546 6.09419 7.03563C6.10231 7.08014 6.19334 7.1695 6.28686 7.19611C6.31459 7.37759 6.35659 7.22384 6.48235 7.26584C6.53835 7.27984 6.69183 7.32157 6.73383 7.36357C6.76183 7.39157 6.74783 7.50332 6.76183 7.50332C6.76183 7.50332 6.84556 7.46132 6.83156 7.47532C6.87356 7.4196 6.97132 7.48932 6.99932 7.48932C7.08305 7.51732 7.18107 7.48932 7.2648 7.50332C7.41856 7.51732 7.50229 7.67108 7.62804 7.74081C7.7818 7.82454 7.83753 7.71281 7.89353 7.92229C7.93553 8.06205 7.92153 8.20178 7.8238 8.29953C7.72607 8.41126 7.53032 8.64878 7.46056 8.67678C7.3348 8.7185 7.44656 9.36123 7.2928 9.48699C7.13905 9.61274 7.16705 9.89196 6.94356 9.8222C6.91556 9.8082 6.77608 9.89193 6.73408 9.90593C6.60832 9.96166 6.49659 10.0177 6.39886 10.1154C6.28711 10.2134 6.38486 10.3949 6.27311 10.5207C6.27311 10.5207 6.04962 10.8139 6.00762 10.8699C5.99362 10.8559 5.99362 10.8419 5.97962 10.8419C5.95162 10.8839 5.88159 10.9116 5.92362 10.9677C5.92362 10.9257 5.95162 10.9117 5.97962 10.9117C6.00762 10.9397 5.90989 11.0514 5.89589 11.0514C5.82589 11.1214 5.78416 11.0514 5.72814 11.0934C5.65841 11.1354 5.53265 11.0377 5.47665 11.0237C5.46265 11.0934 5.65813 11.2054 5.68613 11.2752C5.77016 11.4987 5.29489 11.4707 5.22516 11.4847C5.22516 11.5264 5.29517 11.6241 5.28117 11.6661C5.23917 11.7639 5.08568 11.6241 5.04368 11.6661C5.01568 11.6939 5.14141 11.8476 5.15541 11.8616C5.14141 11.8896 5.11341 12.0294 5.09941 12.0294C5.04341 12.0154 4.97365 12.0991 5.04341 12.1551C5.08541 12.1831 5.14114 12.1831 5.18316 12.2111C5.28089 12.2671 5.09914 12.3232 5.14116 12.3929C5.19716 12.4906 5.01541 12.4346 5.18316 12.5884C4.98013 12.6004 5.12323 12.6934 5.16944 12.7203C5.16747 12.7172 5.17841 12.7141 5.19716 12.6861C5.18344 12.6721 5.14144 12.7001 5.12744 12.6721C5.08571 12.5604 5.29519 12.7001 5.29519 12.6861C5.36492 12.7278 5.47668 12.7278 5.51868 12.7698C5.49068 12.7698 5.42095 12.7978 5.39292 12.7978C5.22517 12.7698 4.98768 12.7838 4.84792 12.6441C4.73603 12.5605 4.61055 12.4488 4.54109 12.323ZM5.43476 0.6713C5.44876 0.629299 5.47676 0.629299 5.54649 0.629299C5.51849 0.6713 5.47649 0.6713 5.43476 0.6713ZM5.00179 0.936512C4.98779 0.950512 4.97379 0.964512 4.94579 0.978513C4.95979 0.950512 4.98752 0.936512 5.00179 0.936512ZM4.93179 0.894511C4.88979 0.922512 4.86206 0.936512 4.82003 0.936512C4.86176 0.908785 4.88979 0.908785 4.93179 0.894511ZM5.21004 2.05539C5.21281 2.06192 5.28234 2.09624 5.29503 2.09624C5.30903 2.11024 5.32303 2.09624 5.33703 2.09624C5.26867 2.1783 5.18686 2.07275 5.21004 2.05539ZM5.29503 1.81672C5.36503 1.81672 5.40676 1.83072 5.46279 1.87273C5.39276 1.88675 5.33703 1.85873 5.29503 1.81672ZM4.75441 5.96718C4.7529 5.96688 4.7517 5.96663 4.75003 5.96633C4.75003 5.96633 4.77803 5.8823 4.81976 5.8826C4.88976 5.92433 4.77803 5.96633 4.75003 5.96633C4.75003 5.9663 4.75184 5.96666 4.75441 5.96718ZM4.77612 5.97141C4.77256 5.97073 4.76666 5.96956 4.75829 5.96791C4.76398 5.96904 4.77128 5.97048 4.77612 5.97141ZM4.40079 4.98836C4.10758 4.8486 4.31706 5.19784 4.40079 4.98836V4.98836ZM3.25509 4.8066C3.18536 4.8206 3.29709 4.75088 3.29709 4.73688C3.25509 4.62515 2.93385 4.61112 2.90585 4.52739C2.91985 4.52739 2.93385 4.51339 2.93385 4.49939C2.82212 4.45739 2.76609 4.58312 2.66836 4.58312C2.87812 4.23388 3.36709 4.63885 3.57658 4.7926C3.46485 4.7926 3.35312 4.7926 3.25509 4.8066ZM3.31109 5.03009C3.29709 5.08582 3.14334 5.01609 3.12933 4.98809C3.18534 4.96009 3.22706 4.97409 3.28309 5.00209C3.29709 5.00209 3.31109 5.00209 3.31109 5.03009ZM2.82212 4.58312C2.82212 4.61112 2.80812 4.62512 2.78012 4.61112C2.78012 4.59712 2.82212 4.54112 2.82212 4.58312ZM3.31916 4.35701C3.29354 4.28936 3.27308 4.28466 3.32509 4.21988C3.33909 4.28988 3.33909 4.31761 3.32509 4.35963C3.32509 4.34938 3.31771 4.34678 3.31916 4.35701ZM3.71606 4.96009C3.67433 4.89036 3.71606 4.86236 3.63233 4.83433C3.70233 4.7366 3.96785 4.84833 4.03758 4.89033C4.03758 4.90433 4.00957 4.89033 4.00957 4.90433C4.00957 4.90433 4.17733 5.04409 4.06558 5.00206C3.93982 4.94606 3.86982 5.01579 3.78609 5.07179C3.71609 4.97406 3.60433 5.04406 3.5206 5.00206C3.46485 4.97436 3.68833 4.97436 3.71606 4.96009ZM5.19727 11.8341C5.19727 11.8898 5.08555 11.8061 5.16927 11.7921C5.18327 11.792 5.19727 11.806 5.19727 11.8341ZM8.42521 13.7894C8.06197 13.8731 7.68476 13.9151 7.30751 13.9291C6.59479 13.9571 5.8543 13.9011 5.16985 13.6917C5.25388 13.7057 5.36561 13.7477 5.44933 13.7337C5.3653 13.6779 5.25358 13.6919 5.18385 13.6359C5.46306 13.6779 5.74255 13.6639 6.00806 13.6919C5.98006 13.6499 5.74257 13.5942 5.74257 13.5802C5.77057 13.5802 5.96606 13.5662 5.96606 13.5662C6.04979 13.4965 5.8263 13.5105 5.85433 13.4545C5.85433 13.4405 5.92406 13.4685 5.93806 13.4405C5.96606 13.3988 5.93806 13.3708 5.95206 13.3428C5.96606 13.329 6.3013 13.259 6.3433 13.273C6.30157 13.3007 6.25957 13.273 6.27357 13.3428C6.23157 13.3428 6.13382 13.3427 6.11982 13.3848C6.11982 13.3708 6.23157 13.5385 6.24557 13.5385C6.2873 13.5942 6.42706 13.6362 6.44106 13.72C6.46906 13.8457 7.12578 13.8317 7.22354 13.8177C7.47503 13.7897 7.69851 13.706 7.936 13.664C8.07545 13.6362 8.22921 13.5942 8.36897 13.5802C8.43869 13.5802 8.66218 13.4965 8.71821 13.5105C8.74593 13.6222 9.27691 13.4685 9.40266 13.4965C9.40261 13.5245 8.52239 13.7619 8.42521 13.7894ZM9.24912 1.62124C9.20712 1.57924 9.23512 1.48148 9.13739 1.45348C9.16512 1.43948 9.19312 1.43948 9.20712 1.42548C9.13712 1.272 9.36061 1.45348 9.38861 1.48148C9.51433 1.60724 9.31858 1.69097 9.24912 1.62124ZM9.64009 1.747C9.61209 1.66327 9.70982 1.66327 9.71009 1.64954C9.71009 1.63554 9.58434 1.62154 9.57034 1.62154C9.59806 1.62154 9.52834 1.52381 9.51434 1.49578C9.52834 1.49578 9.55634 1.49578 9.57034 1.48178C9.55634 1.43978 9.34685 1.31403 9.33285 1.32803C9.24882 1.37003 9.16509 1.16054 9.15109 1.13254C9.27685 1.11854 9.36058 1.258 9.48633 1.31403C9.58406 1.35575 9.9473 1.53751 9.9613 1.64927C9.9753 1.705 9.68209 1.67727 9.64009 1.747Z" fill="#B8C1C7"/>
<path d="M5.0015 12.6722C5.0295 12.6582 5.0295 12.6582 5.0155 12.6442C4.9875 12.6582 4.97377 12.6582 5.0015 12.6722Z" fill="#B8C1C7"/>
<path d="M4.75003 12.5325C4.73603 12.5325 4.73603 12.5465 4.75003 12.5605C4.77803 12.5465 4.77803 12.5465 4.75003 12.5325Z" fill="#B8C1C7"/>
<path d="M4.56855 10.6326C4.52655 10.6326 4.61055 10.6186 4.56855 10.6326V10.6326Z" fill="#B8C1C7"/>
<path d="M5.18328 12.7283C5.18328 12.7283 5.1774 12.7252 5.16956 12.7204C5.17068 12.7218 5.17404 12.7235 5.18328 12.7283Z" fill="#B8C1C7"/>
<path d="M4.4008 4.98836C4.34507 4.97436 4.3868 5.01609 4.4008 4.98836V4.98836Z" fill="#B8C1C7"/>
<path d="M10.1933 0.967331C10.2017 0.970147 10.211 0.973237 10.1933 0.967331V0.967331Z" fill="#B8C1C7"/>
<path d="M5.60223 0.741026C5.63023 0.727025 5.65823 0.741026 5.68596 0.713025C5.64423 0.685298 5.63023 0.685298 5.60223 0.741026Z" fill="#B8C1C7"/>
<path d="M4.68032 1.48151C4.65232 1.49551 4.62432 1.49551 4.59659 1.50951C4.65232 1.52351 4.65232 1.52351 4.68032 1.48151Z" fill="#B8C1C7"/>
<path d="M5.50449 0.811057C5.51849 0.811057 5.53249 0.811057 5.54649 0.811057C5.54649 0.811057 5.56051 0.755029 5.50449 0.811057Z" fill="#B8C1C7"/>
<path d="M4.86176 0.769028C4.88976 0.755028 4.88976 0.741028 4.86176 0.741028C4.83376 0.755028 4.83376 0.755028 4.86176 0.769028Z" fill="#B8C1C7"/>
<path d="M4.9598 0.755028C4.9318 0.755028 4.9178 0.755028 4.9038 0.769028C4.84807 0.797056 4.9738 0.783028 4.9598 0.755028Z" fill="#B8C1C7"/>
<path d="M5.5188 1.48121C5.50453 1.46748 5.49053 1.45348 5.4628 1.45348C5.47519 1.47878 5.43116 1.48116 5.45342 1.46076C5.42372 1.47943 5.37623 1.47457 5.35104 1.53724C5.37904 1.49521 5.5188 1.49521 5.5188 1.48121Z" fill="#B8C1C7"/>
<path d="M4.65231 1.761C4.65456 1.75875 4.66043 1.75512 4.66547 1.75175C4.66013 1.76548 4.61059 1.83381 4.75004 1.70499C4.75004 1.70499 4.69262 1.73412 4.66547 1.75175C4.66713 1.74757 4.66547 1.74784 4.65231 1.761Z" fill="#B8C1C7"/>
<path d="M5.08556 1.719C5.04353 1.705 5.12729 1.719 5.08556 1.719V1.719Z" fill="#B8C1C7"/>
<path d="M4.9178 1.34175C4.9038 1.32775 4.9038 1.31375 4.8898 1.32775C4.9038 1.35575 4.9038 1.35575 4.9178 1.34175Z" fill="#B8C1C7"/>
<path d="M3.70235 1.83073C3.73035 1.85873 3.77208 1.78873 3.77208 1.77473C3.75808 1.747 3.68835 1.81673 3.70235 1.83073Z" fill="#B8C1C7"/>
<path d="M3.87009 0.908783C3.85609 0.894783 3.77236 0.950784 3.74433 0.964784C3.73033 0.978785 3.71633 0.978785 3.70233 1.00679C3.71633 0.992512 3.91182 0.950511 3.87009 0.908783Z" fill="#B8C1C7"/>
<path d="M3.45112 2.2217C3.43712 2.2357 3.26937 2.47318 3.29737 2.50118C3.31137 2.51518 3.63261 2.17997 3.67461 2.15194C3.78634 2.08221 3.68861 2.2917 3.64661 2.3197C3.67433 2.3057 3.70233 2.2777 3.71633 2.2917C3.73034 2.31942 3.71633 2.34742 3.68833 2.37542C3.74406 2.36142 3.86982 2.24967 3.86982 2.17994C3.95385 2.29197 3.99557 2.15221 3.91182 2.11021C3.78606 2.06821 3.56258 2.13824 3.45112 2.2217ZM3.89809 2.15224C3.87009 2.16624 3.85609 2.16624 3.85609 2.13824C3.85609 2.13824 3.91182 2.12424 3.89809 2.15224Z" fill="#B8C1C7"/>
<path d="M3.57556 2.50576C3.5759 2.50436 3.57612 2.50301 3.57674 2.50145C3.57562 2.50373 3.57537 2.50501 3.57556 2.50576Z" fill="#B8C1C7"/>
<path d="M3.73035 1.09027C3.73035 1.05458 3.6079 1.12076 3.56363 1.14069C3.61124 1.12576 3.73035 1.1026 3.73035 1.09027Z" fill="#B8C1C7"/>
<path d="M3.56362 1.14069C3.55717 1.14272 3.55195 1.1446 3.54858 1.14627C3.55063 1.14627 3.55613 1.14406 3.56362 1.14069Z" fill="#B8C1C7"/>
<path d="M3.57555 2.50523C3.56076 2.56672 3.8561 2.45945 3.8561 2.45945C3.8001 2.47345 3.8421 2.45945 3.8561 2.45945C3.8841 2.44545 3.9121 2.43145 3.93983 2.40345C3.88383 2.40345 3.67434 2.41745 3.64634 2.43145C3.67238 2.41843 3.57782 2.51414 3.57555 2.50523Z" fill="#B8C1C7"/>
<path d="M3.8981 2.36172C3.95383 2.41745 4.34507 2.33372 4.09359 2.30572C4.02386 2.2917 3.95383 2.3057 3.8981 2.36172Z" fill="#B8C1C7"/>
<path d="M4.05157 0.755031C4.1213 0.741031 4.21933 0.713031 4.27506 0.657303C4.1913 0.671303 4.1213 0.71303 4.05157 0.755031Z" fill="#B8C1C7"/>
<path d="M4.06557 2.11024C4.06557 2.09624 4.05157 2.09624 4.03757 2.11024C4.05157 2.12424 4.05157 2.12424 4.06557 2.11024Z" fill="#B8C1C7"/>
</g>
<defs>
<clipPath id="clip0_13_2641">
<rect width="14" height="14" fill="white"/>
</clipPath>
</defs>
</svg>
