<svg width="306" height="72" viewBox="0 0 306 72" fill="none" xmlns="http://www.w3.org/2000/svg">
<path d="M87.8343 16.8419C87.8917 16.9066 87.9634 16.9572 88.0438 16.9896C88.1241 17.0219 88.2109 17.0352 88.2972 17.0284C88.4508 17.031 88.5992 16.974 88.7116 16.8695L90.1486 15.4533C90.1952 15.4105 90.2327 15.3588 90.2591 15.3013C90.2827 15.347 90.313 15.3889 90.349 15.4257L91.7858 16.8073C91.9005 16.9224 92.0523 16.9933 92.2142 17.0076C92.2983 17.0156 92.3832 17.0042 92.4622 16.9743C92.5413 16.9444 92.6123 16.8967 92.67 16.8349L94.0517 15.4188C94.1154 15.3631 94.1659 15.2939 94.1994 15.2162C94.2329 15.1385 94.2485 15.0543 94.2451 14.9697C94.2293 14.7974 94.1535 14.636 94.0309 14.5138L92.6149 13.1321C92.5587 13.0713 92.4903 13.0232 92.414 12.991C92.3378 12.9589 92.2554 12.9434 92.1727 12.9456C92.0156 12.9519 91.8671 13.0187 91.7583 13.1321L90.3282 14.5138C90.2814 14.5617 90.244 14.6179 90.2178 14.6796C90.187 14.6188 90.1473 14.563 90.1002 14.5138L88.684 13.1321C88.5713 13.016 88.4175 12.949 88.2558 12.9456C88.1719 12.9429 88.0885 12.9581 88.011 12.9902C87.9336 13.0224 87.8638 13.0708 87.8066 13.1321L86.425 14.5138C86.3629 14.5698 86.315 14.6396 86.285 14.7177C86.255 14.7957 86.2438 14.8797 86.2523 14.9628C86.2631 15.1203 86.3236 15.2702 86.425 15.3911L87.8343 16.8419Z" fill="#C1986D"/>
<path d="M111.509 35.0727C111.465 35.0087 111.406 34.9567 111.338 34.9216C111.269 34.8866 111.192 34.8696 111.115 34.8724C111.035 34.8721 110.956 34.8899 110.884 34.9247C110.813 34.9594 110.75 35.01 110.7 35.0727L109.319 36.406L108.006 35.0796C107.955 35.0146 107.89 34.9621 107.816 34.9261C107.742 34.8902 107.66 34.8718 107.578 34.8724C107.495 34.8723 107.414 34.8909 107.34 34.9268C107.266 34.9627 107.201 35.0149 107.149 35.0796L105.816 36.4129C105.705 36.5276 105.642 36.6813 105.642 36.8412C105.642 37.0011 105.705 37.1548 105.816 37.2695L107.156 38.6028C107.28 38.7083 107.436 38.767 107.599 38.7686C107.673 38.7749 107.749 38.766 107.82 38.7422C107.891 38.7184 107.957 38.6804 108.013 38.6304L109.346 37.2902L110.728 38.6097C110.848 38.7122 110.999 38.7707 111.156 38.7755C111.229 38.7834 111.303 38.7751 111.372 38.7512C111.441 38.7273 111.504 38.6885 111.557 38.6373L112.89 37.2971C112.954 37.2415 113.004 37.1723 113.038 37.0946C113.071 37.0169 113.087 36.9326 113.084 36.8481C113.079 36.7652 113.057 36.6843 113.019 36.6105C112.98 36.5367 112.927 36.4718 112.863 36.4198L111.509 35.0727Z" fill="#C1986D"/>
<path d="M115.833 25.0078C115.778 24.5588 115.709 24.1305 115.633 23.7091C115.557 23.2877 115.481 22.9561 115.419 22.7005C115.371 22.4684 115.249 22.2579 115.073 22.0995C114.985 22.0272 114.88 21.9781 114.768 21.9564C114.656 21.9347 114.54 21.9411 114.431 21.9751L112.117 22.431C111.935 22.4606 111.766 22.5395 111.626 22.659C111.481 22.7765 111.439 22.9906 111.488 23.3084C111.536 23.6262 111.633 24.1443 111.716 24.6417C111.796 25.1259 111.84 25.6155 111.847 26.1062C111.932 26.7442 111.785 27.3915 111.433 27.93C111.191 28.1502 110.905 28.3155 110.594 28.4145C110.283 28.5135 109.954 28.5438 109.63 28.5034H94.2173C93.9375 28.5385 93.6536 28.5162 93.3827 28.4378C93.1119 28.3594 92.8599 28.2266 92.6422 28.0474C92.3005 27.4993 92.1545 26.8516 92.2278 26.2098V19.3845C92.2325 19.245 92.1886 19.1083 92.1035 18.9976C92.0585 18.9411 92.0004 18.8964 91.9341 18.8675C91.8679 18.8386 91.7955 18.8263 91.7235 18.8319H88.9049C88.7381 18.8227 88.5738 18.8742 88.4421 18.9769C88.3821 19.0414 88.3364 19.1178 88.3078 19.2011C88.2793 19.2844 88.2685 19.3728 88.2763 19.4605V20.6142L85.6373 21.5537C84.4884 21.939 83.4087 22.5058 82.4389 23.2324C81.7293 23.7661 81.1523 24.4564 80.7532 25.2496C80.4185 25.9454 80.2483 26.7089 80.2558 27.4809C80.2284 28.0372 80.3113 28.5934 80.4998 29.1174C80.6884 29.6415 80.9788 30.123 81.3543 30.5344C81.7968 30.9436 82.3192 31.2567 82.8887 31.4541C83.4582 31.6514 84.0625 31.7288 84.6633 31.6811C85.4925 31.6966 86.3137 31.5168 87.0604 31.1561C87.7153 30.8257 88.2706 30.3275 88.6699 29.7123C88.8954 30.8322 89.5007 31.84 90.3833 32.5654C91.3401 33.2338 92.4922 33.5644 93.6578 33.5049H101.816H109.174C110.549 33.5998 111.923 33.3054 113.139 32.6552C114.127 32.0705 114.888 31.17 115.301 30.0992C115.771 28.8271 115.987 27.4752 115.937 26.12C115.928 25.7473 115.893 25.3758 115.833 25.0078ZM88.297 25.3532C88.3117 25.7992 88.1991 26.2401 87.9724 26.6243C87.7603 26.9637 87.4592 27.2385 87.1019 27.4188C86.7392 27.6069 86.336 27.7041 85.9274 27.702C85.5403 27.722 85.1588 27.6045 84.8498 27.3704C84.7178 27.2664 84.612 27.1328 84.5412 26.9804C84.4704 26.828 84.4365 26.661 84.4422 26.4931C84.4477 26.2989 84.4972 26.1085 84.5869 25.9362C84.6767 25.7639 84.8044 25.6141 84.9603 25.4983C85.3819 25.1723 85.8665 24.9371 86.3835 24.8075L88.297 24.2272V25.3532Z" fill="#C1986D"/>
<path d="M124.634 24.151C124.601 23.8866 124.476 23.6422 124.282 23.4602C124.176 23.4037 124.06 23.3712 123.94 23.3653C123.821 23.3593 123.702 23.3799 123.591 23.4256L121.222 24.0059C121.081 24.0148 120.945 24.0589 120.826 24.134C120.706 24.2092 120.608 24.313 120.539 24.436C120.47 24.559 120.434 24.6973 120.432 24.8382C120.431 24.979 120.465 25.1181 120.531 25.2425C120.8 26.2304 121.028 27.2182 121.222 28.1992C121.404 29.0812 121.501 29.9789 121.512 30.8796C121.533 31.6767 121.397 32.4701 121.111 33.2146C120.855 33.8464 120.389 34.3709 119.792 34.6998C119.031 35.0782 118.187 35.2565 117.339 35.2179H116.856C116.611 35.211 116.37 35.2785 116.165 35.4114C116.076 35.4754 116.004 35.5609 115.957 35.6599C115.91 35.759 115.889 35.8684 115.895 35.9779V38.824C115.887 39.0462 115.958 39.2641 116.096 39.4389C116.181 39.5249 116.283 39.5912 116.397 39.633C116.51 39.6748 116.632 39.6911 116.752 39.6806H117.781C119.296 39.721 120.793 39.3485 122.113 38.603C123.288 37.9074 124.232 36.8815 124.828 35.6532C125.469 34.313 125.788 32.8416 125.76 31.3563C125.751 30.1281 125.635 28.9031 125.415 27.6949C125.203 26.4376 124.943 25.2563 124.634 24.151Z" fill="#C1986D"/>
<path d="M154.45 17.7682C154.509 17.831 154.581 17.8802 154.661 17.9124C154.741 17.9446 154.827 17.9591 154.913 17.9547C154.99 17.9562 155.066 17.9423 155.137 17.9138C155.208 17.8853 155.273 17.8429 155.328 17.7889L156.765 16.4073C156.81 16.3606 156.847 16.307 156.875 16.2484C156.897 16.2972 156.927 16.3417 156.965 16.3796L158.402 17.7613C158.517 17.8764 158.668 17.9473 158.83 17.9616C158.914 17.9696 158.999 17.9582 159.078 17.9283C159.157 17.8983 159.228 17.8506 159.286 17.7889L160.668 16.4073C160.732 16.3506 160.783 16.2802 160.816 16.2013C160.85 16.1224 160.865 16.0369 160.861 15.9513C160.848 15.7802 160.772 15.6202 160.647 15.5023L159.265 14.1206C159.21 14.0587 159.142 14.0098 159.065 13.9776C158.989 13.9453 158.906 13.9305 158.823 13.9341C158.666 13.9404 158.518 14.0072 158.409 14.1206L156.979 15.5368C156.934 15.5835 156.896 15.6371 156.868 15.6957C156.835 15.6384 156.796 15.5851 156.751 15.5368L155.369 14.1552C155.256 14.0395 155.103 13.9705 154.941 13.9618C154.856 13.9584 154.772 13.9741 154.694 14.0075C154.617 14.041 154.547 14.0915 154.492 14.1552L153.11 15.5368C153.047 15.5936 152.998 15.6645 152.968 15.7438C152.938 15.8232 152.928 15.9085 152.937 15.9928C152.95 16.1499 153.01 16.2995 153.11 16.4211L154.45 17.7682Z" fill="#C1986D"/>
<path d="M193.101 14.3208H190.283C190.206 14.3172 190.129 14.3302 190.058 14.3588C189.986 14.3874 189.922 14.431 189.868 14.4866C189.814 14.5406 189.771 14.6053 189.742 14.6766C189.714 14.7479 189.7 14.8243 189.702 14.9011V25.9543C189.722 26.4508 189.664 26.9473 189.53 27.4257C189.484 27.5831 189.407 27.7293 189.302 27.8554C189.198 27.9814 189.068 28.0844 188.922 28.158C188.559 28.3176 188.164 28.3909 187.768 28.3721H180.363H178.753H177.427C177.001 28.3533 176.577 28.3118 176.156 28.2478C176.757 27.7089 177.24 27.2461 177.599 26.8661C177.927 26.5343 178.191 26.1458 178.38 25.7194C178.547 25.307 178.629 24.8654 178.622 24.4206C178.636 23.8736 178.5 23.3331 178.228 22.8581C177.957 22.3831 177.56 21.9916 177.081 21.7264C176.05 21.1139 174.369 20.8053 172.038 20.8007C171.072 20.8032 170.108 20.8934 169.157 21.0701C168.17 21.2516 167.205 21.5364 166.277 21.9199C166.02 22.0119 165.797 22.1778 165.634 22.3965C165.476 22.6531 165.401 22.9523 165.42 23.2531V25.07C165.411 25.3438 165.458 25.6166 165.558 25.8714C165.682 26.1166 165.859 26.3314 166.076 26.5L167.99 28.2409L166.767 28.3307L165.482 28.3929C165.04 28.3929 164.557 28.3929 164.039 28.3929H162.415C162.051 28.3929 161.761 28.3929 161.545 28.3929L160.812 28.3376C161.226 27.8718 161.554 27.3361 161.78 26.7556C161.992 26.1998 162.099 25.6096 162.097 25.0147C162.095 24.1349 161.877 23.269 161.462 22.4932C161.023 21.6651 160.36 20.9768 159.549 20.5066C158.738 20.0364 157.812 19.8032 156.875 19.8336C155.837 19.8019 154.809 20.0399 153.89 20.5244C153.078 20.9738 152.401 21.632 151.928 22.4311C151.472 23.2002 151.233 24.0789 151.238 24.9733C151.237 25.3865 151.292 25.798 151.403 26.196C151.514 26.5868 151.672 26.9626 151.873 27.3152C152.072 27.672 152.303 28.0096 152.564 28.3238L151.811 28.3652H150.713C150.319 28.3652 149.925 28.3652 149.545 28.3652H142.34H134.05C133.742 28.3752 133.435 28.3259 133.145 28.2201C132.909 28.1176 132.723 27.9266 132.627 27.6882C132.509 27.3581 132.453 27.0092 132.461 26.6589V14.8666C132.465 14.7187 132.422 14.5734 132.337 14.4521C132.29 14.3976 132.232 14.3549 132.166 14.3273C132.1 14.2997 132.028 14.288 131.957 14.2932H129.194C129.024 14.2896 128.859 14.3432 128.724 14.4452C128.661 14.497 128.612 14.5627 128.579 14.6371C128.547 14.7115 128.533 14.7925 128.537 14.8735V28.4757C128.512 29.4187 128.671 30.3575 129.007 31.239C129.282 31.9366 129.793 32.5158 130.451 32.8763C131.186 33.2487 132.004 33.4293 132.827 33.4013H134.644H141.995H149.504C150.692 33.4013 151.659 33.4013 152.412 33.346C153.033 33.3242 153.652 33.2572 154.264 33.1457C154.699 33.0599 155.121 32.9182 155.521 32.7243C155.906 32.5224 156.276 32.2914 156.626 32.0335C157.165 32.3236 157.625 32.5539 158.008 32.7243C158.418 32.9119 158.85 33.051 159.293 33.1388C159.838 33.2404 160.39 33.2982 160.944 33.3115C161.593 33.3115 162.415 33.353 163.424 33.346H163.548H163.652C164.757 33.346 165.724 33.346 166.484 33.2977C167.18 33.2692 167.872 33.1907 168.557 33.0628C169.115 32.956 169.659 32.7868 170.18 32.5585C170.719 32.3164 171.236 32.0299 171.727 31.7019C172.151 31.9964 172.599 32.253 173.068 32.4687C173.531 32.6789 174.011 32.8477 174.504 32.973C175.029 33.1008 175.563 33.1909 176.1 33.2424C176.708 33.3056 177.32 33.3356 177.931 33.3322H187.423C188.513 33.379 189.602 33.2245 190.635 32.8763C191.401 32.6006 192.066 32.0997 192.542 31.4394C193.017 30.7309 193.331 29.9267 193.461 29.0837C193.636 28.0383 193.719 26.9796 193.709 25.9197V14.8113C193.715 14.6585 193.661 14.5096 193.557 14.3968C193.492 14.3502 193.417 14.3191 193.338 14.3059C193.259 14.2928 193.178 14.2979 193.101 14.3208ZM157.959 26.4862C157.62 26.8903 157.21 27.2296 156.75 27.4879C156.273 27.2293 155.848 26.8824 155.5 26.4655C155.248 26.1363 155.112 25.7331 155.113 25.3187C155.103 25.1093 155.141 24.9003 155.223 24.7076C155.306 24.5149 155.431 24.3436 155.59 24.2065C155.928 23.9142 156.366 23.7633 156.813 23.7851C157.021 23.7793 157.227 23.8168 157.42 23.8953C157.613 23.9738 157.787 24.0915 157.932 24.241C158.08 24.3931 158.196 24.5739 158.272 24.7723C158.348 24.9706 158.383 25.1824 158.374 25.3947C158.368 25.7959 158.222 26.1824 157.959 26.4862ZM173.8 26.4862C173.308 26.9115 172.779 27.2908 172.218 27.6191L169.213 25.0286C169.71 24.8869 170.215 24.7739 170.726 24.6901C171.182 24.6141 171.644 24.5748 172.107 24.5726C172.596 24.5536 173.084 24.6048 173.558 24.7246C173.824 24.7767 174.066 24.9122 174.249 25.1115C174.361 25.2493 174.415 25.425 174.401 25.6019C174.318 25.9671 174.104 26.2891 173.8 26.5069V26.4862Z" fill="#C1986D"/>
<path d="M201.06 14.3066H198.262C198.108 14.3033 197.959 14.3603 197.847 14.4654C197.793 14.5208 197.751 14.5869 197.724 14.6595C197.696 14.732 197.684 14.8094 197.688 14.8869V32.7377C197.685 32.8146 197.698 32.8914 197.726 32.9629C197.755 33.0344 197.799 33.0989 197.854 33.1522C197.908 33.2071 197.973 33.2502 198.044 33.2788C198.115 33.3073 198.192 33.3207 198.269 33.318H201.067C201.145 33.3225 201.223 33.3101 201.295 33.2815C201.368 33.2528 201.434 33.2087 201.488 33.1522C201.591 33.0394 201.646 32.8905 201.64 32.7377V14.8799C201.646 14.7271 201.591 14.5782 201.488 14.4654C201.432 14.41 201.365 14.3671 201.291 14.3397C201.217 14.3123 201.138 14.301 201.06 14.3066Z" fill="#C1986D"/>
<path d="M222.703 22.279C221.84 21.8216 220.881 21.5756 219.905 21.5612C218.929 21.5468 217.963 21.7644 217.087 22.1961C216.205 22.6552 215.443 23.3154 214.863 24.1235C214.156 25.1156 213.641 26.2308 213.343 27.4118C212.883 27.4943 212.446 27.673 212.06 27.9361C211.675 28.1992 211.349 28.5408 211.105 28.9385C210.515 29.9904 210.237 31.1885 210.303 32.3926V40.8828C210.292 40.968 210.3 41.0547 210.328 41.1362C210.355 41.2176 210.401 41.2917 210.462 41.3525C210.523 41.4133 210.597 41.4592 210.678 41.4868C210.76 41.5144 210.847 41.5228 210.932 41.5114H213.654C213.739 41.5243 213.826 41.5169 213.909 41.4898C213.991 41.4628 214.065 41.4168 214.127 41.3557C214.188 41.2945 214.234 41.2199 214.261 41.1378C214.288 41.0556 214.295 40.9683 214.282 40.8828V33.9607C214.233 33.4926 214.364 33.0233 214.648 32.6482C214.89 32.3995 215.291 32.3581 215.843 32.5238L217.529 33.0212C218.839 33.45 220.241 33.5145 221.584 33.2078C222.714 32.925 223.698 32.2333 224.348 31.2666C225.059 30.1333 225.408 28.8105 225.349 27.4739C225.377 26.3835 225.14 25.3026 224.658 24.3238C224.222 23.4647 223.542 22.7534 222.703 22.279ZM220.824 28.4964C220.663 28.6357 220.475 28.7412 220.272 28.8064C220.069 28.8717 219.855 28.8955 219.643 28.8763C219.221 28.8788 218.8 28.823 218.393 28.7105C217.867 28.5618 217.35 28.3818 216.845 28.1717C217.135 27.4951 217.553 26.8806 218.075 26.3617C218.46 25.9688 218.983 25.741 219.533 25.7262C219.761 25.7158 219.99 25.7515 220.205 25.831C220.419 25.9105 220.616 26.0322 220.783 26.189C220.94 26.3502 221.063 26.5418 221.144 26.752C221.224 26.9623 221.262 27.1867 221.253 27.4118C221.257 27.6068 221.221 27.8007 221.148 27.9813C221.074 28.1619 220.964 28.3255 220.824 28.4618V28.4964Z" fill="#C1986D"/>
<path d="M262.971 21.3328L257.023 17.4366C256.821 17.288 256.582 17.1972 256.333 17.1741C256.204 17.1801 256.079 17.2222 255.973 17.2955C255.867 17.3687 255.783 17.4703 255.731 17.5886L254.17 19.9581C254.084 20.0976 254.037 20.2572 254.032 20.4209C254.033 20.5158 254.058 20.6088 254.105 20.6911C254.152 20.7734 254.22 20.8421 254.301 20.8907L254.668 21.1325C254.098 21.2005 253.546 21.3714 253.037 21.6368C252.375 21.9781 251.82 22.4965 251.435 23.1344C251.049 23.7722 250.848 24.5045 250.854 25.2498C250.853 25.66 250.916 26.068 251.041 26.4587C251.158 26.8184 251.321 27.1619 251.524 27.4811C251.709 27.7604 251.924 28.0176 252.167 28.2479L250.854 28.2963C250.405 28.2963 249.901 28.2963 249.348 28.2963H241.991H233.701C233.39 28.3077 233.08 28.256 232.789 28.1443C232.673 28.0959 232.568 28.0244 232.48 27.9341C232.392 27.8439 232.323 27.7368 232.278 27.6193C232.154 27.2885 232.098 26.9361 232.112 26.5831V14.7977C232.114 14.649 232.068 14.5036 231.981 14.3832C231.937 14.3271 231.88 14.2827 231.815 14.2538C231.75 14.2249 231.679 14.2124 231.608 14.2174H228.817C228.649 14.2101 228.485 14.2642 228.354 14.3694C228.29 14.4197 228.238 14.485 228.205 14.5596C228.171 14.6342 228.156 14.7159 228.161 14.7977V28.3999C228.132 29.3431 228.291 30.2826 228.631 31.1632C228.903 31.8603 229.412 32.4396 230.068 32.8005C230.803 33.1729 231.62 33.3535 232.444 33.3255H249.024C250.253 33.3255 251.255 33.284 252.049 33.208C252.712 33.1607 253.364 33.014 253.984 32.7728C254.492 32.5598 254.942 32.2282 255.296 31.8057C256.169 32.2894 257.097 32.6652 258.06 32.9248C258.927 33.1587 259.821 33.2795 260.719 33.284C261.846 33.3017 262.956 33.0127 263.932 32.4481C264.846 31.9071 265.599 31.1321 266.115 30.203C266.653 29.2339 266.927 28.1404 266.909 27.0321C266.92 25.9105 266.569 24.8152 265.907 23.9096C265.093 22.8794 264.098 22.0062 262.971 21.3328ZM256.581 26.5416C256.274 26.8962 255.909 27.1974 255.503 27.4328C255.081 27.2007 254.7 26.8994 254.377 26.5416C254.139 26.265 254.009 25.9117 254.011 25.5468C254.005 25.3566 254.04 25.1673 254.114 24.992C254.188 24.8166 254.299 24.6594 254.44 24.5313C254.737 24.2645 255.125 24.1233 255.524 24.1376C255.714 24.1301 255.904 24.1633 256.08 24.2347C256.256 24.3062 256.415 24.4144 256.547 24.552C256.806 24.8361 256.945 25.2104 256.933 25.5952C256.93 25.942 256.805 26.2767 256.581 26.5416ZM262.108 28.3447C261.933 28.5161 261.723 28.6489 261.494 28.7346C261.264 28.8203 261.019 28.8569 260.774 28.842C260.514 28.8403 260.253 28.8242 259.994 28.7937C259.738 28.7594 259.488 28.6944 259.248 28.6003C259.006 28.5104 258.757 28.4068 258.509 28.2894C258.997 27.9068 259.382 27.4081 259.628 26.8387C259.853 26.2836 259.968 25.6899 259.966 25.0909C259.962 24.8561 259.922 24.6232 259.849 24.4001L260.643 24.9044C261.169 25.1888 261.637 25.5683 262.025 26.0235C262.3 26.3365 262.469 26.7281 262.508 27.1426C262.535 27.3618 262.511 27.584 262.441 27.7931C262.37 28.0022 262.254 28.193 262.101 28.3516L262.108 28.3447Z" fill="#C1986D"/>
<path d="M296.966 14.1899H294.141C294.064 14.1876 293.988 14.2012 293.917 14.2297C293.845 14.2582 293.781 14.3011 293.727 14.3557C293.621 14.4678 293.564 14.6166 293.568 14.7702V25.8234C293.586 26.3202 293.525 26.8169 293.388 27.2948C293.344 27.4519 293.268 27.5982 293.165 27.7242C293.061 27.8503 292.933 27.9534 292.787 28.0271C292.422 28.1866 292.025 28.2622 291.626 28.2481H284.228C283.837 28.2622 283.447 28.1988 283.081 28.0616C282.739 27.8958 282.456 27.6279 282.273 27.2948C281.941 26.7227 281.657 26.1243 281.423 25.5056L279.102 19.6405C279.006 19.3652 278.831 19.1247 278.598 18.9497C278.476 18.8889 278.343 18.8573 278.207 18.8573C278.072 18.8573 277.938 18.8889 277.817 18.9497L275.503 19.8823C275.37 19.9226 275.251 19.9977 275.157 20.0997C275.064 20.2018 274.999 20.3271 274.971 20.4626C274.951 20.7926 275.013 21.1224 275.15 21.4228L277.043 26.3277C277.129 26.5006 277.198 26.6809 277.251 26.8665C277.281 27.012 277.297 27.16 277.299 27.3086C277.306 27.4461 277.276 27.5831 277.211 27.7047C277.147 27.8264 277.051 27.9283 276.933 27.9994C276.619 28.1597 276.269 28.2336 275.917 28.2136H273.796C273.44 28.224 273.086 28.1457 272.767 27.9856C272.625 27.9089 272.508 27.792 272.432 27.6495C272.356 27.507 272.323 27.3452 272.339 27.1843V26.6523C272.351 26.5527 272.341 26.4516 272.31 26.3562C272.279 26.2608 272.227 26.1732 272.159 26.0997C272.016 25.9882 271.836 25.9341 271.655 25.9477H269.582C269.439 25.9282 269.292 25.9377 269.152 25.9756C269.012 26.0136 268.881 26.0793 268.767 26.1688C268.617 26.367 268.542 26.6114 268.553 26.8596V27.3846C268.463 28.9203 268.91 30.4394 269.817 31.6815C270.66 32.7108 272.021 33.229 273.9 33.222H274.985C276.008 33.2913 277.029 33.0506 277.914 32.5312C278.583 32.0627 279.048 31.3558 279.212 30.5555C279.676 31.4604 280.423 32.1884 281.34 32.6279C282.127 32.9906 282.982 33.1814 283.848 33.1875H291.253C292.341 33.2344 293.428 33.0798 294.459 32.7316C295.229 32.4603 295.897 31.9586 296.372 31.2947C296.845 30.5847 297.158 29.7811 297.291 28.939C297.466 27.8936 297.549 26.8349 297.54 25.775V14.6666C297.542 14.5144 297.488 14.3667 297.388 14.2521C297.325 14.214 297.256 14.1889 297.183 14.1782C297.111 14.1675 297.037 14.1715 296.966 14.1899Z" fill="#C1986D"/>
<path d="M305.353 14.3416C305.298 14.2848 305.231 14.2407 305.157 14.2121C305.083 14.1834 305.004 14.1711 304.925 14.1758H302.127C301.973 14.1725 301.825 14.2295 301.712 14.3346C301.657 14.3897 301.614 14.4555 301.586 14.5281C301.557 14.6006 301.544 14.6782 301.547 14.7561V32.6069C301.542 32.6844 301.553 32.7621 301.58 32.8348C301.608 32.9075 301.65 32.9735 301.705 33.0285C301.76 33.0834 301.826 33.126 301.899 33.1533C301.972 33.1807 302.05 33.1922 302.127 33.1872H304.89C304.97 33.1928 305.049 33.1809 305.123 33.1522C305.197 33.1235 305.264 33.0789 305.319 33.0214C305.422 32.9086 305.476 32.7597 305.471 32.6069V14.7491C305.481 14.6037 305.439 14.4592 305.353 14.3416Z" fill="#C1986D"/>
<path d="M90.1623 57.9527L89.4369 55.9838C89.4128 55.9171 89.3687 55.8594 89.3106 55.8186C89.2525 55.7778 89.1833 55.7559 89.1123 55.7559H84.2765C84.2055 55.7559 84.1363 55.7778 84.0782 55.8186C84.0201 55.8594 83.976 55.9171 83.9519 55.9838L83.261 57.9457C83.2372 58.0132 83.1934 58.0719 83.1354 58.1139C83.0774 58.1558 83.008 58.1791 82.9364 58.1806H80.1731C80.1159 58.1815 80.0594 58.1681 80.0087 58.1418C79.9579 58.1155 79.9145 58.077 79.8823 58.0297C79.8501 57.9825 79.8302 57.928 79.8243 57.8711C79.8184 57.8143 79.8267 57.7568 79.8484 57.704L85.0778 44.9169C85.1034 44.853 85.1472 44.7981 85.2036 44.7588C85.2601 44.7195 85.3268 44.6976 85.3956 44.6958H88.2488C88.3169 44.6961 88.3835 44.7167 88.44 44.7548C88.4966 44.7929 88.5406 44.8469 88.5665 44.91L93.8237 57.6832C93.8467 57.7359 93.8561 57.7935 93.8512 57.8507C93.8463 57.908 93.8273 57.9631 93.7957 58.0111C93.7642 58.0591 93.7212 58.0985 93.6706 58.1257C93.62 58.1529 93.5633 58.167 93.5058 58.1668H90.5216C90.447 58.1721 90.3726 58.1544 90.3084 58.1161C90.2442 58.0778 90.1932 58.0208 90.1623 57.9527ZM86.3697 49.2967L85.1331 52.7508C85.1143 52.8029 85.1083 52.8588 85.1156 52.9138C85.1229 52.9688 85.1433 53.0212 85.1751 53.0666C85.207 53.112 85.2494 53.149 85.2986 53.1746C85.3478 53.2002 85.4024 53.2136 85.4578 53.2136H87.9241C87.9795 53.2136 88.0341 53.2002 88.0833 53.1746C88.1325 53.149 88.1749 53.112 88.2068 53.0666C88.2386 53.0212 88.259 52.9688 88.2663 52.9138C88.2736 52.8588 88.2676 52.8029 88.2488 52.7508L87.0191 49.2967C86.9949 49.23 86.9507 49.1724 86.8926 49.1317C86.8345 49.0909 86.7653 49.0691 86.6944 49.0691C86.6235 49.0691 86.5542 49.0909 86.4961 49.1317C86.438 49.1724 86.3939 49.23 86.3697 49.2967Z" fill="#F3F8FA"/>
<path d="M96.5524 57.8215V45.0413C96.5524 44.995 96.5615 44.9492 96.5792 44.9065C96.597 44.8637 96.6229 44.8249 96.6556 44.7922C96.6884 44.7594 96.7271 44.7335 96.7698 44.7158C96.8126 44.6981 96.8585 44.689 96.9048 44.689H99.7509C99.8425 44.689 99.9303 44.7254 99.9951 44.7901C100.06 44.8549 100.096 44.9428 100.096 45.0344V54.5055C100.096 54.5971 100.133 54.685 100.197 54.7498C100.262 54.8146 100.35 54.8509 100.442 54.8509H105.05C105.141 54.8527 105.227 54.8897 105.292 54.9541C105.356 55.0185 105.393 55.1053 105.395 55.1963V57.8146C105.396 57.8605 105.388 57.9062 105.371 57.9489C105.354 57.9916 105.328 58.0305 105.296 58.0633C105.264 58.0961 105.226 58.1222 105.183 58.1399C105.141 58.1577 105.096 58.1669 105.05 58.1669H96.8702C96.7834 58.1599 96.7026 58.1205 96.6437 58.0564C96.5848 57.9924 96.5522 57.9085 96.5524 57.8215Z" fill="#F3F8FA"/>
<path d="M120.171 58.14H114.002C113.911 58.14 113.823 58.1036 113.758 58.0389C113.693 57.9741 113.657 57.8862 113.657 57.7946V45.0075C113.657 44.9159 113.693 44.8281 113.758 44.7633C113.823 44.6985 113.911 44.6621 114.002 44.6621H120.165C123.225 44.6621 125.47 46.1888 125.47 49.8847V53.3388C125.463 55.4804 124.323 58.1331 120.171 58.14ZM121.892 49.8916C121.892 48.5653 121.415 47.5152 119.722 47.5152H117.443C117.351 47.5152 117.263 47.5516 117.199 47.6164C117.134 47.6812 117.097 47.769 117.097 47.8606V54.7067C117.097 54.7983 117.134 54.8861 117.199 54.9509C117.263 55.0157 117.351 55.0521 117.443 55.0521H120.275C120.49 55.0777 120.708 55.055 120.913 54.9856C121.118 54.9161 121.304 54.8017 121.459 54.6506C121.614 54.4996 121.734 54.3158 121.809 54.1128C121.883 53.9097 121.912 53.6925 121.892 53.477V49.8916Z" fill="#F3F8FA"/>
<path d="M134.113 58.1188C134.067 58.1197 134.021 58.1114 133.978 58.0945C133.936 58.0775 133.897 58.0522 133.864 58.0201C133.831 57.9879 133.805 57.9495 133.787 57.9072C133.769 57.8648 133.76 57.8193 133.76 57.7733V57.276C132.861 57.8583 131.84 58.2269 130.776 58.3536H130.085C129.394 58.3536 127.211 57.8562 127.204 55.0239V54.1534C127.204 52.9238 127.792 51.0448 130.741 51.0448H133.159C133.251 51.0448 133.339 51.0084 133.404 50.9436C133.468 50.8788 133.505 50.7909 133.505 50.6993V50.1812C133.509 50.1221 133.5 50.0628 133.48 50.0072C133.46 49.9515 133.428 49.9006 133.387 49.8578C133.346 49.8149 133.297 49.781 133.242 49.7582C133.187 49.7354 133.129 49.7242 133.069 49.7253H129.097C129.006 49.7253 128.918 49.6889 128.853 49.6241C128.788 49.5593 128.752 49.4715 128.752 49.3799V47.4179C128.752 47.372 128.761 47.3265 128.779 47.2841C128.797 47.2418 128.823 47.2034 128.856 47.1712C128.888 47.139 128.927 47.1138 128.97 47.0968C129.013 47.0799 129.058 47.0716 129.104 47.0725H134.354C134.682 47.0384 135.012 47.0773 135.323 47.1864C135.633 47.2954 135.915 47.4719 136.149 47.7032C136.383 47.9344 136.563 48.2146 136.675 48.5237C136.788 48.8327 136.83 49.1629 136.8 49.4904V57.7803C136.8 57.8719 136.764 57.9597 136.699 58.0245C136.634 58.0893 136.546 58.1257 136.455 58.1257L134.113 58.1188ZM133.532 53.5801C133.532 53.4884 133.496 53.4006 133.431 53.3358C133.366 53.271 133.279 53.2346 133.187 53.2346H130.679C130.62 53.2297 130.56 53.2374 130.504 53.2573C130.448 53.2771 130.397 53.3087 130.354 53.3498C130.31 53.3909 130.276 53.4407 130.254 53.4959C130.232 53.551 130.221 53.6103 130.223 53.6699V54.8166C130.219 54.9344 130.24 55.0517 130.283 55.1612C130.327 55.2707 130.392 55.3701 130.476 55.4531C130.56 55.536 130.66 55.6009 130.769 55.6435C130.879 55.6862 130.997 55.7057 131.115 55.7009C131.849 55.6788 132.576 55.5556 133.277 55.3347C133.35 55.3153 133.416 55.2725 133.463 55.2127C133.511 55.1529 133.537 55.0794 133.539 55.0031L133.532 53.5801Z" fill="#F3F8FA"/>
<path d="M146.913 58.1048C146.822 58.1048 146.734 58.0684 146.669 58.0037C146.604 57.9389 146.568 57.851 146.568 57.7594V51.2519C146.568 50.3607 146.133 49.9255 145.47 49.9324C144.603 49.9707 143.74 50.0631 142.886 50.2088C142.804 50.2203 142.729 50.2608 142.675 50.3229C142.62 50.385 142.59 50.4646 142.589 50.5473V57.7663C142.587 57.8574 142.55 57.9442 142.486 58.0086C142.421 58.073 142.334 58.11 142.243 58.1117H139.618C139.527 58.1117 139.439 58.0754 139.374 58.0106C139.309 57.9458 139.273 57.8579 139.273 57.7663V44.3229C139.273 44.2313 139.309 44.1435 139.374 44.0787C139.439 44.0139 139.527 43.9775 139.618 43.9775H142.236C142.328 43.9775 142.416 44.0139 142.481 44.0787C142.545 44.1435 142.582 44.2313 142.582 44.3229V47.2313C142.582 47.2859 142.596 47.3397 142.621 47.3882C142.646 47.4366 142.682 47.4784 142.727 47.5101C142.771 47.5418 142.823 47.5625 142.877 47.5704C142.931 47.5784 142.986 47.5735 143.038 47.556C144.164 47.1293 145.351 46.8845 146.554 46.8306C147.88 46.8306 149.891 47.0517 149.898 50.8236V57.7318C149.898 57.824 149.862 57.9126 149.797 57.9785C149.732 58.0444 149.644 58.0823 149.552 58.0841L146.913 58.1048Z" fill="#F3F8FA"/>
<path d="M158.478 58.0911C158.432 58.092 158.386 58.0838 158.344 58.0669C158.301 58.0499 158.262 58.0246 158.229 57.9924C158.196 57.9603 158.17 57.9219 158.153 57.8795C158.135 57.8372 158.126 57.7917 158.126 57.7457V57.2483C157.103 57.7941 156.357 58.3191 155.438 58.326H154.747C154.057 58.326 151.874 57.8217 151.867 54.9893V54.1258C151.867 52.8892 152.454 51.0171 155.404 51.0102H157.822C157.913 51.0102 158.001 50.9738 158.066 50.9091C158.131 50.8443 158.167 50.7564 158.167 50.6648V50.1398C158.171 50.0807 158.162 50.0214 158.142 49.9657C158.122 49.9101 158.09 49.8592 158.049 49.8163C158.009 49.7735 157.959 49.7396 157.905 49.7168C157.85 49.694 157.791 49.6828 157.732 49.6838H153.76C153.668 49.6838 153.58 49.6474 153.515 49.5827C153.451 49.5179 153.414 49.43 153.414 49.3384V47.3834C153.413 47.3375 153.422 47.2918 153.439 47.2491C153.455 47.2064 153.481 47.1675 153.513 47.1347C153.545 47.1019 153.583 47.0758 153.626 47.058C153.668 47.0402 153.714 47.0311 153.76 47.0311H159.01C159.338 46.9968 159.669 47.0358 159.98 47.1453C160.291 47.2547 160.573 47.4318 160.807 47.6639C161.041 47.8959 161.221 48.1771 161.333 48.487C161.445 48.7969 161.487 49.1278 161.455 49.4559V57.7457C161.455 57.8373 161.419 57.9252 161.354 57.99C161.289 58.0548 161.202 58.0911 161.11 58.0911H158.478ZM158.195 53.5524C158.196 53.5065 158.187 53.4608 158.17 53.4181C158.153 53.3754 158.128 53.3365 158.096 53.3037C158.064 53.2709 158.025 53.2449 157.983 53.2271C157.941 53.2093 157.895 53.2001 157.849 53.2001H155.342C155.282 53.1952 155.222 53.2029 155.166 53.2228C155.11 53.2426 155.059 53.2741 155.016 53.3153C154.973 53.3564 154.939 53.4062 154.916 53.4614C154.894 53.5165 154.883 53.5758 154.886 53.6353V54.7752C154.882 54.8933 154.902 55.0109 154.946 55.1207C154.989 55.2306 155.055 55.3303 155.138 55.4139C155.222 55.4974 155.321 55.5629 155.431 55.6063C155.541 55.6498 155.659 55.6702 155.777 55.6664C156.511 55.6406 157.238 55.5175 157.939 55.3002C158.014 55.2805 158.08 55.2366 158.128 55.1754C158.175 55.1143 158.201 55.0391 158.202 54.9617L158.195 53.5524Z" fill="#F3F8FA"/>
<path d="M177.109 58.0571C177.063 58.0571 177.017 58.048 176.974 58.0303C176.932 58.0126 176.893 57.9866 176.86 57.9539C176.827 57.9212 176.801 57.8824 176.784 57.8396C176.766 57.7969 176.757 57.751 176.757 57.7048V51.218C176.757 50.5271 176.55 49.8916 175.658 49.8916C174.983 49.927 174.311 50.0124 173.648 50.1472C173.662 50.3588 173.662 50.5711 173.648 50.7827V57.691C173.648 57.7826 173.612 57.8704 173.547 57.9352C173.482 58 173.394 58.0364 173.303 58.0364H170.685C170.593 58.0364 170.505 58 170.44 57.9352C170.375 57.8704 170.339 57.7826 170.339 57.691V51.1834C170.339 50.4926 170.111 49.8571 169.22 49.8571C168.642 49.8879 168.068 49.9759 167.507 50.1196C167.429 50.1344 167.359 50.1767 167.309 50.2388C167.26 50.3009 167.234 50.3787 167.237 50.4581V57.691C167.237 57.7826 167.201 57.8704 167.136 57.9352C167.071 58 166.984 58.0364 166.892 58.0364H164.274C164.181 58.0364 164.093 58.0002 164.027 57.9356C163.961 57.8711 163.923 57.7832 163.921 57.691V47.3286C163.923 47.2358 163.961 47.1472 164.026 47.0815C164.092 47.0158 164.181 46.9781 164.274 46.9763H166.802L167.078 47.5497C168.106 47.0753 169.215 46.801 170.346 46.7414C170.77 46.7042 171.197 46.7542 171.601 46.8885C172.005 47.0228 172.377 47.2384 172.695 47.5221C172.742 47.5724 172.804 47.6073 172.872 47.6221C172.94 47.6369 173.01 47.6309 173.075 47.605C174.233 47.0978 175.473 46.803 176.736 46.7345C178.063 46.7345 180.073 46.9625 180.08 50.7275V57.6702C180.08 57.7618 180.043 57.8497 179.978 57.9145C179.914 57.9793 179.826 58.0156 179.734 58.0156L177.109 58.0571Z" fill="#F3F8FA"/>
<path d="M197.73 57.8283L195.658 54.3742C195.626 54.3237 195.582 54.2821 195.53 54.2531C195.479 54.2241 195.42 54.2087 195.361 54.2084H194.532C194.44 54.2084 194.352 54.2448 194.287 54.3096C194.223 54.3743 194.186 54.4622 194.186 54.5538V57.6349C194.186 57.7265 194.15 57.8143 194.085 57.8791C194.02 57.9439 193.932 57.9803 193.841 57.9803H191.223C191.131 57.9803 191.043 57.9439 190.978 57.8791C190.914 57.8143 190.877 57.7265 190.877 57.6349V44.8547C190.877 44.7631 190.914 44.6752 190.978 44.6104C191.043 44.5457 191.131 44.5093 191.223 44.5093H197.385C199.602 44.5093 201.751 45.6284 201.751 48.9374V49.8079C201.8 50.6294 201.59 51.4457 201.15 52.1412C200.71 52.8367 200.062 53.3762 199.298 53.6834C199.253 53.7033 199.213 53.7329 199.18 53.77C199.148 53.8071 199.124 53.8509 199.11 53.8983C199.096 53.9457 199.093 53.9955 199.1 54.0443C199.108 54.0931 199.126 54.1397 199.153 54.1808L201.26 57.4483C201.293 57.5011 201.312 57.5615 201.314 57.6236C201.316 57.6858 201.301 57.7473 201.272 57.802C201.242 57.8567 201.199 57.9027 201.146 57.9352C201.093 57.9677 201.032 57.9857 200.97 57.9872H198.055C197.991 57.9933 197.927 57.9816 197.87 57.9536C197.813 57.9256 197.764 57.8822 197.73 57.8283ZM198.345 49.7941V49.0134C198.345 48.8011 198.303 48.5909 198.222 48.3948C198.141 48.1987 198.022 48.0205 197.871 47.8704C197.721 47.7203 197.543 47.6012 197.347 47.5199C197.151 47.4387 196.941 47.3969 196.728 47.3969H194.511C194.419 47.3969 194.331 47.4333 194.267 47.4981C194.202 47.5629 194.166 47.6507 194.166 47.7423V51.231C194.167 51.322 194.204 51.4089 194.269 51.4733C194.333 51.5376 194.42 51.5746 194.511 51.5764H196.583C196.826 51.6023 197.071 51.573 197.301 51.4906C197.53 51.4083 197.738 51.2751 197.909 51.101C198.08 50.9269 198.209 50.7164 198.287 50.4853C198.365 50.2541 198.389 50.0084 198.359 49.7664L198.345 49.7941Z" fill="#F3F8FA"/>
<path d="M213.363 57.8699C213.362 57.9597 213.326 58.0456 213.263 58.1098C213.2 58.174 213.115 58.2118 213.025 58.2153C210.883 58.2982 209.308 58.2153 206.946 58.2153C205.64 58.2153 203.63 57.3034 203.63 54.2223V50.6991C203.63 48.7165 204.742 46.9342 207.395 46.9272H209.612C212.306 46.9272 213.149 48.523 213.156 50.029V52.4469C213.156 53.1377 212.79 53.5453 212.175 53.5453H206.946V54.1394C206.931 54.2932 206.949 54.4485 206.999 54.5948C207.049 54.741 207.13 54.8749 207.236 54.9874C207.342 55.0999 207.47 55.1885 207.613 55.2471C207.756 55.3058 207.91 55.3333 208.065 55.3276C208.99 55.3276 211.519 55.3276 212.984 55.1411C213.032 55.1363 213.08 55.1416 213.126 55.1568C213.172 55.172 213.214 55.1966 213.25 55.2292C213.286 55.2618 213.315 55.3015 213.334 55.3458C213.354 55.3902 213.364 55.4381 213.363 55.4865V57.8699ZM210.476 50.4573C210.48 50.3408 210.461 50.2245 210.42 50.1156C210.378 50.0067 210.314 49.9075 210.233 49.8241C210.151 49.7407 210.054 49.6748 209.946 49.6304C209.838 49.5861 209.722 49.5642 209.605 49.5662H207.823C207.705 49.5623 207.587 49.5828 207.478 49.6262C207.368 49.6696 207.268 49.7351 207.184 49.8186C207.101 49.9022 207.035 50.002 206.992 50.1118C206.949 50.2217 206.928 50.3393 206.932 50.4573V51.2034C206.932 51.2494 206.941 51.2949 206.959 51.3372C206.977 51.3796 207.003 51.418 207.035 51.4501C207.068 51.4823 207.107 51.5076 207.15 51.5246C207.193 51.5415 207.238 51.5497 207.284 51.5488H210.165C210.257 51.5488 210.344 51.5124 210.409 51.4477C210.474 51.3829 210.51 51.295 210.51 51.2034L210.476 50.4573Z" fill="#F3F8FA"/>
<path d="M221.84 57.9666C221.748 57.9666 221.66 57.9302 221.596 57.8655C221.531 57.8007 221.494 57.7128 221.494 57.6212V57.1238C220.465 57.6696 219.56 58.1946 218.648 58.1946H217.958C217.267 58.1946 215.077 57.6903 215.077 54.8579V53.9944C215.077 52.7578 215.664 50.8857 218.614 50.8788H221.025C221.117 50.8788 221.206 50.8426 221.272 50.7781C221.337 50.7135 221.375 50.6256 221.377 50.5334V50.0084C221.382 49.9496 221.374 49.8905 221.355 49.8348C221.336 49.7792 221.305 49.7282 221.264 49.6852C221.224 49.6423 221.175 49.6082 221.121 49.5854C221.066 49.5625 221.008 49.5513 220.949 49.5524H216.977C216.885 49.5524 216.797 49.516 216.732 49.4513C216.668 49.3865 216.631 49.2986 216.631 49.207V47.252C216.631 47.1597 216.667 47.0712 216.732 47.0053C216.797 46.9394 216.884 46.9015 216.977 46.8997H222.227C222.554 46.8656 222.885 46.9045 223.195 47.0135C223.505 47.1225 223.787 47.2991 224.021 47.5303C224.255 47.7616 224.435 48.0418 224.548 48.3508C224.66 48.6599 224.703 48.99 224.672 49.3176V57.6074C224.672 57.699 224.636 57.7869 224.571 57.8516C224.506 57.9164 224.419 57.9528 224.327 57.9528L221.84 57.9666ZM221.405 53.421C221.405 53.3294 221.368 53.2416 221.304 53.1768C221.239 53.112 221.151 53.0756 221.059 53.0756H218.552C218.492 53.0695 218.432 53.0764 218.375 53.0959C218.318 53.1153 218.267 53.1468 218.223 53.1881C218.18 53.2295 218.146 53.2798 218.124 53.3355C218.102 53.3912 218.092 53.451 218.096 53.5108V54.6507C218.092 54.7688 218.112 54.8863 218.156 54.9962C218.199 55.1061 218.265 55.2058 218.348 55.2894C218.432 55.3729 218.531 55.4384 218.641 55.4818C218.751 55.5253 218.869 55.5457 218.987 55.5418C219.721 55.5161 220.448 55.393 221.149 55.1757C221.223 55.1557 221.289 55.1116 221.335 55.0503C221.381 54.989 221.406 54.914 221.405 54.8372V53.421Z" fill="#F3F8FA"/>
<path d="M227.152 57.614V44.1638C227.152 44.0722 227.188 43.9843 227.253 43.9195C227.318 43.8547 227.406 43.8184 227.498 43.8184H230.199C230.29 43.8184 230.378 43.8547 230.443 43.9195C230.508 43.9843 230.544 44.0722 230.544 44.1638V57.6071C230.544 57.6531 230.535 57.6986 230.517 57.7409C230.499 57.7833 230.473 57.8217 230.44 57.8538C230.408 57.886 230.369 57.9113 230.326 57.9283C230.283 57.9452 230.238 57.9535 230.192 57.9526H227.484C227.396 57.949 227.312 57.912 227.251 57.8491C227.189 57.7862 227.154 57.7021 227.152 57.614Z" fill="#F3F8FA"/>
<path d="M244.996 52.4057H249.832C249.877 52.4057 249.923 52.3966 249.965 52.3788C250.008 52.361 250.046 52.3349 250.078 52.3021C250.11 52.2693 250.136 52.2304 250.153 52.1877C250.17 52.145 250.178 52.0993 250.177 52.0534V49.9809C250.175 49.8899 250.138 49.8031 250.074 49.7387C250.01 49.6743 249.923 49.6373 249.832 49.6355H244.996C244.904 49.6355 244.816 49.5991 244.752 49.5344C244.687 49.4696 244.65 49.3817 244.65 49.2901V47.7427C244.652 47.6505 244.69 47.5626 244.756 47.498C244.822 47.4334 244.91 47.3973 245.003 47.3973H250.495C250.586 47.3973 250.674 47.3609 250.739 47.2961C250.804 47.2313 250.84 47.1435 250.84 47.0519V44.8205C250.84 44.7289 250.804 44.641 250.739 44.5763C250.674 44.5115 250.586 44.4751 250.495 44.4751H241.749C241.657 44.4769 241.569 44.5148 241.504 44.5807C241.44 44.6466 241.404 44.7352 241.404 44.8274V57.6076C241.404 57.6992 241.44 57.7871 241.505 57.8519C241.57 57.9166 241.657 57.953 241.749 57.953H250.73C250.776 57.953 250.821 57.9439 250.863 57.9261C250.906 57.9083 250.944 57.8822 250.976 57.8494C251.009 57.8166 251.034 57.7777 251.051 57.735C251.068 57.6923 251.076 57.6466 251.075 57.6007V55.1414C251.073 55.0491 251.035 54.9613 250.969 54.8967C250.904 54.8321 250.815 54.7959 250.723 54.796H245.023C244.932 54.796 244.844 54.7596 244.779 54.6948C244.714 54.63 244.678 54.5422 244.678 54.4506V52.7719C244.674 52.6818 244.705 52.5936 244.764 52.5254C244.823 52.4573 244.906 52.4145 244.996 52.4057Z" fill="#F3F8FA"/>
<path d="M259.718 51.0659H256.954C256.909 51.0669 256.863 51.0586 256.821 51.0416C256.779 51.0245 256.74 50.9991 256.708 50.9668C256.676 50.9346 256.65 50.8961 256.633 50.8538C256.616 50.8115 256.608 50.7661 256.609 50.7205V49.9744C256.604 49.9157 256.612 49.8566 256.631 49.8009C256.65 49.7452 256.681 49.6942 256.722 49.6513C256.762 49.6083 256.811 49.5743 256.865 49.5514C256.92 49.5285 256.978 49.5173 257.037 49.5185H260.899C260.99 49.5167 261.077 49.4798 261.141 49.4154C261.206 49.351 261.242 49.2641 261.244 49.1731V47.2111C261.244 47.1195 261.208 47.0317 261.143 46.9669C261.078 46.9021 260.99 46.8657 260.899 46.8657H256.609C254.619 46.8657 253.279 47.7638 253.279 49.5185V51.439C253.272 51.7547 253.332 52.0683 253.454 52.3593C253.577 52.6502 253.76 52.912 253.991 53.1273C254.222 53.3426 254.495 53.5066 254.794 53.6085C255.093 53.7105 255.41 53.748 255.725 53.7187H258.813V54.3128C258.813 54.9276 258.495 55.273 257.714 55.273C256.294 55.2285 254.877 55.097 253.473 54.8793C253.423 54.8723 253.373 54.876 253.325 54.8903C253.278 54.9045 253.234 54.9288 253.196 54.9616C253.159 54.9944 253.129 55.0349 253.109 55.0803C253.089 55.1257 253.078 55.1749 253.079 55.2247V56.4198V57.8014C253.079 57.893 253.115 57.9809 253.18 58.0457C253.245 58.1104 253.333 58.1468 253.424 58.1468H258.813C260.547 58.1468 262.142 57.2073 262.142 54.8102V53.0693C262.163 52.1851 261.5 51.0659 259.718 51.0659Z" fill="#F3F8FA"/>
<path d="M269.672 55.0239C268.809 55.0239 268.574 54.3676 268.574 53.4765V50.0777C268.574 49.9854 268.61 49.8968 268.675 49.8309C268.739 49.765 268.827 49.7271 268.919 49.7253H271.538C271.629 49.7253 271.717 49.6889 271.782 49.6242C271.847 49.5594 271.883 49.4715 271.883 49.3799V47.1969C271.883 47.1035 271.846 47.0139 271.78 46.9478C271.714 46.8817 271.624 46.8446 271.531 46.8446H268.885C268.794 46.8428 268.707 46.8059 268.642 46.7415C268.578 46.6771 268.541 46.5902 268.539 46.4992V45.4353C268.539 45.3431 268.503 45.2545 268.439 45.1886C268.374 45.1227 268.286 45.0848 268.194 45.083H265.569C265.477 45.083 265.389 45.1194 265.325 45.1842C265.26 45.249 265.223 45.3368 265.223 45.4284V46.4923C265.223 46.5857 265.186 46.6753 265.12 46.7414C265.054 46.8075 264.965 46.8446 264.871 46.8446H264.243C264.151 46.8446 264.063 46.881 263.998 46.9458C263.934 47.0105 263.897 47.0984 263.897 47.19V49.373C263.897 49.4189 263.906 49.4644 263.924 49.5068C263.942 49.5492 263.968 49.5876 264.001 49.6197C264.033 49.6519 264.072 49.6772 264.115 49.6941C264.158 49.7111 264.203 49.7193 264.249 49.7184H264.878C264.97 49.7184 265.057 49.7548 265.122 49.8196C265.187 49.8844 265.223 49.9722 265.223 50.0638V54.1259C265.223 57.0757 267.103 58.1257 268.609 58.1188H271.959C272.052 58.1188 272.142 58.0817 272.208 58.0156C272.274 57.9495 272.311 57.8599 272.311 57.7665V56.3848V55.1759C272.312 55.1268 272.301 55.0783 272.282 55.0334C272.262 54.9885 272.232 54.9484 272.196 54.9158C272.159 54.8831 272.116 54.8586 272.069 54.8439C272.023 54.8292 271.973 54.8246 271.924 54.8305C271.24 54.9272 270.19 55.0239 269.672 55.0239Z" fill="#F3F8FA"/>
<path d="M281.078 46.8375H275.828C275.736 46.8375 275.648 46.8738 275.583 46.9386C275.519 47.0034 275.482 47.0913 275.482 47.1829V49.1379C275.482 49.2295 275.519 49.3173 275.583 49.3821C275.648 49.4469 275.736 49.4833 275.828 49.4833H279.8C279.859 49.4832 279.918 49.4953 279.973 49.5189C280.028 49.5424 280.077 49.577 280.118 49.6204C280.158 49.6638 280.19 49.7151 280.21 49.7711C280.23 49.8271 280.239 49.8867 280.235 49.9461V50.4573C280.235 50.549 280.198 50.6368 280.134 50.7016C280.069 50.7664 279.981 50.8028 279.889 50.8028H277.472C274.522 50.8028 273.935 52.6749 273.935 53.9115V54.7819C273.935 57.6143 276.111 58.1116 276.815 58.1116H277.506C278.418 58.1116 279.109 57.5797 280.138 57.034V57.5314C280.138 57.623 280.175 57.7108 280.239 57.7756C280.304 57.8404 280.392 57.8768 280.484 57.8768H283.212C283.258 57.8768 283.304 57.8676 283.346 57.8498C283.388 57.8321 283.427 57.806 283.459 57.7732C283.491 57.7404 283.517 57.7015 283.533 57.6588C283.55 57.616 283.559 57.5704 283.558 57.5245V49.2346C283.586 48.9055 283.54 48.5743 283.424 48.2651C283.308 47.9559 283.125 47.6763 282.887 47.4468C282.65 47.2173 282.364 47.0435 282.051 46.9381C281.738 46.8327 281.406 46.7983 281.078 46.8375ZM280.242 54.7681C280.244 54.8452 280.22 54.9208 280.174 54.9823C280.127 55.0439 280.061 55.0877 279.986 55.1066C279.286 55.3269 278.558 55.4501 277.824 55.4727C277.706 55.4766 277.588 55.4561 277.479 55.4127C277.369 55.3693 277.269 55.3038 277.185 55.2202C277.102 55.1367 277.036 55.0369 276.993 54.9271C276.949 54.8172 276.929 54.6996 276.933 54.5816V53.4417C276.929 53.3819 276.939 53.322 276.961 53.2663C276.983 53.2106 277.017 53.1604 277.06 53.119C277.104 53.0776 277.156 53.0462 277.212 53.0267C277.269 53.0073 277.329 53.0004 277.389 53.0065H279.896C279.988 53.0065 280.076 53.0429 280.141 53.1077C280.205 53.1724 280.242 53.2603 280.242 53.3519V54.7681Z" fill="#F3F8FA"/>
<path d="M291.15 55.0034C290.28 55.0034 290.052 54.3126 290.052 53.4491V50.0502C290.052 49.9586 290.088 49.8708 290.153 49.806C290.218 49.7412 290.305 49.7048 290.397 49.7048H293.022C293.114 49.7048 293.202 49.6684 293.266 49.6036C293.331 49.5389 293.368 49.451 293.368 49.3594V47.1764C293.369 47.1305 293.36 47.0848 293.343 47.0421C293.326 46.9994 293.301 46.9605 293.269 46.9277C293.237 46.8949 293.198 46.8688 293.156 46.851C293.114 46.8332 293.068 46.8241 293.022 46.8241H290.404C290.312 46.8241 290.224 46.7877 290.16 46.7229C290.095 46.6582 290.059 46.5703 290.059 46.4787V45.4148C290.059 45.3689 290.051 45.3232 290.034 45.2805C290.017 45.2378 289.992 45.1989 289.96 45.1661C289.928 45.1333 289.889 45.1072 289.847 45.0894C289.805 45.0717 289.759 45.0625 289.713 45.0625H287.095C287.003 45.0625 286.915 45.0989 286.851 45.1637C286.786 45.2285 286.75 45.3163 286.75 45.4079V46.4718C286.751 46.5177 286.742 46.5634 286.725 46.6061C286.708 46.6488 286.683 46.6877 286.651 46.7205C286.619 46.7533 286.58 46.7794 286.538 46.7972C286.496 46.815 286.45 46.8241 286.404 46.8241H285.775C285.684 46.8241 285.596 46.8605 285.531 46.9253C285.466 46.99 285.43 47.0779 285.43 47.1695V49.3525C285.43 49.4441 285.466 49.532 285.531 49.5967C285.596 49.6615 285.684 49.6979 285.775 49.6979H286.411C286.502 49.6997 286.589 49.7366 286.653 49.801C286.718 49.8654 286.755 49.9523 286.757 50.0433V54.1053C286.757 57.0552 288.629 58.1052 290.142 58.0983H293.492C293.584 58.0983 293.671 58.0619 293.736 57.9971C293.801 57.9323 293.837 57.8445 293.837 57.7529V56.3712V55.1623C293.838 55.1132 293.828 55.0646 293.808 55.0198C293.788 54.9749 293.759 54.9348 293.722 54.9021C293.685 54.8695 293.642 54.845 293.595 54.8303C293.549 54.8156 293.499 54.811 293.451 54.8169C292.718 54.8998 291.682 54.9965 291.15 55.0034Z" fill="#F3F8FA"/>
<path d="M300.006 55.2173C299.851 55.2229 299.698 55.1955 299.555 55.1368C299.412 55.0781 299.283 54.9896 299.177 54.8771C299.071 54.7645 298.99 54.6307 298.94 54.4844C298.89 54.3382 298.872 54.1829 298.887 54.0291V53.435H304.116C304.731 53.435 305.097 53.0481 305.097 52.3366V49.9187C305.097 48.4127 304.248 46.81 301.553 46.8169H299.336C296.69 46.8169 295.571 48.6061 295.578 50.5957V54.112C295.578 57.193 297.595 58.1049 298.894 58.1049C301.263 58.1049 302.838 58.1878 304.973 58.1049C305.063 58.0997 305.148 58.0605 305.211 57.9952C305.274 57.9298 305.31 57.8432 305.311 57.7526V55.3762C305.312 55.328 305.302 55.2803 305.282 55.2363C305.263 55.1923 305.234 55.1529 305.198 55.1209C305.162 55.0889 305.12 55.0649 305.074 55.0505C305.028 55.0362 304.979 55.0318 304.931 55.0377C303.425 55.1966 300.925 55.2173 300.006 55.2173ZM298.88 50.3816C298.876 50.2635 298.896 50.1459 298.94 50.036C298.983 49.9262 299.049 49.8264 299.132 49.7429C299.216 49.6593 299.316 49.5938 299.425 49.5504C299.535 49.507 299.653 49.4865 299.771 49.4904H301.553C301.669 49.4894 301.784 49.5119 301.892 49.5567C301.999 49.6015 302.095 49.6675 302.176 49.7509C302.257 49.8342 302.32 49.9331 302.361 50.0415C302.403 50.1499 302.422 50.2656 302.417 50.3816V51.1345C302.417 51.1805 302.408 51.226 302.39 51.2683C302.372 51.3107 302.346 51.3491 302.313 51.3813C302.281 51.4134 302.242 51.4387 302.199 51.4557C302.156 51.4726 302.111 51.4809 302.065 51.48H299.218C299.126 51.4782 299.038 51.4402 298.974 51.3744C298.909 51.3085 298.873 51.2199 298.873 51.1276L298.88 50.3816Z" fill="#F3F8FA"/>
<path d="M33.6256 0.117858C32.7276 0.048776 31.8157 0.00732422 30.8624 0.00732422H0.0517578V71.3001H12.3415V63.5836H7.789V7.76525H30.8624C32.9819 7.75524 35.0956 7.98702 37.1626 8.45607L33.6256 0.117858Z" fill="#C1986D"/>
<path d="M7.80988 7.6474V10.9979L0.0865479 8.4142V0L7.80988 7.6474Z" fill="url(#paint0_linear_34_8)"/>
<path d="M26.5583 26.3758V71.2791H30.8967C32.0158 71.2791 33.1211 71.2169 34.2126 71.1133V31.7365L26.5583 24.7178V26.3758Z" fill="#F3F8FA"/>
<path d="M15.8303 38.1196V63.5557V71.2929H23.4845V63.5557V38.1196V21.8923L15.8303 14.8735V38.1196Z" fill="#F3F8FA"/>
<path d="M66.4742 33.5185C65.9942 25.6349 62.9125 18.1333 57.712 12.189C52.5114 6.24462 45.4859 2.19336 37.7361 0.669922H37.6117L41.5494 9.88547C43.8505 10.8385 46.0136 12.0954 47.9809 13.6228C52.298 17.2649 55.4397 22.1039 57.0097 27.5295C58.5798 32.9551 58.5077 38.7241 56.8027 44.1088C56.1381 46.1904 55.2944 48.2105 54.2812 50.1465C53.6531 51.3344 52.9613 52.4874 52.2087 53.6006C50.2296 55.9576 47.8773 57.974 45.2453 59.5693V41.8912L37.5909 34.8725V70.6432C39.9584 70.1899 42.2732 69.4955 44.4992 68.5707C50.8983 65.8938 56.3856 61.4215 60.2983 55.6938C63.921 50.3867 66.0341 44.1953 66.4121 37.7808C66.4535 37.09 66.4811 36.3992 66.4811 35.6531C66.4811 34.907 66.5157 34.2231 66.4742 33.5185Z" fill="#F3F8FA"/>
<defs>
<linearGradient id="paint0_linear_34_8" x1="6.02757" y1="2.39024" x2="2.69781" y2="7.37104" gradientUnits="userSpaceOnUse">
<stop stop-color="#513A13"/>
<stop offset="1" stop-color="#7B6C3B" stop-opacity="0"/>
</linearGradient>
</defs>
</svg>
