<svg width="215" height="50" viewBox="0 0 215 50" fill="none" xmlns="http://www.w3.org/2000/svg">
<path d="M61.5589 11.8109C61.5991 11.8563 61.6494 11.8918 61.7058 11.9145C61.7621 11.9372 61.823 11.9465 61.8835 11.9417C61.9912 11.9435 62.0953 11.9036 62.1741 11.8303L63.1818 10.8371C63.2145 10.8071 63.2408 10.7709 63.2593 10.7305C63.2758 10.7626 63.2971 10.792 63.3223 10.8178L64.3299 11.7867C64.4104 11.8674 64.5168 11.9171 64.6303 11.9271C64.6893 11.9327 64.7489 11.9247 64.8043 11.9037C64.8597 11.8828 64.9095 11.8493 64.95 11.806L65.9189 10.8129C65.9636 10.7739 65.999 10.7253 66.0225 10.6708C66.046 10.6164 66.0569 10.5573 66.0546 10.498C66.0435 10.3771 65.9903 10.264 65.9044 10.1783L64.9113 9.20938C64.872 9.16673 64.8239 9.13299 64.7705 9.11043C64.717 9.08787 64.6592 9.07702 64.6012 9.07859C64.4911 9.08297 64.3869 9.12984 64.3106 9.20938L63.3078 10.1783C63.2749 10.2119 63.2487 10.2513 63.2303 10.2945C63.2087 10.2519 63.1809 10.2128 63.1479 10.1783L62.1547 9.20938C62.0757 9.12796 61.9679 9.08097 61.8544 9.07859C61.7956 9.07664 61.7371 9.08729 61.6828 9.10986C61.6285 9.13242 61.5796 9.16636 61.5395 9.20938L60.5706 10.1783C60.5271 10.2176 60.4934 10.2665 60.4724 10.3212C60.4514 10.376 60.4435 10.4349 60.4494 10.4932C60.457 10.6036 60.4994 10.7087 60.5706 10.7935L61.5589 11.8109Z" fill="#C1986D"/>
<path d="M78.1608 24.5955C78.1304 24.5506 78.0892 24.5141 78.0409 24.4896C77.9926 24.465 77.9389 24.4531 77.8847 24.455C77.8288 24.4548 77.7735 24.4673 77.7232 24.4917C77.6728 24.516 77.6286 24.5515 77.594 24.5955L76.6251 25.5305L75.7047 24.6003C75.6691 24.5547 75.6235 24.5179 75.5714 24.4927C75.5194 24.4675 75.4622 24.4546 75.4043 24.455C75.3465 24.455 75.2894 24.468 75.2374 24.4932C75.1854 24.5184 75.1397 24.555 75.1039 24.6003L74.1689 25.5353C74.0908 25.6158 74.0471 25.7235 74.0471 25.8357C74.0471 25.9478 74.0908 26.0556 74.1689 26.136L75.1087 27.071C75.1952 27.145 75.3051 27.1862 75.4189 27.1873C75.4713 27.1917 75.5242 27.1854 75.5742 27.1688C75.6241 27.1521 75.6701 27.1255 75.7095 27.0904L76.6445 26.1506L77.6134 27.0759C77.6974 27.1477 77.8033 27.1888 77.9137 27.1921C77.9648 27.1977 78.0165 27.1919 78.0651 27.1751C78.1137 27.1584 78.1579 27.1311 78.1947 27.0953L79.1297 26.1554C79.1744 26.1164 79.2098 26.0679 79.2333 26.0134C79.2568 25.9589 79.2677 25.8998 79.2654 25.8405C79.2619 25.7824 79.2464 25.7256 79.2197 25.6739C79.193 25.6222 79.1557 25.5766 79.1103 25.5402L78.1608 24.5955Z" fill="#C1986D"/>
<path d="M81.1934 17.5371C81.1547 17.2222 81.1062 16.9218 81.0529 16.6263C80.9996 16.3308 80.9464 16.0982 80.9028 15.919C80.8691 15.7563 80.7842 15.6086 80.6606 15.4975C80.5986 15.4469 80.5249 15.4124 80.4463 15.3972C80.3677 15.382 80.2864 15.3865 80.21 15.4103L78.5872 15.7301C78.46 15.7508 78.341 15.8061 78.2432 15.8899C78.1415 15.9723 78.1123 16.1225 78.1462 16.3453C78.1801 16.5682 78.248 16.9315 78.3061 17.2803C78.3622 17.6199 78.3929 17.9632 78.3982 18.3073C78.458 18.7547 78.3549 19.2087 78.1076 19.5863C77.9384 19.7407 77.7377 19.8566 77.5194 19.9261C77.3011 19.9955 77.0704 20.0167 76.8431 19.9884H66.035C65.8388 20.013 65.6397 19.9974 65.4498 19.9424C65.2599 19.8874 65.0831 19.7943 64.9304 19.6686C64.6908 19.2842 64.5884 18.83 64.6399 18.38V13.5936C64.6432 13.4958 64.6124 13.3999 64.5527 13.3223C64.5212 13.2827 64.4804 13.2513 64.4339 13.231C64.3875 13.2108 64.3367 13.2022 64.2862 13.2061H62.3096C62.1927 13.1996 62.0774 13.2358 61.9851 13.3078C61.943 13.353 61.911 13.4066 61.8909 13.465C61.8709 13.5234 61.8634 13.5854 61.8688 13.6469V14.4559L60.0182 15.1148C59.2125 15.385 58.4553 15.7825 57.7752 16.292C57.2776 16.6663 56.873 17.1504 56.5931 17.7066C56.3584 18.1946 56.2391 18.7299 56.2443 19.2714C56.2251 19.6615 56.2833 20.0515 56.4155 20.419C56.5477 20.7865 56.7513 21.1242 57.0146 21.4126C57.325 21.6996 57.6913 21.9192 58.0907 22.0576C58.4901 22.196 58.9138 22.2502 59.3352 22.2168C59.9166 22.2277 60.4925 22.1016 61.0162 21.8486C61.4754 21.617 61.8648 21.2676 62.1449 20.8361C62.303 21.6215 62.7275 22.3283 63.3464 22.8369C64.0173 23.3057 64.8253 23.5375 65.6427 23.4958H71.3639H76.5234C77.4879 23.5624 78.4516 23.3559 79.3041 22.8999C79.9967 22.4899 80.5308 21.8584 80.8204 21.1074C81.1501 20.2154 81.3016 19.2674 81.2662 18.317C81.2597 18.0557 81.2354 17.7951 81.1934 17.5371ZM61.8834 17.7793C61.8937 18.092 61.8147 18.4012 61.6557 18.6707C61.5069 18.9087 61.2958 19.1013 61.0453 19.2278C60.7909 19.3597 60.5082 19.4279 60.2216 19.4264C59.9502 19.4404 59.6826 19.358 59.466 19.1939C59.3734 19.1209 59.2992 19.0273 59.2495 18.9204C59.1999 18.8135 59.1761 18.6964 59.1801 18.5786C59.184 18.4424 59.2186 18.3089 59.2816 18.1881C59.3445 18.0672 59.4341 17.9623 59.5434 17.881C59.8391 17.6524 60.1789 17.4874 60.5414 17.3966L61.8834 16.9896V17.7793Z" fill="#C1986D"/>
<path d="M87.3654 16.9364C87.3422 16.751 87.2548 16.5795 87.1183 16.4519C87.0444 16.4123 86.9626 16.3895 86.8788 16.3853C86.795 16.3812 86.7114 16.3956 86.6339 16.4277L84.9722 16.8346C84.8736 16.8409 84.7781 16.8718 84.6945 16.9244C84.6109 16.9771 84.5419 17.0499 84.4937 17.1362C84.4455 17.2225 84.4198 17.3194 84.4187 17.4182C84.4177 17.517 84.4414 17.6145 84.4878 17.7018C84.6767 18.3945 84.8366 19.0873 84.9722 19.7752C85.1004 20.3938 85.1685 21.0232 85.1757 21.6549C85.1905 22.2139 85.0951 22.7703 84.8948 23.2923C84.715 23.7354 84.3882 24.1032 83.9694 24.3339C83.4363 24.5992 82.8444 24.7243 82.2496 24.6972H81.9105C81.739 24.6924 81.5701 24.7397 81.426 24.8329C81.3636 24.8777 81.3135 24.9377 81.2804 25.0072C81.2474 25.0766 81.2325 25.1533 81.2372 25.2301V27.226C81.2315 27.3819 81.2813 27.5346 81.3777 27.6572C81.4372 27.7176 81.5092 27.7641 81.5888 27.7934C81.6683 27.8227 81.7534 27.8341 81.8379 27.8268H82.5597C83.622 27.8551 84.672 27.5938 85.5972 27.071C86.4211 26.5833 87.0832 25.8638 87.501 25.0024C87.9507 24.0626 88.1747 23.0308 88.1551 21.9892C88.1484 21.1279 88.0674 20.2689 87.9129 19.4216C87.7643 18.5399 87.5818 17.7115 87.3654 16.9364Z" fill="#C1986D"/>
<path d="M108.275 12.46C108.316 12.504 108.366 12.5386 108.422 12.5611C108.478 12.5837 108.539 12.5939 108.599 12.5908C108.653 12.5919 108.706 12.5821 108.756 12.5621C108.806 12.5422 108.852 12.5124 108.89 12.4745L109.897 11.5056C109.929 11.4729 109.955 11.4353 109.975 11.3942C109.99 11.4285 110.011 11.4597 110.038 11.4863L111.046 12.4552C111.126 12.5359 111.232 12.5856 111.346 12.5957C111.405 12.6013 111.464 12.5933 111.52 12.5723C111.575 12.5513 111.625 12.5178 111.666 12.4745L112.635 11.5056C112.68 11.4659 112.715 11.4165 112.739 11.3612C112.762 11.3059 112.773 11.2459 112.77 11.1859C112.761 11.0659 112.707 10.9537 112.62 10.871L111.651 9.90212C111.612 9.85869 111.564 9.82441 111.511 9.80179C111.457 9.77917 111.399 9.76877 111.341 9.77132C111.231 9.7757 111.127 9.82257 111.05 9.90212L110.048 10.8952C110.016 10.928 109.99 10.9656 109.97 11.0067C109.947 10.9665 109.919 10.9291 109.888 10.8952L108.919 9.92635C108.839 9.84522 108.732 9.79683 108.618 9.7907C108.559 9.78836 108.5 9.79933 108.446 9.8228C108.391 9.84627 108.343 9.88166 108.303 9.92635L107.335 10.8952C107.29 10.935 107.256 10.9848 107.235 11.0404C107.214 11.096 107.207 11.1559 107.213 11.215C107.222 11.3252 107.264 11.43 107.335 11.5153L108.275 12.46Z" fill="#C1986D"/>
<path d="M135.379 10.0426H133.403C133.349 10.0401 133.295 10.0492 133.245 10.0692C133.195 10.0893 133.149 10.1199 133.112 10.1589C133.074 10.1968 133.044 10.2421 133.024 10.2921C133.004 10.3421 132.994 10.3957 132.996 10.4495V18.2007C133.01 18.5489 132.969 18.8971 132.874 19.2326C132.843 19.343 132.788 19.4455 132.715 19.5339C132.642 19.6223 132.551 19.6945 132.448 19.7461C132.194 19.8581 131.917 19.9095 131.639 19.8963H126.446H125.317H124.387C124.089 19.8831 123.791 19.854 123.496 19.8091C123.917 19.4312 124.256 19.1067 124.508 18.8402C124.738 18.6075 124.923 18.335 125.056 18.036C125.172 17.7468 125.23 17.4371 125.225 17.1253C125.235 16.7416 125.14 16.3626 124.949 16.0295C124.759 15.6964 124.48 15.4219 124.145 15.2359C123.421 14.8064 122.243 14.59 120.608 14.5867C119.931 14.5885 119.254 14.6517 118.588 14.7757C117.896 14.9029 117.219 15.1027 116.568 15.3716C116.388 15.4361 116.231 15.5524 116.117 15.7058C116.007 15.8857 115.954 16.0956 115.967 16.3065V17.5806C115.961 17.7726 115.993 17.964 116.064 18.1426C116.151 18.3146 116.275 18.4652 116.427 18.5835L117.769 19.8043L116.912 19.8672L116.011 19.9108C115.701 19.9108 115.362 19.9108 114.998 19.9108H113.86C113.605 19.9108 113.401 19.9108 113.25 19.9108L112.736 19.8721C113.026 19.5455 113.256 19.1698 113.414 18.7627C113.563 18.3729 113.638 17.9591 113.637 17.5419C113.635 16.9249 113.482 16.3177 113.191 15.7736C112.883 15.1929 112.419 14.7102 111.85 14.3805C111.281 14.0508 110.632 13.8872 109.975 13.9085C109.247 13.8863 108.526 14.0532 107.882 14.393C107.312 14.7081 106.837 15.1697 106.506 15.73C106.186 16.2694 106.018 16.8856 106.022 17.5128C106.021 17.8026 106.06 18.0912 106.138 18.3703C106.215 18.6443 106.326 18.9079 106.467 19.1551C106.607 19.4053 106.769 19.6421 106.952 19.8624L106.424 19.8915H105.653C105.377 19.8915 105.101 19.8915 104.835 19.8915H99.7819H93.9685C93.7524 19.8984 93.5369 19.8639 93.3338 19.7897C93.1685 19.7178 93.038 19.5839 92.9705 19.4167C92.888 19.1852 92.8486 18.9406 92.8542 18.6949V10.4253C92.857 10.3216 92.8265 10.2197 92.767 10.1347C92.7345 10.0965 92.6934 10.0665 92.6471 10.0472C92.6008 10.0278 92.5506 10.0196 92.5006 10.0232H90.5628C90.4441 10.0207 90.3281 10.0583 90.2334 10.1298C90.1896 10.1661 90.1549 10.2123 90.1321 10.2644C90.1094 10.3166 90.0993 10.3734 90.1026 10.4302V19.969C90.0846 20.6302 90.1965 21.2886 90.432 21.9068C90.6251 22.3959 90.9833 22.8021 91.4445 23.0549C91.9601 23.3161 92.5333 23.4427 93.111 23.4231H94.385H99.5396H104.806C105.639 23.4231 106.317 23.4231 106.845 23.3843C107.281 23.369 107.715 23.3221 108.143 23.2439C108.449 23.1837 108.745 23.0843 109.025 22.9483C109.295 22.8067 109.555 22.6448 109.8 22.4639C110.178 22.6673 110.501 22.8288 110.769 22.9483C111.057 23.0799 111.36 23.1774 111.67 23.239C112.052 23.3103 112.439 23.3508 112.828 23.3601C113.283 23.3601 113.86 23.3892 114.567 23.3843H114.654H114.727C115.502 23.3843 116.18 23.3843 116.713 23.3504C117.201 23.3305 117.687 23.2754 118.167 23.1857C118.558 23.1108 118.94 22.9922 119.305 22.8321C119.683 22.6623 120.046 22.4614 120.39 22.2314C120.687 22.4379 121.002 22.6178 121.33 22.7691C121.655 22.9165 121.992 23.0349 122.338 23.1227C122.706 23.2124 123.08 23.2755 123.457 23.3117C123.883 23.356 124.312 23.377 124.741 23.3746H131.397C132.161 23.4075 132.925 23.2991 133.65 23.0549C134.187 22.8616 134.653 22.5104 134.987 22.0473C135.32 21.5504 135.54 20.9865 135.631 20.3953C135.754 19.6622 135.812 18.9198 135.805 18.1765V10.3866C135.81 10.2794 135.771 10.175 135.699 10.0959C135.653 10.0632 135.601 10.0414 135.545 10.0322C135.49 10.0229 135.433 10.0265 135.379 10.0426ZM110.735 18.5738C110.497 18.8571 110.21 19.0951 109.887 19.2762C109.552 19.0949 109.255 18.8516 109.011 18.5592C108.834 18.3284 108.739 18.0457 108.739 17.755C108.732 17.6082 108.759 17.4616 108.817 17.3265C108.874 17.1914 108.962 17.0712 109.074 16.9751C109.311 16.7701 109.618 16.6643 109.931 16.6796C110.077 16.6755 110.222 16.7018 110.357 16.7568C110.492 16.8119 110.614 16.8945 110.716 16.9993C110.82 17.106 110.901 17.2327 110.954 17.3718C111.008 17.511 111.032 17.6595 111.026 17.8083C111.022 18.0897 110.919 18.3607 110.735 18.5738ZM121.844 18.5738C121.499 18.872 121.128 19.138 120.734 19.3683L118.627 17.5516C118.976 17.4523 119.33 17.373 119.688 17.3142C120.008 17.2609 120.332 17.2334 120.657 17.2318C120.999 17.2185 121.342 17.2544 121.674 17.3384C121.86 17.375 122.03 17.47 122.159 17.6097C122.237 17.7064 122.275 17.8296 122.265 17.9537C122.207 18.2097 122.057 18.4356 121.844 18.5883V18.5738Z" fill="#C1986D"/>
<path d="M140.96 10.0329H138.998C138.89 10.0306 138.786 10.0706 138.707 10.1444C138.669 10.1832 138.64 10.2296 138.62 10.2804C138.601 10.3313 138.593 10.3856 138.596 10.4399V22.958C138.593 23.012 138.602 23.0658 138.622 23.116C138.642 23.1661 138.673 23.2114 138.712 23.2487C138.75 23.2872 138.795 23.3175 138.845 23.3375C138.895 23.3575 138.949 23.3669 139.003 23.365H140.965C141.02 23.3682 141.074 23.3595 141.125 23.3394C141.176 23.3193 141.222 23.2884 141.26 23.2487C141.333 23.1697 141.371 23.0652 141.367 22.958V10.435C141.371 10.3279 141.333 10.2234 141.26 10.1444C141.221 10.1055 141.174 10.0754 141.122 10.0562C141.07 10.0369 141.015 10.029 140.96 10.0329Z" fill="#C1986D"/>
<path d="M156.138 15.6235C155.533 15.3027 154.86 15.1302 154.176 15.1201C153.491 15.11 152.814 15.2626 152.199 15.5653C151.581 15.8873 151.046 16.3503 150.639 16.917C150.144 17.6127 149.783 18.3947 149.574 19.2229C149.251 19.2808 148.945 19.4061 148.674 19.5906C148.404 19.7751 148.176 20.0147 148.004 20.2936C147.591 21.0312 147.396 21.8714 147.442 22.7158V28.6697C147.434 28.7295 147.44 28.7903 147.459 28.8474C147.479 28.9045 147.511 28.9564 147.554 28.9991C147.596 29.0417 147.648 29.0739 147.705 29.0933C147.762 29.1126 147.823 29.1185 147.883 29.1105H149.792C149.852 29.1195 149.913 29.1144 149.971 29.0954C150.028 29.0764 150.08 29.0442 150.123 29.0013C150.166 28.9584 150.198 28.9061 150.217 28.8485C150.236 28.7909 150.241 28.7297 150.232 28.6697V23.8155C150.198 23.4872 150.29 23.1581 150.489 22.8951C150.659 22.7207 150.94 22.6916 151.327 22.8079L152.509 23.1567C153.428 23.4573 154.411 23.5025 155.353 23.2875C156.145 23.0891 156.836 22.6041 157.291 21.9262C157.79 21.1315 158.035 20.2038 157.993 19.2665C158.013 18.5018 157.847 17.7438 157.509 17.0574C157.203 16.455 156.726 15.9562 156.138 15.6235ZM154.82 19.9835C154.707 20.0812 154.575 20.1552 154.433 20.201C154.291 20.2467 154.141 20.2634 153.992 20.25C153.696 20.2517 153.4 20.2126 153.115 20.1337C152.746 20.0294 152.384 19.9032 152.03 19.7558C152.233 19.2814 152.526 18.8504 152.892 18.4866C153.162 18.211 153.529 18.0512 153.914 18.0409C154.075 18.0336 154.235 18.0586 154.386 18.1144C154.536 18.1701 154.674 18.2555 154.791 18.3655C154.901 18.4785 154.987 18.6129 155.044 18.7603C155.101 18.9077 155.127 19.0651 155.121 19.2229C155.124 19.3597 155.099 19.4956 155.047 19.6223C154.995 19.749 154.918 19.8637 154.82 19.9593V19.9835Z" fill="#C1986D"/>
<path d="M184.376 14.9598L180.205 12.2275C180.064 12.1233 179.896 12.0597 179.721 12.0434C179.63 12.0477 179.543 12.0772 179.469 12.1285C179.394 12.1799 179.335 12.2511 179.299 12.3341L178.204 13.9957C178.144 14.0936 178.111 14.2055 178.108 14.3203C178.108 14.3868 178.126 14.4521 178.159 14.5098C178.192 14.5675 178.239 14.6157 178.296 14.6498L178.553 14.8193C178.154 14.867 177.767 14.9869 177.41 15.173C176.945 15.4123 176.556 15.7758 176.286 16.2232C176.016 16.6705 175.875 17.184 175.879 17.7066C175.878 17.9943 175.922 18.2804 176.01 18.5544C176.092 18.8067 176.206 19.0475 176.349 19.2714C176.478 19.4672 176.629 19.6476 176.8 19.8091L175.879 19.8431C175.564 19.8431 175.211 19.8431 174.823 19.8431H169.664H163.85C163.632 19.851 163.415 19.8148 163.211 19.7365C163.129 19.7025 163.055 19.6523 162.994 19.5891C162.932 19.5258 162.884 19.4507 162.852 19.3683C162.765 19.1363 162.726 18.8892 162.736 18.6416V10.3769C162.737 10.2726 162.705 10.1707 162.644 10.0862C162.613 10.0469 162.573 10.0158 162.528 9.99554C162.482 9.97527 162.432 9.96649 162.382 9.96998H160.425C160.308 9.96491 160.192 10.0028 160.101 10.0766C160.055 10.1118 160.019 10.1576 159.996 10.21C159.972 10.2623 159.962 10.3196 159.965 10.3769V19.9157C159.945 20.5771 160.057 21.236 160.294 21.8535C160.486 22.3423 160.842 22.7486 161.302 23.0017C161.818 23.2628 162.391 23.3895 162.969 23.3698H174.595C175.458 23.3698 176.16 23.3408 176.717 23.2875C177.182 23.2543 177.639 23.1514 178.074 22.9823C178.43 22.8329 178.746 22.6003 178.994 22.304C179.606 22.6433 180.257 22.9068 180.932 23.0889C181.54 23.2529 182.167 23.3376 182.797 23.3408C183.587 23.3531 184.366 23.1505 185.05 22.7546C185.691 22.3752 186.219 21.8317 186.581 21.1801C186.958 20.5006 187.15 19.7337 187.138 18.9565C187.146 18.17 186.899 17.4019 186.435 16.7668C185.864 16.0444 185.167 15.432 184.376 14.9598ZM179.895 18.6125C179.68 18.8612 179.424 19.0724 179.139 19.2375C178.843 19.0747 178.576 18.8635 178.35 18.6125C178.183 18.4186 178.092 18.1708 178.093 17.9149C178.089 17.7816 178.113 17.6488 178.165 17.5258C178.217 17.4028 178.295 17.2926 178.393 17.2028C178.602 17.0157 178.874 16.9167 179.154 16.9267C179.287 16.9215 179.42 16.9447 179.544 16.9948C179.667 17.0449 179.779 17.1208 179.871 17.2173C180.053 17.4165 180.151 17.679 180.142 17.9489C180.14 18.1921 180.052 18.4268 179.895 18.6125ZM183.771 19.877C183.648 19.9972 183.501 20.0903 183.34 20.1504C183.179 20.2105 183.007 20.2361 182.836 20.2258C182.653 20.2246 182.47 20.2133 182.288 20.1919C182.109 20.1678 181.934 20.1222 181.765 20.0562C181.596 19.9932 181.421 19.9206 181.247 19.8382C181.589 19.5699 181.859 19.2201 182.032 18.8209C182.19 18.4316 182.27 18.0153 182.269 17.5952C182.266 17.4305 182.238 17.2673 182.187 17.1108L182.744 17.4644C183.113 17.6639 183.441 17.93 183.713 18.2492C183.905 18.4687 184.024 18.7433 184.052 19.034C184.07 19.1877 184.054 19.3435 184.004 19.4902C183.955 19.6368 183.874 19.7706 183.766 19.8818L183.771 19.877Z" fill="#C1986D"/>
<path d="M208.216 9.95059H206.235C206.181 9.94898 206.127 9.95848 206.077 9.97849C206.027 9.99849 205.982 10.0286 205.944 10.0669C205.87 10.1454 205.83 10.2498 205.833 10.3575V18.1087C205.845 18.4572 205.803 18.8054 205.707 19.1406C205.676 19.2508 205.623 19.3533 205.55 19.4417C205.477 19.5301 205.387 19.6025 205.285 19.6541C205.029 19.766 204.751 19.819 204.471 19.8091H199.283C199.009 19.819 198.736 19.7746 198.479 19.6783C198.239 19.562 198.041 19.3742 197.912 19.1406C197.679 18.7394 197.48 18.3197 197.316 17.8859L195.688 13.7729C195.621 13.5798 195.498 13.4111 195.335 13.2885C195.25 13.2458 195.156 13.2236 195.061 13.2236C194.966 13.2236 194.872 13.2458 194.787 13.2885L193.164 13.9424C193.071 13.9707 192.988 14.0234 192.922 14.0949C192.856 14.1665 192.811 14.2544 192.791 14.3494C192.777 14.5808 192.821 14.8121 192.917 15.0228L194.245 18.4624C194.305 18.5836 194.353 18.7101 194.39 18.8402C194.411 18.9423 194.422 19.0461 194.424 19.1503C194.429 19.2467 194.408 19.3427 194.363 19.4281C194.317 19.5134 194.25 19.5848 194.167 19.6347C193.947 19.7471 193.701 19.799 193.455 19.7849H191.968C191.718 19.7922 191.47 19.7373 191.246 19.625C191.146 19.5713 191.064 19.4893 191.011 19.3893C190.958 19.2894 190.935 19.1759 190.945 19.0631V18.6901C190.954 18.6202 190.947 18.5493 190.925 18.4824C190.904 18.4155 190.867 18.3541 190.82 18.3025C190.719 18.2243 190.593 18.1863 190.466 18.1959H189.013C188.912 18.1822 188.809 18.1889 188.711 18.2155C188.613 18.2421 188.521 18.2882 188.441 18.3509C188.336 18.4899 188.283 18.6613 188.291 18.8354V19.2036C188.227 20.2805 188.541 21.3458 189.177 22.2168C189.768 22.9387 190.723 23.302 192.04 23.2972H192.801C193.519 23.3457 194.235 23.1769 194.855 22.8127C195.324 22.4841 195.65 21.9884 195.766 21.4272C196.091 22.0618 196.615 22.5723 197.258 22.8805C197.81 23.1348 198.409 23.2686 199.016 23.2729H204.21C204.972 23.3058 205.734 23.1974 206.458 22.9532C206.998 22.763 207.466 22.4112 207.799 21.9456C208.131 21.4476 208.35 20.8842 208.444 20.2936C208.566 19.5605 208.625 18.8181 208.618 18.0748V10.2849C208.62 10.1781 208.582 10.0745 208.512 9.99419C208.468 9.96748 208.419 9.94986 208.368 9.94237C208.318 9.93488 208.266 9.93767 208.216 9.95059Z" fill="#C1986D"/>
<path d="M214.097 10.0572C214.059 10.0174 214.012 9.98641 213.96 9.96635C213.908 9.94629 213.852 9.93762 213.797 9.9409H211.835C211.727 9.93858 211.623 9.97857 211.544 10.0523C211.506 10.0909 211.475 10.1371 211.455 10.1879C211.435 10.2388 211.426 10.2932 211.428 10.3478V22.866C211.425 22.9204 211.433 22.9749 211.452 23.0258C211.471 23.0768 211.501 23.1231 211.539 23.1617C211.578 23.2002 211.624 23.23 211.675 23.2492C211.726 23.2684 211.781 23.2765 211.835 23.2729H213.773C213.828 23.2769 213.884 23.2685 213.936 23.2484C213.988 23.2283 214.035 23.197 214.073 23.1567C214.146 23.0776 214.184 22.9731 214.18 22.866V10.343C214.187 10.241 214.158 10.1397 214.097 10.0572Z" fill="#C1986D"/>
<path d="M63.1914 40.6404L62.6827 39.2598C62.6658 39.2129 62.6349 39.1725 62.5942 39.1439C62.5534 39.1153 62.5048 39.0999 62.4551 39.0999H59.0639C59.0141 39.0999 58.9656 39.1153 58.9248 39.1439C58.8841 39.1725 58.8532 39.2129 58.8362 39.2598L58.3518 40.6356C58.3351 40.6829 58.3044 40.7241 58.2637 40.7535C58.223 40.7829 58.1743 40.7992 58.1241 40.8003H56.1863C56.1462 40.8009 56.1066 40.7916 56.071 40.7731C56.0354 40.7546 56.005 40.7276 55.9824 40.6945C55.9599 40.6613 55.9459 40.6231 55.9417 40.5833C55.9376 40.5434 55.9434 40.5031 55.9586 40.466L59.6258 31.4989C59.6438 31.4541 59.6745 31.4156 59.7141 31.388C59.7537 31.3605 59.8004 31.3451 59.8487 31.3439H61.8495C61.8973 31.3441 61.944 31.3585 61.9836 31.3852C62.0233 31.4119 62.0542 31.4498 62.0723 31.494L65.759 40.4515C65.7752 40.4884 65.7817 40.5288 65.7783 40.5689C65.7749 40.6091 65.7615 40.6477 65.7394 40.6814C65.7173 40.7151 65.6871 40.7427 65.6517 40.7618C65.6162 40.7808 65.5764 40.7908 65.5361 40.7906H63.4434C63.3911 40.7943 63.3389 40.7819 63.2939 40.755C63.2488 40.7282 63.2131 40.6882 63.1914 40.6404ZM60.5318 34.5703L59.6646 36.9925C59.6514 37.0291 59.6472 37.0683 59.6523 37.1069C59.6575 37.1454 59.6718 37.1822 59.6941 37.214C59.7164 37.2458 59.7462 37.2718 59.7807 37.2898C59.8152 37.3077 59.8534 37.3171 59.8923 37.3171H61.6218C61.6607 37.3171 61.699 37.3077 61.7335 37.2898C61.768 37.2718 61.7977 37.2458 61.8201 37.214C61.8424 37.1822 61.8567 37.1454 61.8618 37.1069C61.8669 37.0683 61.8627 37.0291 61.8495 36.9925L60.9872 34.5703C60.9702 34.5235 60.9392 34.4831 60.8985 34.4546C60.8577 34.426 60.8092 34.4107 60.7595 34.4107C60.7097 34.4107 60.6611 34.426 60.6204 34.4546C60.5797 34.4831 60.5488 34.5235 60.5318 34.5703Z" fill="#F3F8FA"/>
<path d="M67.6726 40.5484V31.5861C67.6726 31.5536 67.679 31.5215 67.6914 31.4915C67.7038 31.4616 67.722 31.4343 67.745 31.4114C67.7679 31.3884 67.7951 31.3702 67.8251 31.3578C67.855 31.3454 67.8872 31.339 67.9197 31.339H69.9156C69.9798 31.339 70.0414 31.3645 70.0868 31.41C70.1322 31.4554 70.1578 31.517 70.1578 31.5812V38.223C70.1578 38.2873 70.1833 38.3489 70.2287 38.3943C70.2742 38.4397 70.3358 38.4653 70.4 38.4653H73.6314C73.6952 38.4665 73.756 38.4924 73.8012 38.5376C73.8464 38.5827 73.8723 38.6436 73.8736 38.7075V40.5435C73.8742 40.5758 73.8684 40.6078 73.8565 40.6377C73.8447 40.6677 73.8268 40.695 73.8043 40.718C73.7817 40.741 73.7549 40.7592 73.7251 40.7717C73.6954 40.7842 73.6636 40.7906 73.6314 40.7906H67.8954C67.8346 40.7857 67.7779 40.7581 67.7366 40.7132C67.6953 40.6683 67.6724 40.6094 67.6726 40.5484Z" fill="#F3F8FA"/>
<path d="M84.2358 40.7712H79.9097C79.8455 40.7712 79.7839 40.7457 79.7384 40.7003C79.693 40.6548 79.6675 40.5932 79.6675 40.529V31.5618C79.6675 31.4976 79.693 31.436 79.7384 31.3906C79.7839 31.3451 79.8455 31.3196 79.9097 31.3196H84.231C86.3771 31.3196 87.9515 32.3903 87.9515 34.9821V37.4043C87.9466 38.9061 87.1473 40.7664 84.2358 40.7712ZM85.4421 34.9869C85.4421 34.0568 85.1079 33.3204 83.921 33.3204H82.3223C82.258 33.3204 82.1964 33.3459 82.151 33.3913C82.1056 33.4368 82.08 33.4984 82.08 33.5626V38.3635C82.08 38.4277 82.1056 38.4894 82.151 38.5348C82.1964 38.5802 82.258 38.6057 82.3223 38.6057H84.3084C84.4591 38.6237 84.612 38.6078 84.7557 38.5591C84.8995 38.5104 85.0304 38.4301 85.1391 38.3242C85.2477 38.2183 85.3315 38.0894 85.3839 37.947C85.4363 37.8046 85.4562 37.6523 85.4421 37.5012V34.9869Z" fill="#F3F8FA"/>
<path d="M94.0122 40.7567C93.98 40.7574 93.948 40.7516 93.9181 40.7397C93.8881 40.7278 93.8609 40.7101 93.8379 40.6875C93.8149 40.6649 93.7965 40.638 93.7841 40.6083C93.7716 40.5786 93.7651 40.5467 93.7651 40.5145V40.1657C93.1344 40.574 92.4186 40.8326 91.6724 40.9214H91.188C90.7035 40.9214 89.1726 40.5726 89.1677 38.5864V37.976C89.1677 37.1137 89.5796 35.796 91.6482 35.796H93.3437C93.408 35.796 93.4696 35.7704 93.515 35.725C93.5604 35.6796 93.586 35.618 93.586 35.5537V35.1904C93.5886 35.1489 93.5826 35.1074 93.5685 35.0683C93.5543 35.0293 93.5322 34.9936 93.5035 34.9636C93.4748 34.9335 93.4401 34.9098 93.4018 34.8938C93.3635 34.8778 93.3222 34.8699 93.2807 34.8707H90.4951C90.4309 34.8707 90.3693 34.8451 90.3239 34.7997C90.2784 34.7543 90.2529 34.6927 90.2529 34.6284V33.2526C90.2529 33.2204 90.2593 33.1885 90.2718 33.1588C90.2843 33.1291 90.3026 33.1021 90.3256 33.0796C90.3486 33.057 90.3759 33.0393 90.4058 33.0274C90.4358 33.0155 90.4677 33.0097 90.5 33.0104H94.1818C94.4112 32.9865 94.6431 33.0137 94.8607 33.0902C95.0783 33.1667 95.2762 33.2904 95.4403 33.4526C95.6043 33.6148 95.7303 33.8113 95.8093 34.028C95.8882 34.2447 95.9181 34.4763 95.8968 34.7059V40.5193C95.8968 40.5836 95.8713 40.6452 95.8258 40.6906C95.7804 40.736 95.7188 40.7616 95.6546 40.7616L94.0122 40.7567ZM93.6054 37.5739C93.6054 37.5096 93.5798 37.448 93.5344 37.4026C93.489 37.3572 93.4274 37.3316 93.3631 37.3316H91.6045C91.5629 37.3282 91.521 37.3336 91.4816 37.3475C91.4423 37.3614 91.4063 37.3836 91.3761 37.4124C91.3459 37.4412 91.3221 37.4762 91.3063 37.5148C91.2906 37.5535 91.2833 37.5951 91.2848 37.6369V38.441C91.2821 38.5236 91.2964 38.6059 91.3269 38.6827C91.3574 38.7595 91.4035 38.8291 91.4621 38.8873C91.5208 38.9455 91.5908 38.991 91.6678 39.0209C91.7448 39.0508 91.8272 39.0645 91.9098 39.0611C92.4246 39.0456 92.9348 38.9592 93.4261 38.8044C93.4778 38.7908 93.5237 38.7607 93.5569 38.7188C93.5901 38.6769 93.6088 38.6253 93.6102 38.5718L93.6054 37.5739Z" fill="#F3F8FA"/>
<path d="M102.989 40.747C102.925 40.747 102.863 40.7215 102.818 40.6761C102.772 40.6306 102.747 40.569 102.747 40.5048V35.9413C102.747 35.3163 102.442 35.0111 101.976 35.016C101.369 35.0428 100.764 35.1076 100.165 35.2098C100.107 35.2179 100.055 35.2463 100.016 35.2898C99.9782 35.3334 99.9568 35.3892 99.9562 35.4471V40.5096C99.955 40.5735 99.9291 40.6344 99.884 40.6795C99.8388 40.7247 99.7779 40.7506 99.714 40.7518H97.8731C97.8088 40.7518 97.7472 40.7263 97.7018 40.6809C97.6564 40.6355 97.6309 40.5739 97.6309 40.5096V31.0822C97.6309 31.018 97.6564 30.9564 97.7018 30.911C97.7472 30.8655 97.8088 30.84 97.8731 30.84H99.7092C99.7734 30.84 99.835 30.8655 99.8804 30.911C99.9259 30.9564 99.9514 31.018 99.9514 31.0822V33.1218C99.9517 33.1601 99.961 33.1978 99.9787 33.2318C99.9964 33.2657 100.022 33.2951 100.053 33.3173C100.084 33.3395 100.12 33.354 100.158 33.3596C100.196 33.3652 100.235 33.3617 100.271 33.3495C101.061 33.0502 101.893 32.8785 102.737 32.8408C103.667 32.8408 105.077 32.9958 105.082 35.6409V40.4854C105.082 40.5501 105.056 40.6122 105.011 40.6584C104.966 40.7046 104.904 40.7312 104.84 40.7325L102.989 40.747Z" fill="#F3F8FA"/>
<path d="M111.099 40.7373C111.067 40.738 111.035 40.7322 111.005 40.7203C110.975 40.7084 110.947 40.6907 110.924 40.6681C110.901 40.6455 110.883 40.6186 110.871 40.5889C110.858 40.5592 110.852 40.5273 110.852 40.4951V40.1463C110.135 40.529 109.612 40.8972 108.967 40.902H108.483C107.998 40.902 106.467 40.5484 106.463 38.5621V37.9566C106.463 37.0894 106.874 35.7766 108.943 35.7717H110.639C110.703 35.7717 110.764 35.7462 110.81 35.7008C110.855 35.6553 110.881 35.5937 110.881 35.5295V35.1613C110.883 35.1199 110.878 35.0783 110.863 35.0393C110.849 35.0002 110.827 34.9645 110.798 34.9345C110.77 34.9044 110.735 34.8807 110.697 34.8647C110.658 34.8487 110.617 34.8408 110.576 34.8416H107.79C107.726 34.8416 107.664 34.816 107.619 34.7706C107.573 34.7252 107.548 34.6636 107.548 34.5993V33.2283C107.547 33.1961 107.553 33.1641 107.565 33.1342C107.577 33.1042 107.594 33.0769 107.617 33.0539C107.64 33.0309 107.666 33.0126 107.696 33.0002C107.726 32.9877 107.758 32.9813 107.79 32.9813H111.472C111.702 32.9573 111.934 32.9846 112.152 33.0614C112.37 33.1381 112.568 33.2623 112.732 33.425C112.896 33.5878 113.022 33.7849 113.101 34.0022C113.179 34.2196 113.209 34.4516 113.187 34.6817V40.4951C113.187 40.5593 113.161 40.6209 113.116 40.6664C113.07 40.7118 113.009 40.7373 112.945 40.7373H111.099ZM110.9 37.5545C110.901 37.5223 110.895 37.4902 110.883 37.4603C110.871 37.4304 110.854 37.4031 110.831 37.3801C110.808 37.3571 110.781 37.3388 110.752 37.3263C110.722 37.3138 110.69 37.3074 110.658 37.3074H108.899C108.858 37.304 108.816 37.3094 108.776 37.3233C108.737 37.3372 108.701 37.3593 108.671 37.3882C108.641 37.417 108.617 37.4519 108.601 37.4906C108.585 37.5293 108.578 37.5709 108.58 37.6126V38.412C108.577 38.4948 108.591 38.5772 108.622 38.6543C108.652 38.7313 108.698 38.8013 108.757 38.8598C108.815 38.9184 108.885 38.9644 108.962 38.9948C109.039 39.0253 109.122 39.0396 109.205 39.0369C109.719 39.0188 110.229 38.9325 110.721 38.7801C110.773 38.7663 110.82 38.7355 110.853 38.6926C110.886 38.6497 110.905 38.5971 110.905 38.5428L110.9 37.5545Z" fill="#F3F8FA"/>
<path d="M124.164 40.7131C124.132 40.7131 124.1 40.7067 124.07 40.6943C124.04 40.6819 124.012 40.6637 123.99 40.6407C123.967 40.6178 123.948 40.5906 123.936 40.5606C123.924 40.5306 123.917 40.4985 123.917 40.466V35.9171C123.917 35.4326 123.772 34.9869 123.147 34.9869C122.673 35.0118 122.202 35.0717 121.737 35.1661C121.747 35.3145 121.747 35.4635 121.737 35.6118V40.4563C121.737 40.5206 121.712 40.5822 121.666 40.6276C121.621 40.673 121.559 40.6986 121.495 40.6986H119.659C119.595 40.6986 119.533 40.673 119.488 40.6276C119.442 40.5822 119.417 40.5206 119.417 40.4563V35.8928C119.417 35.4084 119.257 34.9627 118.632 34.9627C118.226 34.9843 117.824 35.046 117.43 35.1468C117.376 35.1572 117.327 35.1869 117.292 35.2304C117.257 35.274 117.239 35.3285 117.242 35.3842V40.4563C117.242 40.5206 117.216 40.5822 117.171 40.6276C117.125 40.673 117.064 40.6986 116.999 40.6986H115.163C115.099 40.6986 115.036 40.6732 114.99 40.6279C114.944 40.5826 114.917 40.521 114.916 40.4563V33.1896C114.917 33.1245 114.944 33.0623 114.99 33.0163C115.036 32.9702 115.098 32.9438 115.163 32.9425H116.936L117.13 33.3446C117.851 33.012 118.629 32.8196 119.422 32.7778C119.719 32.7517 120.018 32.7868 120.302 32.881C120.585 32.9751 120.846 33.1263 121.069 33.3252C121.102 33.3606 121.145 33.385 121.193 33.3954C121.24 33.4057 121.29 33.4016 121.335 33.3834C122.147 33.0278 123.017 32.821 123.903 32.773C124.833 32.773 126.243 32.9329 126.247 35.5731V40.4418C126.247 40.506 126.222 40.5677 126.176 40.6131C126.131 40.6585 126.069 40.684 126.005 40.684L124.164 40.7131Z" fill="#F3F8FA"/>
<path d="M138.625 40.5532L137.172 38.131C137.15 38.0956 137.119 38.0664 137.083 38.046C137.046 38.0257 137.005 38.0149 136.963 38.0147H136.382C136.318 38.0147 136.256 38.0402 136.211 38.0857C136.165 38.1311 136.14 38.1927 136.14 38.2569V40.4176C136.14 40.4818 136.114 40.5434 136.069 40.5889C136.023 40.6343 135.962 40.6598 135.898 40.6598H134.062C133.997 40.6598 133.936 40.6343 133.89 40.5889C133.845 40.5434 133.819 40.4818 133.819 40.4176V31.4553C133.819 31.391 133.845 31.3294 133.89 31.284C133.936 31.2386 133.997 31.2131 134.062 31.2131H138.383C139.938 31.2131 141.445 31.9978 141.445 34.3184V34.9288C141.479 35.5049 141.332 36.0773 141.023 36.5651C140.714 37.0528 140.26 37.4311 139.725 37.6465C139.693 37.6605 139.665 37.6812 139.642 37.7073C139.619 37.7333 139.602 37.764 139.593 37.7972C139.583 37.8305 139.581 37.8654 139.586 37.8996C139.591 37.9339 139.604 37.9665 139.623 37.9953L141.101 40.2868C141.124 40.3237 141.137 40.3661 141.138 40.4097C141.139 40.4533 141.129 40.4964 141.109 40.5348C141.088 40.5732 141.057 40.6054 141.02 40.6282C140.983 40.651 140.941 40.6636 140.897 40.6646H138.853C138.808 40.6689 138.763 40.6608 138.723 40.6411C138.683 40.6214 138.649 40.591 138.625 40.5532ZM139.056 34.9191V34.3717C139.056 34.2228 139.027 34.0754 138.97 33.9378C138.913 33.8003 138.829 33.6753 138.724 33.5701C138.619 33.4648 138.494 33.3813 138.356 33.3243C138.219 33.2674 138.071 33.238 137.923 33.238H136.368C136.303 33.238 136.242 33.2636 136.196 33.309C136.151 33.3544 136.125 33.416 136.125 33.4803V35.9267C136.127 35.9906 136.152 36.0515 136.198 36.0966C136.243 36.1418 136.304 36.1677 136.368 36.169H137.821C137.991 36.1871 138.163 36.1666 138.324 36.1088C138.485 36.0511 138.631 35.9577 138.751 35.8356C138.87 35.7135 138.961 35.5659 139.015 35.4038C139.07 35.2417 139.087 35.0694 139.066 34.8997L139.056 34.9191Z" fill="#F3F8FA"/>
<path d="M149.588 40.5823C149.587 40.6453 149.562 40.7055 149.518 40.7506C149.473 40.7956 149.414 40.8221 149.351 40.8245C147.849 40.8827 146.744 40.8245 145.088 40.8245C144.172 40.8245 142.762 40.185 142.762 38.0244V35.5537C142.762 34.1633 143.542 32.9135 145.402 32.9086H146.957C148.847 32.9086 149.438 34.0277 149.443 35.0838V36.7794C149.443 37.2638 149.186 37.5496 148.755 37.5496H145.088V37.9663C145.077 38.0741 145.09 38.183 145.125 38.2856C145.16 38.3881 145.217 38.482 145.291 38.5609C145.365 38.6398 145.456 38.7019 145.556 38.7431C145.656 38.7842 145.764 38.8035 145.872 38.7995C146.521 38.7995 148.295 38.7995 149.322 38.6687C149.355 38.6653 149.389 38.6691 149.422 38.6797C149.454 38.6904 149.484 38.7077 149.509 38.7305C149.534 38.7533 149.554 38.7812 149.568 38.8123C149.581 38.8434 149.588 38.877 149.588 38.9109V40.5823ZM147.563 35.3842C147.566 35.3024 147.553 35.2209 147.524 35.1445C147.494 35.0682 147.45 34.9986 147.393 34.9401C147.335 34.8816 147.267 34.8354 147.191 34.8043C147.116 34.7732 147.034 34.7578 146.953 34.7592H145.703C145.62 34.7565 145.538 34.7708 145.461 34.8013C145.383 34.8318 145.314 34.8777 145.255 34.9363C145.196 34.9948 145.15 35.0648 145.12 35.1419C145.09 35.2189 145.075 35.3014 145.078 35.3842V35.9073C145.078 35.9396 145.084 35.9715 145.097 36.0012C145.109 36.0309 145.127 36.0578 145.151 36.0804C145.174 36.1029 145.201 36.1207 145.231 36.1326C145.261 36.1444 145.293 36.1502 145.325 36.1496H147.345C147.409 36.1496 147.471 36.1241 147.516 36.0786C147.562 36.0332 147.587 35.9716 147.587 35.9073L147.563 35.3842Z" fill="#F3F8FA"/>
<path d="M155.532 40.6501C155.468 40.6501 155.407 40.6246 155.361 40.5792C155.316 40.5338 155.29 40.4721 155.29 40.4079V40.0591C154.568 40.4418 153.934 40.81 153.294 40.81H152.81C152.325 40.81 150.79 40.4564 150.79 38.4701V37.8645C150.79 36.9974 151.202 35.6845 153.27 35.6797H154.961C155.026 35.6797 155.088 35.6543 155.134 35.609C155.18 35.5637 155.207 35.5021 155.208 35.4375V35.0693C155.211 35.0281 155.206 34.9866 155.192 34.9476C155.179 34.9085 155.157 34.8728 155.129 34.8427C155.1 34.8125 155.066 34.7887 155.028 34.7726C154.99 34.7566 154.949 34.7487 154.908 34.7495H152.122C152.058 34.7495 151.996 34.724 151.951 34.6786C151.905 34.6332 151.88 34.5716 151.88 34.5073V33.1363C151.88 33.0716 151.905 33.0095 151.95 32.9633C151.996 32.9171 152.057 32.8905 152.122 32.8893H155.804C156.033 32.8654 156.265 32.8926 156.483 32.9691C156.7 33.0456 156.898 33.1693 157.062 33.3315C157.226 33.4937 157.352 33.6902 157.431 33.9069C157.51 34.1236 157.54 34.3552 157.519 34.5848V40.3982C157.519 40.4625 157.493 40.5241 157.448 40.5695C157.402 40.6149 157.341 40.6404 157.277 40.6404L155.532 40.6501ZM155.227 37.4625C155.227 37.3982 155.202 37.3366 155.156 37.2912C155.111 37.2457 155.049 37.2202 154.985 37.2202H153.226C153.185 37.216 153.142 37.2208 153.103 37.2344C153.063 37.2481 153.027 37.2701 152.996 37.2991C152.966 37.3282 152.942 37.3634 152.927 37.4025C152.911 37.4415 152.904 37.4835 152.907 37.5254V38.3248C152.904 38.4076 152.918 38.49 152.949 38.5671C152.979 38.6441 153.025 38.7141 153.084 38.7727C153.142 38.8312 153.212 38.8772 153.289 38.9076C153.366 38.9381 153.449 38.9524 153.532 38.9497C154.046 38.9317 154.556 38.8453 155.048 38.693C155.1 38.679 155.146 38.648 155.178 38.605C155.211 38.562 155.228 38.5094 155.227 38.4556V37.4625Z" fill="#F3F8FA"/>
<path d="M159.258 40.403V30.9708C159.258 30.9066 159.283 30.845 159.329 30.7995C159.374 30.7541 159.436 30.7286 159.5 30.7286H161.394C161.458 30.7286 161.52 30.7541 161.565 30.7995C161.611 30.845 161.636 30.9066 161.636 30.9708V40.3982C161.636 40.4304 161.63 40.4623 161.617 40.492C161.605 40.5217 161.587 40.5486 161.564 40.5712C161.541 40.5938 161.513 40.6115 161.483 40.6234C161.453 40.6353 161.421 40.6411 161.389 40.6404H159.49C159.428 40.638 159.37 40.612 159.327 40.5679C159.284 40.5238 159.259 40.4648 159.258 40.403Z" fill="#F3F8FA"/>
<path d="M171.771 36.7503H175.162C175.194 36.7503 175.226 36.7439 175.256 36.7314C175.286 36.7189 175.312 36.7007 175.335 36.6777C175.358 36.6547 175.375 36.6274 175.387 36.5974C175.399 36.5675 175.405 36.5355 175.404 36.5032V35.0499C175.403 34.986 175.377 34.9252 175.332 34.88C175.287 34.8348 175.226 34.8089 175.162 34.8077H171.771C171.707 34.8077 171.645 34.7821 171.6 34.7367C171.554 34.6913 171.529 34.6297 171.529 34.5654V33.4803C171.53 33.4156 171.556 33.354 171.603 33.3087C171.649 33.2634 171.711 33.238 171.776 33.2381H175.627C175.691 33.2381 175.753 33.2125 175.798 33.1671C175.844 33.1217 175.869 33.0601 175.869 32.9958V31.4311C175.869 31.3668 175.844 31.3052 175.798 31.2598C175.753 31.2144 175.691 31.1888 175.627 31.1888H169.494C169.429 31.1901 169.368 31.2167 169.322 31.2629C169.277 31.3091 169.252 31.3712 169.252 31.4359V40.3982C169.252 40.4625 169.277 40.5241 169.323 40.5695C169.368 40.6149 169.43 40.6404 169.494 40.6404H175.792C175.824 40.6404 175.856 40.634 175.886 40.6215C175.915 40.6091 175.942 40.5908 175.965 40.5678C175.987 40.5448 176.005 40.5175 176.017 40.4876C176.029 40.4576 176.035 40.4256 176.034 40.3934V38.6687C176.033 38.604 176.006 38.5424 175.96 38.4971C175.914 38.4519 175.852 38.4265 175.787 38.4265H171.79C171.726 38.4265 171.664 38.401 171.619 38.3556C171.574 38.3101 171.548 38.2485 171.548 38.1843V37.0071C171.545 36.9439 171.567 36.882 171.608 36.8343C171.65 36.7865 171.708 36.7565 171.771 36.7503Z" fill="#F3F8FA"/>
<path d="M182.095 35.8105H180.157C180.125 35.8111 180.093 35.8053 180.063 35.7934C180.034 35.7814 180.007 35.7636 179.984 35.741C179.962 35.7184 179.944 35.6914 179.932 35.6617C179.92 35.632 179.914 35.6002 179.915 35.5682V35.045C179.911 35.0038 179.917 34.9624 179.93 34.9233C179.944 34.8843 179.966 34.8485 179.994 34.8184C180.022 34.7883 180.056 34.7644 180.095 34.7484C180.133 34.7323 180.174 34.7245 180.215 34.7253H182.923C182.987 34.7241 183.048 34.6981 183.093 34.653C183.138 34.6078 183.164 34.5469 183.165 34.4831V33.1072C183.165 33.043 183.14 32.9814 183.094 32.936C183.049 32.8905 182.987 32.865 182.923 32.865H179.915C178.519 32.865 177.58 33.4948 177.58 34.7253V36.0721C177.575 36.2934 177.616 36.5134 177.702 36.7174C177.788 36.9215 177.917 37.105 178.079 37.256C178.241 37.407 178.433 37.522 178.642 37.5935C178.852 37.665 179.074 37.6913 179.295 37.6707H181.46V38.0874C181.46 38.5185 181.237 38.7608 180.69 38.7608C179.694 38.7295 178.7 38.6373 177.715 38.4846C177.681 38.4797 177.646 38.4824 177.612 38.4923C177.579 38.5023 177.548 38.5194 177.522 38.5424C177.495 38.5654 177.475 38.5937 177.46 38.6256C177.446 38.6574 177.439 38.692 177.439 38.7268V39.5649V40.5338C177.439 40.5981 177.465 40.6597 177.51 40.7051C177.555 40.7505 177.617 40.7761 177.681 40.7761H181.46C182.676 40.7761 183.795 40.1172 183.795 38.4362V37.2154C183.81 36.5953 183.345 35.8105 182.095 35.8105Z" fill="#F3F8FA"/>
<path d="M189.076 38.5864C188.47 38.5864 188.305 38.1261 188.305 37.5012V35.1177C188.305 35.053 188.331 34.9909 188.376 34.9447C188.421 34.8985 188.483 34.8719 188.548 34.8706H190.384C190.448 34.8706 190.51 34.8451 190.555 34.7997C190.6 34.7543 190.626 34.6927 190.626 34.6284V33.0976C190.626 33.032 190.6 32.9692 190.554 32.9229C190.507 32.8765 190.444 32.8505 190.379 32.8505H188.523C188.459 32.8492 188.399 32.8233 188.353 32.7782C188.308 32.733 188.282 32.6721 188.281 32.6083V31.8622C188.281 31.7975 188.256 31.7354 188.211 31.6892C188.165 31.643 188.104 31.6164 188.039 31.6152H186.198C186.134 31.6152 186.072 31.6407 186.027 31.6861C185.981 31.7315 185.956 31.7931 185.956 31.8574V32.6034C185.956 32.669 185.93 32.7318 185.883 32.7781C185.837 32.8245 185.774 32.8505 185.709 32.8505H185.268C185.204 32.8505 185.142 32.876 185.097 32.9214C185.051 32.9669 185.026 33.0285 185.026 33.0927V34.6236C185.026 34.6558 185.032 34.6877 185.045 34.7174C185.057 34.7471 185.075 34.774 185.098 34.7966C185.121 34.8192 185.149 34.8369 185.179 34.8488C185.209 34.8607 185.24 34.8664 185.273 34.8658H185.714C185.778 34.8658 185.839 34.8913 185.885 34.9367C185.93 34.9822 185.956 35.0438 185.956 35.108V37.9566C185.956 40.0252 187.274 40.7615 188.33 40.7567H190.679C190.745 40.7567 190.807 40.7307 190.854 40.6843C190.9 40.638 190.926 40.5752 190.926 40.5096V39.5407V38.6929C190.926 38.6585 190.919 38.6245 190.905 38.593C190.891 38.5616 190.871 38.5334 190.845 38.5105C190.82 38.4876 190.789 38.4704 190.757 38.4601C190.724 38.4498 190.689 38.4466 190.655 38.4507C190.175 38.5185 189.439 38.5864 189.076 38.5864Z" fill="#F3F8FA"/>
<path d="M197.074 32.8456H193.392C193.328 32.8456 193.266 32.8711 193.221 32.9166C193.175 32.962 193.15 33.0236 193.15 33.0879V34.4588C193.15 34.5231 193.175 34.5847 193.221 34.6301C193.266 34.6755 193.328 34.7011 193.392 34.7011H196.178C196.219 34.701 196.261 34.7095 196.299 34.726C196.337 34.7425 196.372 34.7668 196.401 34.7972C196.429 34.8276 196.451 34.8636 196.465 34.9029C196.48 34.9422 196.485 34.984 196.483 35.0257V35.3841C196.483 35.4484 196.457 35.51 196.412 35.5554C196.366 35.6008 196.305 35.6264 196.241 35.6264H194.545C192.476 35.6264 192.065 36.9392 192.065 37.8064V38.4168C192.065 40.403 193.591 40.7518 194.085 40.7518H194.569C195.209 40.7518 195.693 40.3788 196.415 39.9961V40.3449C196.415 40.4091 196.441 40.4708 196.486 40.5162C196.531 40.5616 196.593 40.5871 196.657 40.5871H198.571C198.603 40.5871 198.635 40.5807 198.665 40.5682C198.694 40.5558 198.721 40.5375 198.744 40.5145C198.766 40.4915 198.784 40.4642 198.796 40.4342C198.808 40.4043 198.814 40.3723 198.813 40.3401V34.5267C198.833 34.2959 198.801 34.0636 198.719 33.8468C198.638 33.6299 198.509 33.4339 198.343 33.2729C198.176 33.112 197.976 32.9901 197.757 32.9162C197.537 32.8423 197.304 32.8182 197.074 32.8456ZM196.488 38.4071C196.489 38.4612 196.472 38.5142 196.44 38.5574C196.407 38.6005 196.361 38.6313 196.308 38.6445C195.817 38.799 195.307 38.8854 194.792 38.9012C194.709 38.9039 194.627 38.8896 194.55 38.8592C194.473 38.8287 194.403 38.7828 194.344 38.7242C194.286 38.6656 194.24 38.5956 194.209 38.5186C194.179 38.4416 194.164 38.3591 194.167 38.2763V37.477C194.165 37.435 194.172 37.3931 194.187 37.354C194.203 37.3149 194.226 37.2797 194.257 37.2507C194.287 37.2217 194.323 37.1996 194.363 37.186C194.403 37.1723 194.445 37.1675 194.487 37.1718H196.245C196.31 37.1718 196.371 37.1973 196.417 37.2427C196.462 37.2881 196.488 37.3497 196.488 37.414V38.4071Z" fill="#F3F8FA"/>
<path d="M204.137 38.5718C203.527 38.5718 203.367 38.0874 203.367 37.4818V35.0983C203.367 35.0341 203.392 34.9725 203.438 34.927C203.483 34.8816 203.545 34.8561 203.609 34.8561H205.45C205.514 34.8561 205.576 34.8306 205.621 34.7852C205.667 34.7397 205.692 34.6781 205.692 34.6139V33.083C205.693 33.0508 205.687 33.0188 205.675 32.9888C205.663 32.9589 205.646 32.9316 205.623 32.9086C205.601 32.8856 205.574 32.8673 205.544 32.8548C205.514 32.8424 205.482 32.8359 205.45 32.8359H203.614C203.55 32.8359 203.488 32.8104 203.443 32.765C203.397 32.7196 203.372 32.658 203.372 32.5937V31.8477C203.372 31.8155 203.367 31.7834 203.355 31.7535C203.343 31.7235 203.325 31.6963 203.303 31.6733C203.28 31.6502 203.253 31.632 203.223 31.6195C203.194 31.607 203.162 31.6006 203.13 31.6006H201.294C201.229 31.6006 201.168 31.6261 201.122 31.6716C201.077 31.717 201.051 31.7786 201.051 31.8428V32.5889C201.052 32.6211 201.046 32.6531 201.034 32.6831C201.022 32.713 201.005 32.7403 200.982 32.7633C200.959 32.7863 200.933 32.8046 200.903 32.8171C200.873 32.8295 200.841 32.8359 200.809 32.8359H200.368C200.304 32.8359 200.242 32.8615 200.197 32.9069C200.152 32.9523 200.126 33.0139 200.126 33.0782V34.609C200.126 34.6733 200.152 34.7349 200.197 34.7803C200.242 34.8257 200.304 34.8513 200.368 34.8513H200.814C200.878 34.8525 200.939 34.8784 200.984 34.9236C201.029 34.9687 201.055 35.0296 201.056 35.0935V37.942C201.056 40.0106 202.369 40.747 203.43 40.7422H205.78C205.844 40.7422 205.905 40.7166 205.951 40.6712C205.996 40.6258 206.022 40.5642 206.022 40.4999V39.531V38.6832C206.022 38.6488 206.015 38.6148 206.001 38.5833C205.987 38.5518 205.967 38.5237 205.941 38.5008C205.915 38.4779 205.885 38.4607 205.852 38.4504C205.819 38.4401 205.785 38.4369 205.75 38.441C205.237 38.4992 204.51 38.567 204.137 38.5718Z" fill="#F3F8FA"/>
<path d="M210.348 38.722C210.239 38.726 210.131 38.7067 210.031 38.6656C209.931 38.6244 209.84 38.5623 209.766 38.4834C209.692 38.4045 209.635 38.3106 209.6 38.2081C209.565 38.1055 209.552 37.9966 209.563 37.8888V37.4721H213.23C213.661 37.4721 213.918 37.2008 213.918 36.7019V35.0063C213.918 33.9502 213.322 32.8263 211.433 32.8311H209.878C208.022 32.8311 207.237 34.0858 207.242 35.481V37.9469C207.242 40.1075 208.657 40.747 209.568 40.747C211.229 40.747 212.334 40.8051 213.831 40.747C213.894 40.7433 213.954 40.7159 213.998 40.67C214.042 40.6242 214.067 40.5635 214.068 40.4999V38.8334C214.068 38.7996 214.062 38.7662 214.048 38.7353C214.034 38.7045 214.014 38.6769 213.989 38.6544C213.963 38.6319 213.934 38.6151 213.901 38.605C213.869 38.595 213.835 38.5919 213.802 38.596C212.746 38.7075 210.992 38.722 210.348 38.722ZM209.558 35.3309C209.555 35.2481 209.57 35.1656 209.6 35.0886C209.63 35.0115 209.676 34.9415 209.735 34.883C209.794 34.8244 209.863 34.7785 209.941 34.748C210.018 34.7175 210.1 34.7032 210.183 34.7059H211.433C211.514 34.7052 211.595 34.721 211.67 34.7524C211.745 34.7838 211.813 34.8301 211.869 34.8886C211.926 34.947 211.97 35.0164 211.999 35.0924C212.028 35.1684 212.042 35.2496 212.038 35.3309V35.8589C212.038 35.8911 212.032 35.923 212.019 35.9527C212.007 35.9824 211.989 36.0094 211.966 36.0319C211.943 36.0545 211.915 36.0722 211.885 36.0841C211.855 36.096 211.823 36.1018 211.791 36.1011H209.795C209.731 36.0999 209.669 36.0733 209.624 36.0271C209.578 35.9809 209.553 35.9188 209.553 35.8541L209.558 35.3309Z" fill="#F3F8FA"/>
<path d="M23.5442 0.0823659C22.9144 0.033921 22.275 0.00485229 21.6064 0.00485229H0V50H8.61837V44.5887H5.42587V5.44522H21.6064C23.0928 5.4382 24.5751 5.60074 26.0246 5.92967L23.5442 0.0823659Z" fill="#C1986D"/>
<path d="M5.44046 5.36285V7.71242L0.024353 5.90059V0L5.44046 5.36285Z" fill="url(#paint0_linear_13_2591)"/>
<path d="M18.5881 18.4963V49.9855H21.6305C22.4153 49.9855 23.1904 49.9418 23.9559 49.8692V22.2556L18.5881 17.3336V18.4963Z" fill="#F3F8FA"/>
<path d="M11.065 26.7319V44.5693V49.9952H16.4326V44.5693V26.7319V15.3522L11.065 10.4302V26.7319Z" fill="#F3F8FA"/>
<path d="M46.5797 23.5055C46.2431 17.977 44.082 12.7164 40.4351 8.54781C36.7881 4.37924 31.8614 1.53823 26.4267 0.469894H26.3394L29.1008 6.93244C30.7145 7.60075 32.2314 8.48221 33.611 9.55332C36.6384 12.1074 38.8416 15.5008 39.9426 19.3056C41.0436 23.1104 40.9931 27.156 39.7974 30.9321C39.3314 32.3918 38.7397 33.8085 38.0292 35.1661C37.5887 35.9991 37.1036 36.8077 36.5758 37.5884C35.188 39.2413 33.5383 40.6553 31.6926 41.774V29.377L26.3249 24.455V49.5397C27.9851 49.2219 29.6084 48.7349 31.1694 48.0864C35.6569 46.2092 39.505 43.0729 42.2488 39.0563C44.7892 35.3346 46.2711 30.9928 46.5362 26.4945C46.5652 26.0101 46.5846 25.5256 46.5846 25.0024C46.5846 24.4792 46.6088 23.9996 46.5797 23.5055Z" fill="#F3F8FA"/>
<defs>
<linearGradient id="paint0_linear_13_2591" x1="4.19059" y1="1.67619" x2="1.85554" y2="5.16906" gradientUnits="userSpaceOnUse">
<stop stop-color="#513A13"/>
<stop offset="1" stop-color="#7B6C3B" stop-opacity="0"/>
</linearGradient>
</defs>
</svg>
