<svg width="204" height="190" viewBox="0 0 204 190" fill="none" xmlns="http://www.w3.org/2000/svg">
<path d="M0.64305 144.446L0.324607 114.787C0.242462 107.136 0.381858 99.5774 0.669204 92.1116L193.467 90.0416L189.506 142.418L0.64305 144.446Z" fill="#083D5C"/>
<path d="M1.0342 180.848L0.64305 144.446L188.342 142.431L201.246 178.699L1.0342 180.848Z" fill="#083D5C"/>
<path d="M104.721 0.0430445C127.165 1.3137 148.611 10.7875 165.698 26.9802C182.785 43.1728 197.996 67.8649 202.592 92.2192L202.597 92.6109L177.338 83.3888C174.549 76.1727 166.36 63.8104 161.948 57.6627C151.441 44.1814 137.568 34.4372 122.079 29.6597C106.591 24.8821 90.1811 25.2852 74.9199 30.818C69.0203 32.9741 63.3017 35.6921 57.8282 38.9415C54.4701 40.9555 51.2132 43.169 48.0717 45.5723C41.4331 51.8757 69.0778 22.1894 61.8291 15.2295L170.118 34.5453L192.851 90.0483L0.677983 92.1116C1.8874 84.6437 3.18806 77.3406 5.7437 70.3037C13.143 50.0738 25.6809 32.6599 41.8432 20.1656C56.8189 8.5973 74.3615 1.75485 92.5974 0.368924C94.5613 0.217317 96.5257 0.109262 98.6482 0.0864723C100.771 0.0636828 102.715 -0.0659378 104.721 0.0430445Z" fill="#083D5C"/>
<path d="M180.717 166.404L169.342 166.526L177.591 188.054L203.701 187.774L180.717 166.404Z" fill="url(#paint0_linear_325_302)"/>
<path d="M202.592 92.219C202.816 94.7674 202.63 97.5671 202.659 100.275L203.599 187.775L1.13155 189.949L0.75681 155.047L22.6712 154.811L22.81 167.74L181.331 166.038L180.627 100.511C180.591 94.4914 179.868 88.4956 178.473 82.6397L202.592 92.219Z" fill="#C1986D"/>
<path d="M189.007 147.572C189.019 147.561 189.029 147.547 189.036 147.531C189.042 147.515 189.045 147.498 189.043 147.481C189.044 147.451 189.033 147.422 189.012 147.4L188.734 147.118C188.726 147.109 188.715 147.101 188.704 147.096C188.713 147.092 188.721 147.086 188.729 147.079L189 146.796C189.022 146.774 189.036 146.744 189.039 146.712C189.041 146.696 189.039 146.679 189.033 146.664C189.027 146.648 189.017 146.634 189.005 146.623L188.727 146.351C188.716 146.339 188.703 146.329 188.687 146.322C188.672 146.316 188.656 146.313 188.639 146.313C188.605 146.317 188.573 146.331 188.549 146.355L188.278 146.634C188.266 146.645 188.257 146.658 188.25 146.673C188.244 146.688 188.241 146.704 188.242 146.72C188.243 146.751 188.256 146.78 188.278 146.802L188.549 147.083C188.559 147.092 188.57 147.099 188.582 147.104C188.57 147.11 188.559 147.118 188.549 147.127L188.278 147.405C188.255 147.428 188.242 147.458 188.242 147.49C188.241 147.506 188.244 147.522 188.25 147.538C188.257 147.553 188.266 147.567 188.278 147.578L188.549 147.849C188.56 147.861 188.574 147.871 188.589 147.877C188.605 147.882 188.621 147.885 188.638 147.883C188.669 147.881 188.698 147.869 188.722 147.849L189.007 147.572Z" fill="#F3F8FA"/>
<path d="M192.587 142.923C192.574 142.932 192.564 142.944 192.557 142.957C192.55 142.971 192.547 142.986 192.547 143.001C192.547 143.016 192.551 143.032 192.558 143.046C192.565 143.06 192.574 143.073 192.587 143.082L192.849 143.354L192.588 143.611C192.575 143.621 192.565 143.634 192.558 143.649C192.551 143.663 192.547 143.679 192.547 143.695C192.547 143.712 192.551 143.728 192.558 143.742C192.565 143.757 192.575 143.769 192.588 143.78L192.85 144.041C192.872 144.063 192.903 144.075 192.934 144.075C192.965 144.075 192.996 144.063 193.018 144.041L193.28 143.778C193.301 143.754 193.312 143.723 193.313 143.691C193.314 143.677 193.312 143.662 193.307 143.648C193.303 143.634 193.295 143.621 193.285 143.61L193.022 143.348L193.281 143.077C193.301 143.053 193.313 143.024 193.314 142.993C193.315 142.978 193.314 142.964 193.309 142.95C193.304 142.937 193.297 142.924 193.287 142.914L193.024 142.652C193.013 142.64 192.999 142.63 192.984 142.623C192.969 142.617 192.952 142.614 192.935 142.614C192.919 142.615 192.903 142.619 192.889 142.627C192.874 142.634 192.862 142.645 192.851 142.658L192.587 142.923Z" fill="#F3F8FA"/>
<path d="M190.61 142.074C190.522 142.085 190.438 142.099 190.355 142.113C190.272 142.128 190.207 142.143 190.157 142.155C190.112 142.165 190.07 142.189 190.039 142.223C190.025 142.241 190.015 142.261 190.011 142.283C190.007 142.305 190.008 142.328 190.015 142.349L190.104 142.804C190.11 142.84 190.126 142.873 190.149 142.9C190.172 142.929 190.214 142.937 190.277 142.927C190.339 142.918 190.441 142.899 190.538 142.883C190.633 142.867 190.73 142.858 190.826 142.857C190.951 142.84 191.078 142.869 191.184 142.938C191.227 142.986 191.26 143.042 191.279 143.103C191.299 143.164 191.305 143.229 191.297 143.292V146.319C191.304 146.374 191.299 146.43 191.284 146.483C191.268 146.536 191.242 146.585 191.207 146.628C191.1 146.695 190.972 146.724 190.846 146.71H189.506C189.479 146.709 189.452 146.717 189.43 146.734C189.419 146.743 189.41 146.754 189.404 146.767C189.399 146.78 189.396 146.794 189.397 146.809V147.362C189.396 147.395 189.406 147.427 189.426 147.453C189.439 147.465 189.454 147.474 189.47 147.479C189.486 147.485 189.504 147.487 189.521 147.486H189.747L189.932 148.004C190.008 148.229 190.119 148.441 190.262 148.632C190.366 148.771 190.502 148.884 190.658 148.963C190.794 149.029 190.944 149.062 191.096 149.061C191.205 149.066 191.314 149.05 191.417 149.013C191.52 148.976 191.615 148.919 191.696 148.845C191.776 148.758 191.837 148.655 191.876 148.543C191.915 148.432 191.93 148.313 191.921 148.195C191.924 148.032 191.888 147.871 191.818 147.724C191.753 147.596 191.655 147.487 191.534 147.408C191.754 147.364 191.952 147.245 192.094 147.072C192.226 146.884 192.291 146.658 192.279 146.429V144.827V143.382C192.298 143.112 192.24 142.842 192.112 142.603C191.997 142.409 191.82 142.26 191.61 142.179C191.36 142.086 191.095 142.044 190.829 142.054C190.755 142.056 190.683 142.062 190.61 142.074ZM190.678 147.481C190.766 147.479 190.852 147.501 190.928 147.545C190.994 147.587 191.048 147.646 191.084 147.716C191.121 147.787 191.14 147.867 191.139 147.947C191.143 148.023 191.12 148.098 191.074 148.158C191.054 148.184 191.028 148.205 190.998 148.219C190.968 148.233 190.935 148.24 190.902 148.238C190.864 148.237 190.826 148.228 190.793 148.21C190.759 148.192 190.729 148.167 190.707 148.137C190.643 148.054 190.596 147.959 190.571 147.857L190.457 147.481H190.678Z" fill="#F3F8FA"/>
<path d="M190.442 140.346C190.39 140.352 190.342 140.377 190.306 140.415C190.295 140.436 190.289 140.459 190.288 140.482C190.287 140.506 190.291 140.529 190.3 140.551L190.414 141.016C190.415 141.044 190.424 141.07 190.439 141.094C190.454 141.117 190.474 141.137 190.498 141.15C190.522 141.164 190.549 141.171 190.577 141.171C190.605 141.171 190.632 141.165 190.656 141.152C190.85 141.099 191.044 141.054 191.237 141.016C191.41 140.98 191.587 140.961 191.763 140.959C191.92 140.955 192.076 140.982 192.222 141.038C192.346 141.088 192.449 141.18 192.514 141.297C192.588 141.446 192.623 141.612 192.615 141.779V141.873C192.614 141.921 192.627 141.969 192.653 142.009C192.666 142.027 192.683 142.041 192.702 142.05C192.722 142.059 192.743 142.063 192.765 142.062H193.323C193.367 142.064 193.41 142.05 193.444 142.023C193.461 142.006 193.474 141.986 193.482 141.964C193.491 141.941 193.494 141.917 193.492 141.894V141.692C193.5 141.394 193.426 141.1 193.28 140.841C193.143 140.61 192.942 140.425 192.701 140.308C192.438 140.182 192.149 140.119 191.857 140.125C191.616 140.127 191.375 140.149 191.138 140.193C190.891 140.234 190.659 140.285 190.442 140.346Z" fill="#F3F8FA"/>
<path d="M189.189 134.491C189.201 134.479 189.211 134.465 189.217 134.449C189.223 134.434 189.226 134.417 189.225 134.4C189.225 134.385 189.223 134.37 189.217 134.356C189.212 134.342 189.203 134.329 189.193 134.318L188.921 134.036C188.912 134.027 188.902 134.02 188.89 134.015C188.9 134.01 188.908 134.004 188.916 133.997L189.187 133.715C189.21 133.692 189.224 133.663 189.227 133.631C189.228 133.614 189.226 133.598 189.22 133.582C189.214 133.566 189.205 133.553 189.193 133.541L188.921 133.27C188.91 133.257 188.896 133.247 188.881 133.241C188.865 133.234 188.849 133.231 188.832 133.232C188.798 133.234 188.767 133.249 188.744 133.274L188.472 133.545C188.46 133.556 188.451 133.57 188.444 133.585C188.438 133.6 188.435 133.616 188.436 133.632C188.437 133.663 188.45 133.692 188.472 133.713L188.75 133.994C188.76 134.003 188.77 134.01 188.782 134.016C188.77 134.022 188.76 134.03 188.75 134.039L188.479 134.31C188.456 134.333 188.443 134.363 188.441 134.394C188.44 134.411 188.443 134.428 188.45 134.443C188.457 134.458 188.467 134.472 188.479 134.483L188.75 134.754C188.762 134.766 188.775 134.776 188.791 134.782C188.807 134.788 188.823 134.79 188.84 134.788C188.871 134.786 188.9 134.774 188.924 134.754L189.189 134.491Z" fill="#F3F8FA"/>
<path d="M188.512 126.901V127.454C188.511 127.469 188.513 127.484 188.519 127.498C188.525 127.512 188.533 127.525 188.544 127.536C188.555 127.546 188.567 127.555 188.581 127.56C188.595 127.566 188.61 127.569 188.625 127.568H190.796C190.894 127.564 190.991 127.576 191.085 127.602C191.116 127.611 191.145 127.626 191.169 127.647C191.194 127.667 191.214 127.693 191.229 127.721C191.26 127.793 191.275 127.87 191.271 127.948V129.402V129.718V129.979C191.267 130.062 191.259 130.146 191.246 130.228C191.141 130.11 191.05 130.015 190.975 129.945C190.91 129.88 190.834 129.829 190.75 129.792C190.669 129.759 190.582 129.743 190.495 129.744C190.387 129.741 190.281 129.768 190.188 129.821C190.095 129.875 190.018 129.953 189.966 130.047C189.846 130.249 189.785 130.579 189.784 131.037C189.784 131.227 189.802 131.416 189.837 131.603C189.873 131.796 189.928 131.986 190.004 132.168C190.022 132.219 190.054 132.263 190.097 132.294C190.148 132.326 190.207 132.34 190.266 132.336H190.622C190.676 132.338 190.73 132.329 190.78 132.309C190.828 132.285 190.87 132.25 190.903 132.208L191.245 131.832L191.263 132.072L191.275 132.324C191.275 132.411 191.275 132.506 191.275 132.608V132.927C191.275 132.998 191.275 133.055 191.275 133.098L191.264 133.241C191.173 133.16 191.067 133.096 190.953 133.051C190.844 133.01 190.728 132.989 190.612 132.989C190.439 132.989 190.269 133.032 190.116 133.114C189.954 133.2 189.819 133.33 189.726 133.489C189.634 133.649 189.588 133.831 189.594 134.015C189.588 134.218 189.635 134.42 189.73 134.601C189.818 134.76 189.947 134.893 190.104 134.986C190.255 135.076 190.428 135.122 190.603 135.122C190.685 135.122 190.765 135.111 190.843 135.089C190.92 135.067 190.994 135.036 191.063 134.997C191.133 134.958 191.2 134.912 191.261 134.861L191.269 135.009V135.225C191.269 135.302 191.269 135.379 191.269 135.454V136.869V138.497C191.271 138.557 191.262 138.618 191.241 138.674C191.221 138.721 191.183 138.757 191.137 138.776C191.072 138.799 191.003 138.81 190.934 138.809H188.619C188.59 138.808 188.561 138.817 188.537 138.833C188.527 138.842 188.518 138.854 188.513 138.867C188.507 138.88 188.505 138.894 188.506 138.908V139.45C188.505 139.484 188.516 139.516 188.536 139.543C188.546 139.555 188.559 139.565 188.574 139.571C188.588 139.577 188.604 139.58 188.62 139.579H191.291C191.476 139.584 191.661 139.553 191.834 139.487C191.971 139.433 192.085 139.333 192.155 139.204C192.228 139.059 192.264 138.899 192.258 138.737V138.38V136.937V135.462C192.258 135.229 192.258 135.039 192.248 134.891C192.243 134.769 192.23 134.647 192.208 134.527C192.191 134.442 192.164 134.359 192.125 134.28C192.086 134.205 192.04 134.132 191.99 134.063C192.047 133.958 192.092 133.867 192.125 133.792C192.162 133.711 192.19 133.627 192.207 133.54C192.227 133.433 192.238 133.324 192.241 133.216C192.241 133.088 192.249 132.927 192.248 132.729V132.704V132.684C192.248 132.467 192.248 132.277 192.238 132.128C192.232 131.991 192.217 131.855 192.192 131.721C192.171 131.611 192.138 131.504 192.093 131.402C192.045 131.296 191.989 131.194 191.925 131.098C191.983 131.015 192.033 130.927 192.075 130.835C192.117 130.744 192.15 130.649 192.174 130.553C192.199 130.45 192.217 130.345 192.227 130.239C192.24 130.12 192.246 130 192.245 129.88V128.016C192.254 127.802 192.224 127.588 192.155 127.385C192.101 127.235 192.003 127.104 191.873 127.011C191.734 126.917 191.576 126.856 191.411 126.83C191.205 126.796 190.997 126.779 190.789 126.781H188.608C188.578 126.78 188.549 126.791 188.526 126.811C188.517 126.824 188.511 126.839 188.509 126.854C188.506 126.87 188.507 126.886 188.512 126.901ZM190.9 133.802C190.98 133.868 191.046 133.949 191.097 134.039C191.046 134.133 190.978 134.216 190.896 134.285C190.832 134.334 190.753 134.361 190.671 134.361C190.63 134.363 190.589 134.355 190.551 134.339C190.513 134.323 190.48 134.298 190.453 134.267C190.395 134.2 190.366 134.114 190.37 134.027C190.369 133.986 190.376 133.945 190.392 133.908C190.407 133.87 190.43 133.835 190.46 133.807C190.489 133.778 190.525 133.755 190.564 133.74C190.603 133.725 190.644 133.719 190.686 133.72C190.765 133.721 190.841 133.75 190.9 133.802ZM190.9 130.691C190.984 130.787 191.058 130.891 191.123 131.002L190.614 131.592C190.586 131.494 190.564 131.395 190.548 131.295C190.533 131.205 190.525 131.114 190.525 131.023C190.521 130.927 190.531 130.831 190.555 130.738C190.565 130.686 190.591 130.639 190.631 130.603C190.658 130.581 190.692 130.57 190.727 130.573C190.799 130.589 190.862 130.631 190.905 130.691H190.9Z" fill="#F3F8FA"/>
<path d="M188.509 125.338V125.887C188.508 125.918 188.519 125.947 188.54 125.969C188.551 125.98 188.564 125.988 188.578 125.993C188.592 125.999 188.608 126.001 188.623 126H192.128C192.143 126.001 192.158 125.998 192.172 125.993C192.186 125.987 192.199 125.978 192.21 125.968C192.22 125.957 192.229 125.944 192.234 125.93C192.24 125.916 192.243 125.901 192.242 125.886V125.337C192.243 125.321 192.241 125.306 192.235 125.292C192.229 125.277 192.221 125.265 192.21 125.254C192.187 125.234 192.158 125.223 192.128 125.224H188.621C188.591 125.223 188.562 125.234 188.54 125.254C188.529 125.265 188.521 125.278 188.515 125.293C188.51 125.307 188.508 125.323 188.509 125.338Z" fill="#F3F8FA"/>
<path d="M190.074 121.088C189.985 121.257 189.936 121.445 189.933 121.637C189.931 121.829 189.973 122.019 190.058 122.191C190.148 122.364 190.278 122.513 190.437 122.627C190.631 122.766 190.85 122.867 191.082 122.926C191.099 123.016 191.134 123.102 191.185 123.178C191.237 123.253 191.304 123.317 191.382 123.365C191.589 123.481 191.824 123.536 192.06 123.523H193.728C193.744 123.525 193.761 123.523 193.777 123.518C193.793 123.513 193.808 123.503 193.82 123.492C193.832 123.48 193.841 123.465 193.846 123.449C193.852 123.433 193.853 123.416 193.851 123.399V122.865C193.854 122.848 193.852 122.831 193.847 122.815C193.842 122.799 193.833 122.784 193.821 122.772C193.809 122.76 193.794 122.751 193.778 122.746C193.762 122.74 193.745 122.739 193.728 122.741H192.368C192.276 122.751 192.184 122.725 192.111 122.669C192.062 122.622 192.054 122.543 192.086 122.435L192.184 122.104C192.268 121.847 192.281 121.571 192.221 121.307C192.165 121.086 192.029 120.892 191.839 120.765C191.617 120.625 191.357 120.557 191.095 120.568C190.88 120.563 190.668 120.609 190.476 120.704C190.307 120.789 190.168 120.923 190.074 121.088ZM191.295 121.457C191.323 121.488 191.343 121.525 191.356 121.565C191.369 121.605 191.374 121.647 191.37 121.689C191.37 121.772 191.36 121.854 191.337 121.934C191.308 122.038 191.273 122.139 191.232 122.238C191.099 122.181 190.978 122.099 190.876 121.997C190.799 121.921 190.754 121.818 190.751 121.71C190.749 121.665 190.756 121.621 190.772 121.578C190.788 121.536 190.811 121.498 190.842 121.465C190.874 121.434 190.912 121.41 190.953 121.394C190.994 121.378 191.038 121.371 191.082 121.373C191.121 121.372 191.159 121.379 191.194 121.393C191.23 121.408 191.262 121.429 191.289 121.457H191.295Z" fill="#F3F8FA"/>
<path d="M189.888 113.18L189.123 114.348C189.094 114.388 189.076 114.435 189.072 114.484C189.073 114.509 189.081 114.534 189.096 114.554C189.11 114.575 189.13 114.592 189.153 114.602L189.619 114.908C189.646 114.925 189.677 114.935 189.709 114.936C189.728 114.935 189.746 114.93 189.762 114.921C189.779 114.912 189.792 114.899 189.802 114.883L189.849 114.811C189.862 114.923 189.896 115.031 189.948 115.131C190.015 115.261 190.117 115.37 190.242 115.446C190.367 115.521 190.511 115.561 190.658 115.56C190.738 115.56 190.818 115.548 190.895 115.523C190.966 115.5 191.033 115.468 191.096 115.428C191.151 115.392 191.201 115.349 191.246 115.302L191.256 115.56C191.256 115.648 191.256 115.747 191.256 115.855V117.3V118.928C191.258 118.989 191.248 119.05 191.226 119.107C191.217 119.13 191.202 119.151 191.185 119.168C191.167 119.185 191.146 119.199 191.123 119.207C191.058 119.232 190.989 119.243 190.919 119.24H188.605C188.576 119.24 188.547 119.249 188.524 119.266C188.513 119.274 188.504 119.286 188.498 119.298C188.493 119.311 188.49 119.325 188.491 119.339V119.887C188.49 119.92 188.5 119.952 188.521 119.978C188.531 119.991 188.544 120.001 188.558 120.007C188.573 120.014 188.589 120.017 188.605 120.016H191.276C191.461 120.022 191.646 119.99 191.819 119.924C191.956 119.87 192.07 119.77 192.14 119.642C192.214 119.497 192.249 119.337 192.244 119.175V115.919C192.244 115.678 192.235 115.481 192.22 115.325C192.211 115.195 192.182 115.067 192.135 114.945C192.093 114.845 192.028 114.757 191.945 114.687C192.04 114.516 192.114 114.334 192.165 114.145C192.211 113.974 192.234 113.799 192.235 113.622C192.239 113.401 192.182 113.183 192.071 112.992C191.965 112.812 191.813 112.664 191.63 112.563C191.44 112.457 191.225 112.403 191.008 112.407C190.787 112.405 190.572 112.474 190.394 112.604C190.192 112.763 190.021 112.959 189.888 113.18ZM190.911 114.435C190.981 114.495 191.04 114.567 191.086 114.647C191.041 114.73 190.982 114.804 190.911 114.868C190.857 114.914 190.788 114.94 190.716 114.94C190.679 114.941 190.641 114.934 190.607 114.919C190.573 114.905 190.542 114.883 190.517 114.855C190.464 114.797 190.436 114.721 190.439 114.643C190.438 114.605 190.444 114.568 190.458 114.533C190.472 114.499 190.494 114.468 190.521 114.442C190.576 114.391 190.65 114.363 190.725 114.366C190.794 114.367 190.859 114.391 190.911 114.435ZM191.265 113.35C191.299 113.384 191.325 113.425 191.342 113.47C191.359 113.515 191.366 113.563 191.363 113.611C191.363 113.663 191.36 113.714 191.354 113.765C191.347 113.815 191.334 113.864 191.316 113.911C191.298 113.959 191.278 114.008 191.255 114.056C191.179 113.961 191.081 113.885 190.97 113.837C190.861 113.792 190.744 113.77 190.626 113.77C190.58 113.771 190.535 113.779 190.491 113.793L190.59 113.637C190.646 113.534 190.72 113.442 190.81 113.366C190.871 113.312 190.948 113.279 191.029 113.271C191.072 113.266 191.116 113.27 191.157 113.284C191.198 113.298 191.236 113.321 191.267 113.351L191.265 113.35Z" fill="#F3F8FA"/>
<path d="M188.486 106.504V107.059C188.485 107.074 188.488 107.089 188.494 107.103C188.499 107.117 188.508 107.13 188.518 107.141C188.54 107.161 188.57 107.172 188.6 107.172H190.77C190.868 107.168 190.965 107.18 191.059 107.207C191.09 107.216 191.119 107.231 191.144 107.251C191.168 107.271 191.189 107.296 191.203 107.325C191.234 107.397 191.249 107.475 191.247 107.553V109.006C191.249 109.083 191.237 109.159 191.21 109.231C191.177 109.298 191.125 109.354 191.059 109.39C190.947 109.455 190.829 109.511 190.708 109.557L189.556 110.012C189.502 110.031 189.455 110.066 189.421 110.111C189.409 110.135 189.402 110.161 189.402 110.188C189.402 110.215 189.409 110.241 189.421 110.265L189.604 110.719C189.612 110.745 189.626 110.769 189.646 110.787C189.666 110.805 189.691 110.818 189.718 110.824C189.782 110.828 189.847 110.815 189.906 110.788L190.869 110.417C190.903 110.4 190.939 110.386 190.975 110.376C191.004 110.37 191.033 110.367 191.062 110.367C191.089 110.365 191.116 110.371 191.14 110.384C191.164 110.396 191.184 110.415 191.198 110.438C191.229 110.5 191.244 110.569 191.24 110.638V111.054C191.242 111.124 191.226 111.194 191.195 111.256C191.18 111.284 191.157 111.307 191.129 111.322C191.101 111.337 191.069 111.344 191.038 111.341H190.933C190.914 111.338 190.894 111.34 190.875 111.346C190.856 111.352 190.839 111.362 190.825 111.376C190.803 111.404 190.792 111.439 190.795 111.475V111.882C190.791 111.91 190.793 111.939 190.8 111.966C190.808 111.994 190.821 112.019 190.838 112.042C190.877 112.071 190.925 112.086 190.974 112.084H191.077C191.379 112.102 191.677 112.014 191.921 111.836C192.123 111.67 192.225 111.403 192.223 111.034V110.821C192.237 110.62 192.19 110.42 192.088 110.246C191.996 110.114 191.857 110.023 191.7 109.991C191.877 109.9 192.02 109.753 192.107 109.573C192.178 109.418 192.215 109.251 192.216 109.08V107.626C192.226 107.413 192.195 107.199 192.127 106.997C192.074 106.845 191.975 106.714 191.845 106.621C191.705 106.528 191.548 106.467 191.382 106.441C191.177 106.406 190.969 106.39 190.761 106.392H188.579C188.55 106.391 188.521 106.402 188.498 106.422C188.491 106.434 188.486 106.447 188.484 106.462C188.481 106.476 188.482 106.49 188.486 106.504Z" fill="#F3F8FA"/>
<path d="M188.516 104.858C188.505 104.868 188.496 104.882 188.49 104.896C188.485 104.911 188.482 104.926 188.483 104.942V105.491C188.482 105.521 188.494 105.55 188.514 105.572C188.525 105.583 188.538 105.592 188.552 105.597C188.567 105.603 188.582 105.606 188.597 105.605H192.102C192.118 105.606 192.133 105.604 192.147 105.598C192.162 105.593 192.174 105.585 192.185 105.574C192.196 105.563 192.204 105.55 192.21 105.536C192.215 105.522 192.217 105.506 192.216 105.491V104.948C192.218 104.933 192.215 104.917 192.21 104.903C192.204 104.888 192.195 104.875 192.184 104.864C192.162 104.844 192.132 104.833 192.102 104.834H188.596C188.567 104.832 188.539 104.841 188.516 104.858Z" fill="#F3F8FA"/>
<path d="M197.08 147.115L196.693 147.258C196.68 147.262 196.669 147.271 196.661 147.283C196.653 147.294 196.648 147.308 196.648 147.321V148.271C196.648 148.285 196.653 148.299 196.661 148.31C196.669 148.321 196.68 148.33 196.693 148.335L197.078 148.471C197.092 148.475 197.103 148.484 197.112 148.495C197.12 148.507 197.124 148.52 197.125 148.534V149.077C197.125 149.088 197.122 149.099 197.117 149.109C197.112 149.119 197.104 149.128 197.095 149.134C197.086 149.14 197.075 149.144 197.064 149.145C197.053 149.147 197.041 149.145 197.031 149.141L194.52 148.114C194.507 148.109 194.497 148.1 194.489 148.089C194.481 148.078 194.477 148.065 194.477 148.051V147.491C194.477 147.478 194.481 147.465 194.488 147.453C194.496 147.442 194.506 147.434 194.519 147.429L197.027 146.396C197.037 146.392 197.049 146.39 197.06 146.391C197.071 146.392 197.082 146.396 197.091 146.402C197.101 146.408 197.108 146.416 197.114 146.426C197.119 146.436 197.122 146.447 197.122 146.459V147.045C197.123 147.059 197.119 147.074 197.112 147.087C197.104 147.099 197.093 147.109 197.08 147.115ZM195.38 147.86L196.058 148.103C196.069 148.107 196.08 148.108 196.09 148.106C196.101 148.105 196.111 148.101 196.12 148.095C196.129 148.088 196.137 148.08 196.142 148.07C196.147 148.061 196.149 148.05 196.149 148.039V147.555C196.149 147.544 196.147 147.533 196.142 147.524C196.137 147.514 196.129 147.506 196.12 147.499C196.111 147.493 196.101 147.489 196.09 147.488C196.08 147.486 196.069 147.487 196.058 147.491L195.38 147.733C195.367 147.737 195.356 147.746 195.348 147.757C195.34 147.769 195.335 147.782 195.335 147.796C195.335 147.81 195.34 147.824 195.348 147.835C195.356 147.847 195.367 147.855 195.38 147.86Z" fill="#F3F8FA"/>
<path d="M197.054 145.86H194.544C194.535 145.86 194.526 145.859 194.518 145.855C194.509 145.852 194.502 145.847 194.495 145.84C194.489 145.834 194.484 145.826 194.48 145.818C194.477 145.809 194.475 145.8 194.475 145.791V145.232C194.475 145.214 194.482 145.197 194.495 145.184C194.508 145.172 194.525 145.164 194.543 145.164H196.403C196.421 145.164 196.438 145.157 196.451 145.145C196.463 145.132 196.471 145.115 196.471 145.097V144.192C196.471 144.174 196.478 144.157 196.491 144.144C196.504 144.132 196.521 144.124 196.538 144.124H197.053C197.062 144.124 197.071 144.125 197.079 144.129C197.087 144.132 197.095 144.137 197.101 144.143C197.108 144.15 197.113 144.157 197.117 144.165C197.12 144.174 197.122 144.183 197.122 144.192V145.798C197.12 145.815 197.113 145.831 197.1 145.842C197.088 145.854 197.071 145.86 197.054 145.86Z" fill="#F3F8FA"/>
<path d="M197.116 141.222V142.434C197.116 142.452 197.109 142.469 197.097 142.482C197.084 142.494 197.067 142.501 197.049 142.501H194.538C194.52 142.501 194.502 142.494 194.49 142.482C194.477 142.469 194.47 142.452 194.47 142.434V141.224C194.47 140.623 194.77 140.182 195.495 140.182H196.174C196.594 140.183 197.115 140.407 197.116 141.222ZM195.497 140.884C195.236 140.884 195.03 140.978 195.03 141.31V141.758C195.03 141.776 195.037 141.793 195.05 141.806C195.063 141.819 195.08 141.826 195.098 141.826H196.442C196.46 141.826 196.477 141.819 196.49 141.806C196.503 141.793 196.51 141.776 196.51 141.758V141.202C196.515 141.16 196.511 141.117 196.497 141.077C196.483 141.036 196.461 141 196.431 140.969C196.402 140.939 196.365 140.915 196.326 140.901C196.286 140.886 196.243 140.88 196.201 140.884H195.497Z" fill="#F3F8FA"/>
<path d="M197.112 138.484C197.112 138.493 197.111 138.502 197.107 138.511C197.104 138.519 197.099 138.527 197.093 138.533C197.087 138.54 197.079 138.545 197.071 138.548C197.062 138.552 197.053 138.554 197.044 138.554H196.947C197.061 138.73 197.133 138.931 197.158 139.14V139.275C197.158 139.411 197.061 139.84 196.504 139.841H196.334C196.092 139.841 195.723 139.726 195.723 139.146V138.672C195.723 138.654 195.716 138.636 195.703 138.624C195.69 138.611 195.673 138.604 195.655 138.604H195.553C195.542 138.603 195.53 138.605 195.519 138.609C195.508 138.613 195.498 138.619 195.49 138.627C195.482 138.635 195.475 138.645 195.47 138.655C195.466 138.666 195.464 138.678 195.464 138.689V139.469C195.464 139.487 195.457 139.505 195.444 139.517C195.431 139.53 195.414 139.537 195.396 139.537H195.011C195.002 139.537 194.993 139.535 194.985 139.532C194.976 139.528 194.969 139.523 194.962 139.517C194.956 139.51 194.951 139.503 194.948 139.494C194.944 139.486 194.943 139.477 194.943 139.468V138.437C194.936 138.373 194.944 138.308 194.965 138.247C194.987 138.186 195.021 138.131 195.067 138.085C195.112 138.039 195.167 138.003 195.228 137.981C195.289 137.959 195.354 137.951 195.418 137.957H197.046C197.064 137.957 197.081 137.964 197.094 137.977C197.106 137.989 197.114 138.007 197.114 138.025L197.112 138.484ZM196.221 138.598C196.203 138.598 196.186 138.606 196.173 138.618C196.16 138.631 196.153 138.648 196.153 138.666V139.159C196.152 139.17 196.154 139.182 196.158 139.193C196.161 139.204 196.168 139.214 196.176 139.223C196.184 139.231 196.194 139.238 196.204 139.242C196.215 139.247 196.227 139.249 196.239 139.248H196.464C196.487 139.249 196.51 139.245 196.531 139.236C196.553 139.228 196.572 139.215 196.589 139.199C196.605 139.182 196.618 139.163 196.626 139.141C196.635 139.119 196.638 139.096 196.637 139.073C196.633 138.929 196.609 138.786 196.566 138.649C196.562 138.634 196.553 138.621 196.542 138.612C196.53 138.603 196.515 138.597 196.5 138.597L196.221 138.598Z" fill="#F3F8FA"/>
<path d="M197.11 135.971C197.11 135.989 197.103 136.006 197.09 136.019C197.077 136.031 197.06 136.039 197.042 136.039H195.764C195.589 136.039 195.503 136.124 195.505 136.254C195.512 136.424 195.53 136.594 195.559 136.762C195.561 136.778 195.569 136.792 195.582 136.803C195.594 136.814 195.609 136.82 195.626 136.82H197.043C197.061 136.82 197.078 136.828 197.091 136.84C197.103 136.853 197.111 136.87 197.111 136.888V137.403C197.111 137.421 197.104 137.439 197.091 137.451C197.078 137.464 197.061 137.471 197.043 137.471H194.403C194.385 137.471 194.368 137.464 194.355 137.451C194.343 137.439 194.335 137.421 194.335 137.403V136.889C194.335 136.871 194.343 136.854 194.355 136.841C194.368 136.829 194.385 136.821 194.403 136.821H194.974C194.985 136.821 194.996 136.819 195.005 136.814C195.015 136.809 195.023 136.802 195.029 136.793C195.035 136.784 195.039 136.774 195.041 136.763C195.043 136.753 195.042 136.742 195.038 136.732C194.954 136.511 194.906 136.278 194.896 136.041C194.896 135.781 194.939 135.386 195.68 135.385H197.036C197.055 135.385 197.072 135.392 197.085 135.405C197.098 135.417 197.105 135.434 197.106 135.453L197.11 135.971Z" fill="#F3F8FA"/>
<path d="M197.107 133.7C197.107 133.709 197.105 133.718 197.102 133.726C197.099 133.735 197.094 133.742 197.088 133.749C197.081 133.755 197.074 133.76 197.065 133.764C197.057 133.767 197.048 133.769 197.039 133.769H196.941C197.049 133.97 197.152 134.116 197.153 134.297V134.432C197.153 134.568 197.054 134.997 196.498 134.998H196.328C196.085 134.998 195.718 134.883 195.716 134.303V133.829C195.716 133.811 195.709 133.793 195.697 133.781C195.684 133.768 195.667 133.761 195.649 133.761H195.545C195.534 133.76 195.522 133.762 195.511 133.766C195.5 133.77 195.49 133.776 195.482 133.784C195.474 133.792 195.467 133.802 195.462 133.812C195.458 133.823 195.456 133.835 195.456 133.846V134.626C195.456 134.644 195.449 134.662 195.436 134.674C195.423 134.687 195.406 134.694 195.388 134.694H195.004C194.995 134.694 194.986 134.693 194.978 134.689C194.969 134.686 194.962 134.681 194.955 134.675C194.949 134.668 194.944 134.661 194.94 134.653C194.937 134.644 194.935 134.635 194.935 134.626V133.595C194.928 133.531 194.936 133.466 194.957 133.405C194.979 133.344 195.014 133.288 195.059 133.242C195.105 133.196 195.16 133.161 195.221 133.139C195.282 133.117 195.347 133.109 195.411 133.115H197.039C197.057 133.115 197.074 133.122 197.087 133.135C197.1 133.148 197.107 133.165 197.107 133.183V133.7ZM196.216 133.755C196.207 133.755 196.198 133.757 196.189 133.76C196.181 133.764 196.173 133.768 196.167 133.775C196.16 133.781 196.155 133.789 196.152 133.797C196.148 133.805 196.146 133.814 196.146 133.823V134.316C196.145 134.327 196.147 134.339 196.151 134.35C196.155 134.361 196.161 134.371 196.169 134.38C196.177 134.388 196.187 134.395 196.198 134.399C196.209 134.404 196.22 134.406 196.232 134.405H196.456C196.479 134.406 196.502 134.402 196.524 134.393C196.545 134.385 196.565 134.372 196.581 134.356C196.598 134.339 196.61 134.32 196.619 134.298C196.627 134.277 196.631 134.253 196.631 134.23C196.626 134.086 196.601 133.943 196.559 133.806C196.555 133.791 196.546 133.778 196.534 133.769C196.522 133.759 196.508 133.754 196.492 133.754L196.216 133.755Z" fill="#F3F8FA"/>
<path d="M197.1 130.041C197.1 130.05 197.098 130.059 197.095 130.068C197.091 130.076 197.086 130.084 197.08 130.09C197.073 130.096 197.066 130.102 197.057 130.105C197.049 130.109 197.04 130.11 197.031 130.11H195.757C195.621 130.11 195.497 130.151 195.497 130.326C195.504 130.459 195.52 130.591 195.547 130.721C195.588 130.718 195.63 130.718 195.672 130.721H197.028C197.046 130.721 197.064 130.728 197.076 130.741C197.089 130.753 197.096 130.771 197.096 130.789V131.303C197.096 131.321 197.089 131.338 197.076 131.351C197.064 131.363 197.046 131.371 197.028 131.371H195.75C195.615 131.371 195.49 131.415 195.49 131.59C195.496 131.704 195.513 131.817 195.541 131.927C195.544 131.942 195.553 131.956 195.565 131.966C195.577 131.975 195.592 131.98 195.608 131.98H197.028C197.046 131.98 197.064 131.987 197.076 132C197.089 132.012 197.096 132.03 197.096 132.048V132.562C197.096 132.58 197.089 132.597 197.076 132.61C197.064 132.623 197.046 132.631 197.028 132.631H194.993C194.975 132.631 194.958 132.623 194.945 132.61C194.932 132.597 194.925 132.58 194.924 132.562V132.065L195.037 132.011C194.944 131.809 194.89 131.591 194.878 131.369C194.871 131.286 194.881 131.202 194.907 131.123C194.933 131.043 194.976 130.97 195.031 130.908C195.041 130.899 195.048 130.886 195.051 130.873C195.054 130.86 195.053 130.846 195.048 130.833C194.948 130.606 194.89 130.362 194.877 130.114C194.877 129.854 194.921 129.459 195.661 129.458H197.024C197.042 129.458 197.059 129.465 197.072 129.478C197.085 129.49 197.092 129.508 197.092 129.526L197.1 130.041Z" fill="#F3F8FA"/>
<path d="M197.055 125.992L196.377 126.399C196.367 126.405 196.359 126.413 196.353 126.424C196.347 126.434 196.344 126.445 196.344 126.457V126.62C196.344 126.638 196.351 126.655 196.364 126.668C196.377 126.68 196.394 126.688 196.412 126.688H197.017C197.035 126.688 197.052 126.695 197.065 126.707C197.078 126.72 197.085 126.737 197.085 126.755V127.27C197.085 127.288 197.078 127.305 197.065 127.318C197.052 127.33 197.035 127.337 197.017 127.337H194.508C194.49 127.337 194.472 127.33 194.46 127.318C194.447 127.305 194.44 127.288 194.44 127.27V126.06C194.44 125.624 194.659 125.202 195.309 125.202H195.48C195.642 125.192 195.802 125.234 195.938 125.32C196.075 125.407 196.181 125.534 196.241 125.684C196.245 125.693 196.251 125.7 196.258 125.707C196.266 125.713 196.274 125.718 196.283 125.721C196.293 125.723 196.303 125.724 196.312 125.723C196.322 125.721 196.331 125.718 196.339 125.712L196.981 125.298C196.991 125.292 197.003 125.288 197.015 125.288C197.027 125.288 197.039 125.29 197.05 125.296C197.061 125.302 197.07 125.311 197.076 125.321C197.083 125.331 197.086 125.343 197.086 125.355V125.928C197.088 125.94 197.085 125.953 197.08 125.964C197.074 125.975 197.066 125.985 197.055 125.992ZM195.477 125.871H195.324C195.283 125.871 195.241 125.879 195.203 125.895C195.164 125.911 195.129 125.934 195.1 125.964C195.07 125.993 195.047 126.028 195.031 126.067C195.015 126.105 195.007 126.147 195.007 126.188V126.624C195.007 126.642 195.014 126.659 195.027 126.672C195.039 126.685 195.057 126.692 195.075 126.692H195.76C195.778 126.691 195.795 126.684 195.807 126.671C195.82 126.659 195.827 126.642 195.827 126.624V126.217C195.833 126.169 195.827 126.121 195.811 126.076C195.794 126.031 195.768 125.99 195.734 125.957C195.7 125.923 195.659 125.898 195.613 125.882C195.568 125.867 195.52 125.862 195.472 125.868L195.477 125.871Z" fill="#F3F8FA"/>
<path d="M197.063 122.922C197.081 122.922 197.098 122.929 197.111 122.942C197.123 122.954 197.131 122.971 197.131 122.988C197.147 123.409 197.131 123.718 197.131 124.182C197.131 124.438 196.952 124.833 196.347 124.833H195.655C195.266 124.833 194.916 124.615 194.915 124.094V123.658C194.915 123.129 195.228 122.964 195.524 122.963H195.998C196.134 122.963 196.214 123.034 196.214 123.155V124.182H196.331C196.361 124.185 196.392 124.181 196.42 124.172C196.449 124.162 196.475 124.146 196.497 124.125C196.519 124.104 196.537 124.079 196.548 124.051C196.56 124.023 196.565 123.993 196.564 123.962C196.564 123.781 196.564 123.284 196.528 122.996C196.527 122.987 196.528 122.977 196.531 122.968C196.534 122.959 196.538 122.951 196.545 122.944C196.551 122.937 196.559 122.931 196.568 122.928C196.576 122.924 196.586 122.922 196.595 122.922H197.063ZM195.608 123.489C195.585 123.488 195.562 123.492 195.541 123.5C195.519 123.508 195.5 123.521 195.483 123.537C195.467 123.553 195.454 123.572 195.445 123.593C195.437 123.614 195.432 123.637 195.433 123.66V124.01C195.432 124.033 195.436 124.056 195.445 124.078C195.453 124.099 195.466 124.119 195.482 124.135C195.499 124.152 195.518 124.164 195.54 124.173C195.561 124.182 195.585 124.186 195.608 124.185H195.754C195.763 124.185 195.772 124.183 195.781 124.18C195.789 124.176 195.796 124.171 195.803 124.164C195.809 124.158 195.814 124.15 195.817 124.142C195.821 124.134 195.822 124.125 195.822 124.116V123.55C195.822 123.532 195.815 123.515 195.802 123.502C195.79 123.489 195.772 123.482 195.754 123.482L195.608 123.489Z" fill="#F3F8FA"/>
<path d="M197.082 121.257C197.082 121.275 197.075 121.293 197.062 121.305C197.05 121.318 197.033 121.325 197.015 121.325H196.917C197.024 121.527 197.127 121.705 197.127 121.884V122.02C197.127 122.155 197.028 122.585 196.472 122.585H196.302C196.059 122.585 195.692 122.47 195.69 121.891V121.417C195.69 121.399 195.683 121.382 195.671 121.369C195.658 121.356 195.641 121.349 195.623 121.348H195.52C195.508 121.347 195.496 121.349 195.485 121.353C195.475 121.356 195.465 121.362 195.456 121.37C195.448 121.378 195.441 121.388 195.436 121.399C195.432 121.409 195.43 121.421 195.43 121.432V122.212C195.43 122.23 195.423 122.248 195.41 122.26C195.397 122.273 195.38 122.28 195.362 122.28H194.978C194.96 122.28 194.943 122.273 194.93 122.26C194.917 122.248 194.909 122.231 194.909 122.212V121.181C194.902 121.117 194.91 121.052 194.931 120.991C194.953 120.93 194.988 120.875 195.033 120.829C195.078 120.783 195.133 120.748 195.194 120.726C195.255 120.704 195.32 120.695 195.384 120.701H197.012C197.03 120.701 197.047 120.708 197.06 120.721C197.072 120.734 197.08 120.751 197.08 120.769L197.082 121.257ZM196.19 121.343C196.172 121.343 196.154 121.35 196.142 121.363C196.129 121.375 196.122 121.393 196.122 121.411V121.903C196.121 121.915 196.122 121.927 196.126 121.938C196.13 121.949 196.136 121.959 196.144 121.968C196.152 121.976 196.162 121.983 196.173 121.987C196.184 121.991 196.196 121.993 196.207 121.993H196.431C196.454 121.993 196.477 121.989 196.499 121.981C196.521 121.972 196.54 121.959 196.557 121.943C196.573 121.927 196.586 121.907 196.594 121.885C196.603 121.864 196.607 121.841 196.606 121.818C196.601 121.674 196.577 121.531 196.534 121.393C196.53 121.378 196.522 121.366 196.51 121.357C196.498 121.347 196.483 121.343 196.468 121.343H196.19Z" fill="#F3F8FA"/>
<path d="M197.013 120.214H194.372C194.354 120.214 194.337 120.207 194.324 120.194C194.311 120.182 194.304 120.164 194.304 120.146V119.616C194.304 119.598 194.311 119.581 194.324 119.568C194.337 119.555 194.354 119.548 194.372 119.548H197.012C197.021 119.548 197.03 119.55 197.038 119.553C197.047 119.557 197.054 119.562 197.06 119.568C197.067 119.575 197.072 119.582 197.075 119.591C197.078 119.599 197.08 119.608 197.08 119.617V120.149C197.079 120.166 197.072 120.183 197.059 120.195C197.047 120.207 197.031 120.214 197.013 120.214Z" fill="#F3F8FA"/>
<path d="M195.99 116.71V115.76C195.99 115.751 195.989 115.743 195.985 115.734C195.982 115.726 195.977 115.718 195.97 115.712C195.964 115.706 195.956 115.701 195.948 115.697C195.939 115.694 195.93 115.692 195.921 115.693H195.514C195.496 115.693 195.479 115.7 195.467 115.713C195.454 115.726 195.447 115.743 195.446 115.76V116.71C195.446 116.728 195.439 116.745 195.427 116.758C195.414 116.771 195.397 116.778 195.379 116.778H195.075C195.057 116.778 195.039 116.77 195.027 116.757C195.014 116.744 195.007 116.727 195.007 116.709V115.63C195.007 115.612 195 115.595 194.987 115.582C194.974 115.57 194.957 115.562 194.939 115.562H194.501C194.483 115.562 194.466 115.57 194.453 115.582C194.44 115.595 194.433 115.612 194.433 115.63V117.348C194.433 117.366 194.441 117.383 194.454 117.396C194.467 117.408 194.484 117.416 194.502 117.416H197.012C197.03 117.416 197.047 117.408 197.06 117.396C197.073 117.383 197.08 117.366 197.08 117.348V115.584C197.08 115.575 197.078 115.566 197.075 115.558C197.071 115.55 197.066 115.542 197.059 115.536C197.053 115.529 197.045 115.524 197.037 115.521C197.029 115.518 197.02 115.516 197.011 115.516H196.528C196.51 115.517 196.492 115.524 196.48 115.537C196.467 115.55 196.46 115.567 196.46 115.585V116.705C196.46 116.723 196.453 116.74 196.44 116.753C196.427 116.765 196.41 116.773 196.392 116.773H196.062C196.045 116.773 196.027 116.767 196.014 116.756C196.001 116.744 195.992 116.728 195.99 116.71Z" fill="#F3F8FA"/>
<path d="M195.727 113.819V114.362C195.727 114.371 195.726 114.38 195.722 114.388C195.719 114.396 195.714 114.404 195.708 114.41C195.701 114.416 195.694 114.421 195.685 114.425C195.677 114.428 195.668 114.43 195.659 114.43H195.513C195.501 114.431 195.49 114.429 195.479 114.425C195.468 114.421 195.458 114.415 195.449 114.407C195.441 114.4 195.434 114.39 195.43 114.379C195.425 114.369 195.423 114.357 195.423 114.345V113.587C195.423 113.569 195.416 113.552 195.403 113.54C195.39 113.527 195.373 113.52 195.355 113.519H194.97C194.952 113.519 194.935 113.526 194.922 113.539C194.909 113.552 194.902 113.569 194.902 113.587V114.43C194.902 114.82 195.079 115.083 195.423 115.083H195.8C195.862 115.085 195.924 115.073 195.981 115.049C196.038 115.025 196.09 114.989 196.132 114.944C196.174 114.898 196.206 114.845 196.226 114.786C196.246 114.727 196.254 114.665 196.248 114.603V113.997H196.365C196.485 113.997 196.553 114.059 196.553 114.213C196.545 114.492 196.519 114.77 196.476 115.045C196.475 115.055 196.475 115.065 196.478 115.074C196.481 115.084 196.486 115.092 196.492 115.1C196.499 115.107 196.507 115.113 196.515 115.117C196.524 115.121 196.534 115.123 196.544 115.123H196.779H197.05C197.068 115.123 197.085 115.116 197.098 115.103C197.111 115.09 197.118 115.073 197.118 115.055V113.997C197.118 113.656 196.933 113.343 196.462 113.343H196.121C195.947 113.339 195.727 113.469 195.727 113.819Z" fill="#F3F8FA"/>
<path d="M196.505 111.864C196.505 112.034 196.376 112.08 196.201 112.08H195.533C195.515 112.08 195.498 112.073 195.485 112.06C195.472 112.047 195.464 112.03 195.464 112.012V111.498C195.464 111.48 195.457 111.463 195.444 111.45C195.432 111.437 195.414 111.43 195.396 111.43H194.968C194.949 111.43 194.932 111.437 194.919 111.45C194.906 111.463 194.898 111.481 194.898 111.499V112.019C194.898 112.037 194.891 112.054 194.878 112.066C194.866 112.079 194.848 112.086 194.831 112.087H194.622C194.604 112.087 194.586 112.094 194.573 112.106C194.56 112.119 194.553 112.136 194.552 112.154V112.67C194.552 112.688 194.56 112.705 194.572 112.718C194.585 112.731 194.602 112.738 194.62 112.738H194.829C194.848 112.738 194.865 112.745 194.878 112.758C194.891 112.771 194.898 112.789 194.898 112.807V112.93C194.898 112.948 194.906 112.966 194.918 112.978C194.931 112.991 194.948 112.998 194.966 112.998H195.395C195.404 112.998 195.413 112.996 195.421 112.993C195.43 112.989 195.437 112.984 195.443 112.978C195.45 112.972 195.455 112.964 195.458 112.955C195.461 112.947 195.463 112.938 195.463 112.929V112.806C195.463 112.788 195.47 112.77 195.483 112.758C195.495 112.745 195.513 112.738 195.531 112.738H196.328C196.908 112.738 197.114 112.369 197.112 112.073V111.415C197.112 111.397 197.105 111.379 197.092 111.366C197.079 111.353 197.062 111.346 197.043 111.346H196.772H196.534C196.525 111.346 196.515 111.348 196.506 111.352C196.498 111.356 196.49 111.361 196.483 111.369C196.477 111.376 196.472 111.384 196.469 111.393C196.466 111.403 196.465 111.412 196.467 111.422C196.486 111.556 196.505 111.762 196.505 111.864Z" fill="#F3F8FA"/>
<path d="M194.897 109.624V110.655C194.897 110.673 194.904 110.691 194.917 110.703C194.929 110.716 194.947 110.723 194.965 110.723H195.349C195.367 110.723 195.384 110.716 195.397 110.703C195.409 110.691 195.416 110.673 195.416 110.655V109.875C195.416 109.864 195.419 109.852 195.423 109.841C195.428 109.831 195.435 109.821 195.443 109.813C195.452 109.805 195.462 109.799 195.473 109.795C195.484 109.791 195.496 109.789 195.507 109.79H195.608C195.626 109.79 195.643 109.797 195.656 109.81C195.668 109.823 195.676 109.84 195.676 109.858V110.333C195.676 110.912 196.043 111.027 196.286 111.027H196.457C197.013 111.027 197.111 110.6 197.111 110.461V110.326C197.111 110.147 197.006 110.011 196.899 109.809H196.997C197.015 109.809 197.032 109.802 197.045 109.789C197.058 109.776 197.065 109.759 197.065 109.741V109.205C197.065 109.196 197.063 109.187 197.059 109.179C197.056 109.171 197.051 109.163 197.044 109.157C197.038 109.15 197.03 109.145 197.022 109.142C197.014 109.139 197.005 109.137 196.996 109.137H195.368C195.303 109.132 195.238 109.141 195.177 109.164C195.117 109.186 195.062 109.222 195.017 109.269C194.971 109.316 194.937 109.372 194.917 109.433C194.896 109.495 194.889 109.56 194.897 109.624ZM196.454 109.789C196.469 109.788 196.484 109.793 196.496 109.802C196.508 109.811 196.517 109.824 196.521 109.839C196.564 109.976 196.588 110.119 196.593 110.263C196.593 110.287 196.589 110.31 196.581 110.331C196.572 110.353 196.559 110.372 196.543 110.389C196.527 110.405 196.507 110.418 196.485 110.427C196.464 110.435 196.441 110.439 196.418 110.438H196.194C196.182 110.439 196.17 110.437 196.159 110.433C196.148 110.428 196.139 110.422 196.13 110.413C196.122 110.405 196.116 110.395 196.112 110.383C196.108 110.372 196.107 110.361 196.108 110.349V109.856C196.108 109.838 196.115 109.821 196.128 109.808C196.141 109.796 196.158 109.789 196.176 109.789H196.454Z" fill="#F3F8FA"/>
<path d="M196.5 107.647C196.5 107.817 196.365 107.862 196.195 107.862H195.528C195.51 107.862 195.493 107.855 195.48 107.842C195.467 107.83 195.46 107.812 195.46 107.794V107.279C195.46 107.261 195.453 107.244 195.44 107.231C195.427 107.218 195.41 107.211 195.392 107.211H194.963C194.954 107.211 194.945 107.212 194.937 107.216C194.929 107.219 194.921 107.224 194.915 107.23C194.908 107.237 194.903 107.244 194.9 107.253C194.896 107.261 194.894 107.27 194.894 107.279V107.793C194.894 107.811 194.887 107.828 194.874 107.841C194.862 107.854 194.844 107.861 194.826 107.861H194.618C194.609 107.861 194.6 107.862 194.591 107.866C194.583 107.869 194.575 107.874 194.569 107.88C194.562 107.887 194.557 107.894 194.554 107.902C194.55 107.911 194.548 107.92 194.548 107.929V108.443C194.548 108.461 194.555 108.478 194.568 108.491C194.581 108.504 194.598 108.511 194.616 108.511H194.825C194.834 108.51 194.843 108.512 194.851 108.515C194.86 108.519 194.867 108.524 194.874 108.53C194.88 108.536 194.885 108.544 194.889 108.552C194.892 108.561 194.894 108.569 194.894 108.578V108.702C194.894 108.72 194.901 108.737 194.914 108.75C194.927 108.763 194.944 108.77 194.962 108.77H195.391C195.409 108.77 195.426 108.763 195.439 108.75C195.451 108.737 195.459 108.72 195.459 108.702V108.577C195.459 108.559 195.466 108.542 195.479 108.53C195.492 108.517 195.509 108.51 195.526 108.509H196.324C196.903 108.509 197.11 108.142 197.108 107.845V107.187C197.108 107.169 197.101 107.151 197.088 107.139C197.076 107.126 197.058 107.119 197.04 107.119H196.769H196.532C196.522 107.119 196.512 107.121 196.504 107.125C196.495 107.129 196.487 107.134 196.481 107.141C196.474 107.149 196.469 107.157 196.466 107.166C196.464 107.176 196.463 107.185 196.464 107.195C196.48 107.339 196.499 107.542 196.5 107.647Z" fill="#F3F8FA"/>
<path d="M196.542 105.907C196.544 105.938 196.538 105.968 196.527 105.996C196.515 106.024 196.498 106.05 196.476 106.07C196.454 106.091 196.427 106.107 196.399 106.117C196.37 106.127 196.339 106.13 196.309 106.127H196.192V105.1C196.192 104.98 196.116 104.908 195.977 104.908H195.502C195.206 104.908 194.891 105.075 194.893 105.604V106.039C194.893 106.559 195.244 106.778 195.635 106.777H196.325C196.93 106.777 197.109 106.381 197.109 106.126C197.109 105.661 197.126 105.351 197.109 104.932C197.108 104.914 197.101 104.898 197.088 104.885C197.075 104.873 197.058 104.866 197.04 104.866H196.574C196.564 104.866 196.555 104.868 196.546 104.871C196.538 104.875 196.53 104.881 196.524 104.888C196.517 104.895 196.513 104.903 196.51 104.912C196.507 104.921 196.506 104.931 196.507 104.94C196.538 105.236 196.542 105.727 196.542 105.907ZM195.593 106.129C195.57 106.129 195.547 106.125 195.525 106.117C195.503 106.108 195.484 106.095 195.467 106.079C195.451 106.063 195.438 106.043 195.43 106.021C195.421 106 195.417 105.977 195.418 105.954V105.604C195.418 105.581 195.422 105.558 195.431 105.537C195.44 105.516 195.453 105.497 195.469 105.481C195.485 105.465 195.505 105.453 195.526 105.445C195.547 105.437 195.57 105.433 195.593 105.434H195.741C195.75 105.434 195.759 105.436 195.767 105.439C195.775 105.443 195.783 105.448 195.789 105.454C195.795 105.461 195.8 105.468 195.804 105.477C195.807 105.485 195.809 105.494 195.809 105.503V106.062C195.808 106.08 195.801 106.098 195.788 106.11C195.775 106.123 195.757 106.13 195.739 106.13L195.593 106.129Z" fill="#F3F8FA"/>
<path d="M185.722 158.217C185.709 158.394 185.701 158.573 185.701 158.76V164.811H199.701V162.397H198.185V163.291H187.224V158.76C187.222 158.344 187.268 157.929 187.36 157.523L185.722 158.217Z" fill="#F3F8FA"/>
<path d="M199.697 159.605V158.753C199.697 158.534 199.684 158.317 199.664 158.102H191.932L190.553 159.605H199.697Z" fill="#F3F8FA"/>
<path d="M199.699 161.712V160.209H189.998L188.62 161.712H199.699Z" fill="#F3F8FA"/>
<path d="M192.281 151.767C190.733 151.861 189.26 152.466 188.093 153.488C186.926 154.509 186.13 155.888 185.831 157.41V157.435L187.641 156.662C187.828 156.21 188.075 155.785 188.375 155.399C189.09 154.551 190.04 153.934 191.105 153.626C192.171 153.317 193.304 153.331 194.361 153.666C194.77 153.797 195.167 153.962 195.547 154.161C195.78 154.285 196.006 154.421 196.225 154.568C196.688 154.957 197.084 155.419 197.397 155.936H193.926L192.547 157.439H199.572C199.483 156.974 199.346 156.519 199.165 156.082C198.639 154.826 197.761 153.748 196.636 152.98C195.594 152.268 194.378 151.853 193.119 151.779C192.983 151.771 192.847 151.766 192.701 151.766C192.554 151.766 192.42 151.759 192.281 151.767Z" fill="#F3F8FA"/>
<defs>
<linearGradient id="paint0_linear_325_302" x1="196.096" y1="170.352" x2="181.259" y2="181.04" gradientUnits="userSpaceOnUse">
<stop stop-color="#513A13"/>
<stop offset="1" stop-color="#7B6C3B" stop-opacity="0"/>
</linearGradient>
</defs>
</svg>
