<svg width="1598" height="790" viewBox="0 0 1598 790" fill="none" xmlns="http://www.w3.org/2000/svg">
<path d="M297.344 518.679H297.531V495.105L219.769 411.49V437.689H219.585V789H297.344V518.679Z" fill="#C1986D" fill-opacity="0.07"/>
<path d="M184.708 437.274V396.618V390.125L106.945 288.461V396.618V437.274V788.999H184.708V437.274Z" fill="#C1986D" fill-opacity="0.07"/>
<path d="M75.7229 433.361V277.918V271.426L-2 169.716V277.918V433.361V789H75.7229V433.361Z" fill="#C1986D" fill-opacity="0.07"/>
<path d="M347.059 789H339.418V379.674H339.602V361.487L264.24 280.405V302.736H264.02V789H256.379V293.205H256.603V259.593L347.243 357.113V389.205H347.059V789Z" fill="#C1986D" fill-opacity="0.07"/>
<path d="M226.782 789H219.142V249.141L143.78 150.562V789H136.139V126.758L226.782 245.32V789Z" fill="#C1986D" fill-opacity="0.07"/>
<path d="M110.452 788.999H102.811V122.383L27.4132 23.8044V788.999H19.8121V0L110.452 118.562V788.999Z" fill="#C1986D" fill-opacity="0.07"/>
<path d="M1298.66 518.679H1298.47V495.105L1376.23 411.49V437.689H1376.42V789H1298.66V518.679Z" fill="#C1986D" fill-opacity="0.07"/>
<path d="M1411.29 437.274V396.618V390.125L1489.05 288.461V396.618V437.274V788.999H1411.29V437.274Z" fill="#C1986D" fill-opacity="0.07"/>
<path d="M1520.28 433.361V277.918V271.426L1598 169.716V277.918V433.361V789H1520.28V433.361Z" fill="#C1986D" fill-opacity="0.07"/>
<path d="M1248.94 789H1256.58V379.674H1256.4V361.487L1331.76 280.405V302.736H1331.98V789H1339.62V293.205H1339.4V259.593L1248.76 357.113V389.205H1248.94V789Z" fill="#C1986D" fill-opacity="0.07"/>
<path d="M1369.22 789H1376.86V249.141L1452.22 150.562V789H1459.86V126.758L1369.22 245.32V789Z" fill="#C1986D" fill-opacity="0.07"/>
<path d="M1485.55 788.999H1493.19V122.383L1568.59 23.8044V788.999H1576.19V0L1485.55 118.562V788.999Z" fill="#C1986D" fill-opacity="0.07"/>
<path d="M714.344 572.749H714.531V553.853L636.769 486.831V507.831H636.585V789.425H714.344V572.749Z" fill="#C1986D" fill-opacity="0.07"/>
<path d="M601.708 507.498V474.91V469.706L523.945 388.217V474.91V507.498V789.424H601.708V507.498Z" fill="#C1986D" fill-opacity="0.07"/>
<path d="M492.723 504.362V379.766V374.563L415 293.037V379.766V504.362V789.425H492.723V504.362Z" fill="#C1986D" fill-opacity="0.07"/>
<path d="M764.059 789.425H756.418V461.329H756.602V446.751L681.24 381.759V399.659H681.02V789.425H673.379V392.019H673.603V365.078L764.243 443.245V468.968H764.059V789.425Z" fill="#C1986D" fill-opacity="0.07"/>
<path d="M643.782 789.425H636.142V356.7L560.78 277.684V789.425H553.139V258.603L643.782 353.636V789.425Z" fill="#C1986D" fill-opacity="0.07"/>
<path d="M527.452 789.425H519.811V255.097L444.413 176.08V789.425H436.812V157L527.452 252.033V789.425Z" fill="#C1986D" fill-opacity="0.07"/>
<path d="M881.656 572.749H881.469V553.853L959.231 486.831V507.831H959.415V789.425H881.656V572.749Z" fill="#C1986D" fill-opacity="0.07"/>
<path d="M994.292 507.498V474.91V469.706L1072.05 388.217V474.91V507.498V789.424H994.292V507.498Z" fill="#C1986D" fill-opacity="0.07"/>
<path d="M1103.28 504.362V379.766V374.563L1181 293.037V379.766V504.362V789.425H1103.28V504.362Z" fill="#C1986D" fill-opacity="0.07"/>
<path d="M831.941 789.425H839.582V461.329H839.398V446.751L914.76 381.759V399.659H914.98V789.425H922.62V392.019H922.397V365.078L831.757 443.245V468.968H831.941V789.425Z" fill="#C1986D" fill-opacity="0.07"/>
<path d="M952.218 789.425H959.858V356.7L1035.22 277.684V789.425H1042.86V258.603L952.218 353.636V789.425Z" fill="#C1986D" fill-opacity="0.07"/>
<path d="M1068.55 789.425H1076.19V255.097L1151.59 176.08V789.425H1159.19V157L1068.55 252.033V789.425Z" fill="#C1986D" fill-opacity="0.07"/>
</svg>
