<svg width="16" height="17" viewBox="0 0 16 17" fill="none" xmlns="http://www.w3.org/2000/svg">
<path d="M3.85185 5.01556H4.07704V5.41259C4.07626 5.5197 4.09668 5.62591 4.13713 5.72509C4.17758 5.82428 4.23725 5.91448 4.31272 5.99049C4.38818 6.06651 4.47795 6.12684 4.57683 6.16801C4.67572 6.20918 4.78177 6.23037 4.88889 6.23037C5.00117 6.2285 5.11196 6.20432 5.21482 6.15926C5.27925 6.28313 5.37615 6.38717 5.49514 6.46023C5.61413 6.5333 5.75074 6.57265 5.89037 6.57407H5.96148C6.16846 6.57252 6.36652 6.48961 6.51288 6.34325C6.65924 6.19689 6.74215 5.99883 6.7437 5.79185V5.53704H9.2563V5.79185C9.25785 5.99883 9.34076 6.19689 9.48712 6.34325C9.63348 6.48961 9.83154 6.57252 10.0385 6.57407H10.1096C10.2493 6.57265 10.3859 6.5333 10.5049 6.46023C10.6239 6.38717 10.7207 6.28313 10.7852 6.15926C10.888 6.20432 10.9988 6.2285 11.1111 6.23037C11.2182 6.23037 11.3243 6.20918 11.4232 6.16801C11.5221 6.12684 11.6118 6.06651 11.6873 5.99049C11.7627 5.91448 11.8224 5.82428 11.8629 5.72509C11.9033 5.62591 11.9237 5.5197 11.923 5.41259V5.01556H12.1481C12.2267 5.01556 12.3021 4.98434 12.3577 4.92877C12.4132 4.87321 12.4444 4.79784 12.4444 4.71926C12.4444 4.64068 12.4132 4.56531 12.3577 4.50975C12.3021 4.45418 12.2267 4.42296 12.1481 4.42296H11.923V4.03185C11.9237 3.92474 11.9033 3.81853 11.8629 3.71935C11.8224 3.62017 11.7627 3.52997 11.6873 3.45395C11.6118 3.37793 11.5221 3.3176 11.4232 3.27643C11.3243 3.23527 11.2182 3.21407 11.1111 3.21407C10.9988 3.21595 10.888 3.24012 10.7852 3.28519C10.7207 3.16131 10.6239 3.05728 10.5049 2.98421C10.3859 2.91115 10.2493 2.8718 10.1096 2.87037H10.0385C9.83154 2.87192 9.63348 2.95483 9.48712 3.10119C9.34076 3.24755 9.25785 3.44561 9.2563 3.65259V3.90741H6.7437V3.65259C6.74215 3.44561 6.65924 3.24755 6.51288 3.10119C6.36652 2.95483 6.16846 2.87192 5.96148 2.87037H5.89037C5.75074 2.8718 5.61413 2.91115 5.49514 2.98421C5.37615 3.05728 5.27925 3.16131 5.21482 3.28519C5.11196 3.24012 5.00117 3.21595 4.88889 3.21407C4.78177 3.21407 4.67572 3.23527 4.57683 3.27643C4.47795 3.3176 4.38818 3.37793 4.31272 3.45395C4.23725 3.52997 4.17758 3.62017 4.13713 3.71935C4.09668 3.81853 4.07626 3.92474 4.07704 4.03185V4.42296H3.85185C3.77327 4.42296 3.6979 4.45418 3.64234 4.50975C3.58677 4.56531 3.55556 4.64068 3.55556 4.71926C3.55556 4.79784 3.58677 4.87321 3.64234 4.92877C3.6979 4.98434 3.77327 5.01556 3.85185 5.01556ZM11.1111 3.83037C11.1404 3.83036 11.1694 3.83622 11.1964 3.84761C11.2234 3.859 11.2478 3.87568 11.2683 3.89667C11.2887 3.91766 11.3047 3.94254 11.3154 3.96983C11.3261 3.99712 11.3312 4.02627 11.3304 4.05556V5.4363C11.3304 5.49445 11.3073 5.55022 11.2662 5.59134C11.225 5.63246 11.1693 5.65556 11.1111 5.65556C11.053 5.65556 10.9972 5.63246 10.9561 5.59134C10.915 5.55022 10.8919 5.49445 10.8919 5.4363V4.03185C10.8911 4.00256 10.8961 3.97341 10.9068 3.94612C10.9175 3.91883 10.9335 3.89396 10.9539 3.87297C10.9744 3.85198 10.9988 3.83529 11.0258 3.82391C11.0528 3.81252 11.0818 3.80666 11.1111 3.80667V3.83037ZM9.84889 3.6763C9.84889 3.65139 9.85379 3.62673 9.86332 3.60373C9.87285 3.58072 9.88682 3.55982 9.90443 3.54221C9.92204 3.5246 9.94294 3.51063 9.96595 3.5011C9.98896 3.49157 10.0136 3.48667 10.0385 3.48667H10.1096C10.1599 3.48667 10.2082 3.50665 10.2437 3.54221C10.2793 3.57777 10.2993 3.626 10.2993 3.6763V5.81556C10.2993 5.86585 10.2793 5.91408 10.2437 5.94964C10.2082 5.98521 10.1599 6.00519 10.1096 6.00519H10.0385C10.0136 6.00519 9.98896 6.00028 9.96595 5.99075C9.94294 5.98122 9.92204 5.96725 9.90443 5.94964C9.88682 5.93203 9.87285 5.91113 9.86332 5.88812C9.85379 5.86512 9.84889 5.84046 9.84889 5.81556V3.6763ZM9.2563 4.5237V4.94444H6.7437V4.5L9.2563 4.5237ZM5.70074 3.6763C5.70074 3.65139 5.70565 3.62673 5.71518 3.60373C5.72471 3.58072 5.73867 3.55982 5.75628 3.54221C5.77389 3.5246 5.7948 3.51063 5.8178 3.5011C5.84081 3.49157 5.86547 3.48667 5.89037 3.48667H5.96148C6.01177 3.48667 6.06001 3.50665 6.09557 3.54221C6.13113 3.57777 6.15111 3.626 6.15111 3.6763V5.81556C6.15111 5.86585 6.13113 5.91408 6.09557 5.94964C6.06001 5.98521 6.01177 6.00519 5.96148 6.00519H5.89037C5.86547 6.00519 5.84081 6.00028 5.8178 5.99075C5.7948 5.98122 5.77389 5.96725 5.75628 5.94964C5.73867 5.93203 5.72471 5.91113 5.71518 5.88812C5.70565 5.86512 5.70074 5.84046 5.70074 5.81556V3.65259V3.6763ZM4.66963 4.05556C4.66963 3.9974 4.69273 3.94164 4.73385 3.90052C4.77497 3.8594 4.83074 3.8363 4.88889 3.8363C4.94704 3.8363 5.00281 3.8594 5.04393 3.90052C5.08505 3.94164 5.10815 3.9974 5.10815 4.05556V5.4363C5.10815 5.49445 5.08505 5.55022 5.04393 5.59134C5.00281 5.63246 4.94704 5.65556 4.88889 5.65556C4.83074 5.65556 4.77497 5.63246 4.73385 5.59134C4.69273 5.55022 4.66963 5.49445 4.66963 5.4363V4.05556ZM15.7037 2.27778C15.7823 2.27778 15.8577 2.24656 15.9132 2.19099C15.9688 2.13543 16 2.06006 16 1.98148V1.38889C16 1.15314 15.9063 0.927049 15.7396 0.76035C15.573 0.593651 15.3469 0.5 15.1111 0.5H0.888889C0.653141 0.5 0.427049 0.593651 0.26035 0.76035C0.0936506 0.927049 0 1.15314 0 1.38889V1.98148C0 2.06006 0.0312169 2.13543 0.0867832 2.19099C0.14235 2.24656 0.217714 2.27778 0.296296 2.27778H0.592593V7.01852H0.296296C0.217714 7.01852 0.14235 7.04974 0.0867832 7.1053C0.0312169 7.16087 0 7.23623 0 7.31482V8.5C0 8.57858 0.0312169 8.65395 0.0867832 8.70951C0.14235 8.76508 0.217714 8.7963 0.296296 8.7963H0.592593V14.7222H0.296296C0.217714 14.7222 0.14235 14.7534 0.0867832 14.809C0.0312169 14.8646 0 14.9399 0 15.0185V16.2037C0 16.2823 0.0312169 16.3577 0.0867832 16.4132C0.14235 16.4688 0.217714 16.5 0.296296 16.5H15.7037C15.7823 16.5 15.8577 16.4688 15.9132 16.4132C15.9688 16.3577 16 16.2823 16 16.2037V15.0185C16 14.9399 15.9688 14.8646 15.9132 14.809C15.8577 14.7534 15.7823 14.7222 15.7037 14.7222H15.4074V8.7963H15.7037C15.7823 8.7963 15.8577 8.76508 15.9132 8.70951C15.9688 8.65395 16 8.57858 16 8.5V7.31482C16 7.23623 15.9688 7.16087 15.9132 7.1053C15.8577 7.04974 15.7823 7.01852 15.7037 7.01852H15.4074V2.27778H15.7037ZM0.592593 1.38889C0.592593 1.31031 0.62381 1.23494 0.679376 1.17938C0.734942 1.12381 0.810306 1.09259 0.888889 1.09259H15.1111C15.1897 1.09259 15.2651 1.12381 15.3206 1.17938C15.3762 1.23494 15.4074 1.31031 15.4074 1.38889V1.68519H0.592593V1.38889ZM1.77778 8.7963V11.1667H1.18519V8.7963H1.77778ZM2.96296 8.7963V9.21111C2.96433 9.3943 3.02189 9.57265 3.12787 9.72207C3.23384 9.8715 3.38313 9.9848 3.55556 10.0467V13.4719C3.38313 13.5337 3.23384 13.647 3.12787 13.7964C3.02189 13.9459 2.96433 14.1242 2.96296 14.3074V14.7222H2.37037V8.7963H2.96296ZM10.0741 8.7963V9.21111C10.0754 9.3943 10.133 9.57265 10.239 9.72207C10.345 9.8715 10.4942 9.9848 10.6667 10.0467V13.4719C10.4942 13.5337 10.345 13.647 10.239 13.7964C10.133 13.9459 10.0754 14.1242 10.0741 14.3074V14.7222H9.48148V12.0556C9.48148 11.8198 9.38783 11.5937 9.22113 11.427C9.05443 11.2603 8.82834 11.1667 8.59259 11.1667H7.40741C7.17166 11.1667 6.94557 11.2603 6.77887 11.427C6.61217 11.5937 6.51852 11.8198 6.51852 12.0556V14.7222H5.92593V14.3074C5.92456 14.1242 5.867 13.9459 5.76102 13.7964C5.65505 13.647 5.50576 13.5337 5.33333 13.4719V10.0467C5.50576 9.9848 5.65505 9.8715 5.76102 9.72207C5.867 9.57265 5.92456 9.3943 5.92593 9.21111V8.7963H10.0741ZM13.6296 8.7963V14.7222H13.037V14.3074C13.0357 14.1242 12.9781 13.9459 12.8721 13.7964C12.7662 13.647 12.6169 13.5337 12.4444 13.4719V10.0467C12.6169 9.9848 12.7662 9.8715 12.8721 9.72207C12.9781 9.57265 13.0357 9.3943 13.037 9.21111V8.7963H13.6296ZM11.8519 10.1V13.4185H11.2593V10.1H11.8519ZM10.963 14.0111H12.1481C12.2267 14.0111 12.3021 14.0423 12.3577 14.0979C12.4132 14.1535 12.4444 14.2288 12.4444 14.3074V14.7222H10.6667V14.3074C10.6667 14.2288 10.6979 14.1535 10.7534 14.0979C10.809 14.0423 10.8844 14.0111 10.963 14.0111ZM12.4444 9.21111C12.4444 9.28969 12.4132 9.36506 12.3577 9.42062C12.3021 9.47619 12.2267 9.50741 12.1481 9.50741H10.963C10.8844 9.50741 10.809 9.47619 10.7534 9.42062C10.6979 9.36506 10.6667 9.28969 10.6667 9.21111V8.7963H12.4444V9.21111ZM8.88889 14.7222H7.11111V12.0556C7.11111 11.977 7.14233 11.9016 7.19789 11.846C7.25346 11.7905 7.32882 11.7593 7.40741 11.7593H8.59259C8.67118 11.7593 8.74654 11.7905 8.80211 11.846C8.85767 11.9016 8.88889 11.977 8.88889 12.0556V14.7222ZM4.74074 10.1V13.4185H4.14815V10.1H4.74074ZM3.85185 14.0111H5.03704C5.11562 14.0111 5.19098 14.0423 5.24655 14.0979C5.30212 14.1535 5.33333 14.2288 5.33333 14.3074V14.7222H3.55556V14.3074C3.55556 14.2288 3.58677 14.1535 3.64234 14.0979C3.6979 14.0423 3.77327 14.0111 3.85185 14.0111ZM5.33333 9.21111C5.33333 9.28969 5.30212 9.36506 5.24655 9.42062C5.19098 9.47619 5.11562 9.50741 5.03704 9.50741H3.85185C3.77327 9.50741 3.6979 9.47619 3.64234 9.42062C3.58677 9.36506 3.55556 9.28969 3.55556 9.21111V8.7963H5.33333V9.21111ZM1.18519 11.7593H1.77778V14.7222H1.18519V11.7593ZM15.4074 15.9074H0.592593V15.3148H15.4074V15.9074ZM14.2222 14.7222V11.7593H14.8148V14.7222H14.2222ZM14.8148 11.1667H14.2222V8.7963H14.8148V11.1667ZM15.4074 8.2037H0.592593V7.61111H15.4074V8.2037ZM14.8148 7.01852H1.18519V2.27778H14.8148V7.01852Z" fill="#777777"/>
</svg>
