<svg width="16" height="15" viewBox="0 0 16 15" fill="none" xmlns="http://www.w3.org/2000/svg">
<path d="M15.7812 5.23234H15.083L15.1728 5.01459C15.2744 4.7693 15.301 4.49933 15.249 4.23894C15.1969 3.97855 15.0687 3.73949 14.8806 3.55209L14.2618 2.93309V2.18009C14.2618 2.12207 14.2387 2.06643 14.1977 2.02541C14.1567 1.98438 14.101 1.96134 14.043 1.96134C13.985 1.96134 13.9293 1.98438 13.8883 2.02541C13.8473 2.06643 13.8243 2.12207 13.8243 2.18009V2.93321L13.2052 3.55221C13.0171 3.73961 12.8889 3.97868 12.8369 4.23907C12.7849 4.49945 12.8114 4.76942 12.9131 5.01471L13.0029 5.23246H12.3048C12.2467 5.23246 12.1911 5.25551 12.1501 5.29653C12.109 5.33756 12.086 5.3932 12.086 5.45121V6.75021C12.086 6.80823 12.109 6.86387 12.1501 6.90489C12.1911 6.94592 12.2467 6.96896 12.3048 6.96896H12.8125V8.38321H11.8438V7.55509C11.8437 7.49708 11.8207 7.44146 11.7796 7.40044C11.7386 7.35943 11.683 7.33637 11.625 7.33634H11.1625C11.4528 6.89985 11.6028 6.38515 11.5927 5.86107C11.5825 5.33698 11.4126 4.82849 11.1056 4.40359C10.5927 3.69068 9.87173 3.15399 9.04163 2.86721L8.80062 2.78096C8.89891 2.56822 8.94561 2.33529 8.93692 2.1011C8.92823 1.86692 8.8644 1.63809 8.75062 1.43321L8.19088 0.432337C8.1719 0.39837 8.14421 0.37008 8.11066 0.350387C8.07711 0.330695 8.03891 0.320312 8 0.320312C7.96109 0.320312 7.92289 0.330695 7.88934 0.350387C7.85579 0.37008 7.82809 0.39837 7.80912 0.432337L7.24925 1.43321C7.13547 1.63809 7.07164 1.86692 7.06296 2.1011C7.05427 2.33529 7.10097 2.56822 7.19925 2.78096L6.95825 2.86721C6.12833 3.15408 5.40753 3.69076 4.89475 4.40359C4.58775 4.82846 4.41778 5.33693 4.40754 5.86101C4.39731 6.38509 4.54732 6.89981 4.8375 7.33634H4.375C4.31699 7.33637 4.26137 7.35943 4.22036 7.40044C4.17934 7.44146 4.15628 7.49708 4.15625 7.55509V8.38321H3.1875V6.96921H3.69537C3.72412 6.9692 3.75258 6.96352 3.77913 6.9525C3.80567 6.94149 3.82979 6.92535 3.85011 6.90502C3.87042 6.88468 3.88653 6.86054 3.89751 6.83398C3.9085 6.80742 3.91414 6.77896 3.91412 6.75021V5.45021C3.91409 5.39221 3.89103 5.33659 3.85002 5.29557C3.809 5.25455 3.75338 5.23149 3.69537 5.23146H2.997L3.08687 5.01371C3.18855 4.76842 3.21506 4.49846 3.16305 4.23807C3.11104 3.97769 2.98285 3.73862 2.79475 3.55121L2.17575 2.93221V2.18009C2.17575 2.12207 2.1527 2.06643 2.11168 2.02541C2.07066 1.98438 2.01502 1.96134 1.957 1.96134C1.89898 1.96134 1.84334 1.98438 1.80232 2.02541C1.7613 2.06643 1.73825 2.12207 1.73825 2.18009V2.93321L1.11937 3.55221C0.931259 3.73961 0.80306 3.97868 0.751049 4.23907C0.699038 4.49945 0.725561 4.76942 0.82725 5.01471L0.917 5.23246H0.21875C0.160766 5.2325 0.105164 5.25554 0.0641511 5.29653C0.0231383 5.33751 6.62205e-05 5.3931 0 5.45109L0 6.75021C3.31179e-05 6.80822 0.0230906 6.86384 0.064107 6.90486C0.105123 6.94587 0.160744 6.96893 0.21875 6.96896H0.726625V14.4611C0.726625 14.5191 0.749672 14.5747 0.790695 14.6158C0.831719 14.6568 0.887359 14.6798 0.945375 14.6798H15.0546C15.1126 14.6798 15.1683 14.6568 15.2093 14.6158C15.2503 14.5747 15.2734 14.5191 15.2734 14.4611V6.96921H15.7812C15.81 6.9692 15.8385 6.96352 15.865 6.9525C15.8915 6.94149 15.9157 6.92535 15.936 6.90502C15.9563 6.88468 15.9724 6.86054 15.9834 6.83398C15.9944 6.80742 16 6.77896 16 6.75021V5.45021C15.9997 5.39236 15.9766 5.33696 15.9356 5.29613C15.8946 5.25531 15.8391 5.23237 15.7812 5.23234ZM13.3175 4.84784C13.249 4.6824 13.2311 4.50035 13.2662 4.32477C13.3013 4.14918 13.3878 3.98797 13.5146 3.86159L14.043 3.33321L14.5714 3.86159C14.6982 3.98797 14.7847 4.14919 14.8197 4.32478C14.8548 4.50037 14.8369 4.68242 14.7684 4.84784L14.6097 5.23234H13.4761L13.3175 4.84784ZM7.63112 1.64671L8 0.987712L8.36887 1.64721C8.4525 1.79754 8.49792 1.96611 8.50112 2.13811C8.50432 2.3101 8.46522 2.48025 8.38725 2.63359L8.07362 2.52109C8.02601 2.50409 7.97399 2.50409 7.92637 2.52109L7.61275 2.63359C7.53469 2.48019 7.49554 2.30995 7.49875 2.13786C7.50195 1.96577 7.54741 1.7971 7.63112 1.64671ZM5.25413 4.65309C5.71483 4.01514 6.36154 3.53526 7.10563 3.27921L8 2.95921L8.89437 3.27921C9.63846 3.53526 10.2852 4.01514 10.7459 4.65309C11.0302 5.0491 11.1725 5.52947 11.1498 6.01644C11.1271 6.50341 10.9408 6.96847 10.6209 7.33634H5.37937C5.05945 6.9685 4.87303 6.50346 4.8503 6.01649C4.82757 5.52952 4.96986 5.04913 5.25413 4.65309ZM4.59375 7.77384H11.4062V8.38321H4.59375V7.77384ZM1.23162 4.84784C1.16306 4.68242 1.14519 4.50037 1.18026 4.32478C1.21534 4.14919 1.30178 3.98797 1.42862 3.86159L1.957 3.33321L2.48537 3.86159C2.61222 3.98797 2.69866 4.14919 2.73374 4.32478C2.76881 4.50037 2.75094 4.68242 2.68237 4.84784L2.52387 5.23234H1.39025L1.23162 4.84784ZM0.4375 5.66984H3.47662V6.53234H0.4375V5.66984ZM1.16412 6.96984H2.75V14.2432H1.16412V6.96984ZM3.1875 8.82071H12.8125V14.2426H12.4019V12.5907C12.4015 12.374 12.3569 12.1597 12.2707 11.9609C12.1845 11.7621 12.0586 11.583 11.9006 11.4346L11.4207 10.9852C11.3802 10.9473 11.3268 10.9262 11.2712 10.9262C11.2157 10.9262 11.1623 10.9473 11.1217 10.9852L10.6419 11.4346C10.4839 11.583 10.358 11.7621 10.2718 11.9609C10.1856 12.1597 10.141 12.374 10.1406 12.5907V14.2426H9.55475V11.721C9.55427 11.4174 9.49173 11.1171 9.37097 10.8386C9.25021 10.5601 9.07377 10.3092 8.8525 10.1013L8.15 9.44309C8.10947 9.40514 8.05602 9.38403 8.0005 9.38403C7.94498 9.38403 7.89153 9.40514 7.851 9.44309L7.1475 10.1013C6.92625 10.3092 6.74983 10.5601 6.62909 10.8386C6.50835 11.1171 6.44583 11.4174 6.44537 11.721V14.2426H5.85938V12.5907C5.85902 12.374 5.81438 12.1597 5.72818 11.9609C5.64198 11.7621 5.51605 11.583 5.35813 11.4346L4.87825 10.9852C4.83769 10.9473 4.78426 10.9262 4.72875 10.9262C4.67324 10.9262 4.61981 10.9473 4.57925 10.9852L4.1 11.4346C3.94207 11.583 3.81614 11.7621 3.72994 11.9609C3.64375 12.1597 3.5991 12.374 3.59875 12.5907V14.2426H3.1875V8.82071ZM4.03562 14.2426V12.5907C4.0358 12.4339 4.06805 12.2788 4.13039 12.1349C4.19273 11.991 4.28384 11.8613 4.39813 11.754L4.72837 11.4446L5.05863 11.754C5.17291 11.8613 5.26402 11.991 5.32636 12.1349C5.3887 12.2788 5.42095 12.4339 5.42112 12.5907V14.2426H4.03562ZM6.88287 14.2426V11.721C6.88326 11.4773 6.93345 11.2363 7.03038 11.0127C7.1273 10.7892 7.26891 10.5878 7.4465 10.421L8 9.90246L8.5535 10.4207C8.73111 10.5875 8.87274 10.7889 8.96969 11.0125C9.06664 11.236 9.11685 11.477 9.11725 11.7207V14.2423L6.88287 14.2426ZM10.5781 14.2426V12.5907C10.5783 12.4339 10.6106 12.2788 10.6729 12.1349C10.7352 11.991 10.8263 11.8613 10.9406 11.754L11.2709 11.4446L11.6012 11.754C11.7155 11.8613 11.8066 11.991 11.869 12.1349C11.9313 12.2788 11.9636 12.4339 11.9637 12.5907V14.2426H10.5781ZM14.8359 14.2426H13.25V6.96921H14.8359V14.2426ZM15.5625 6.53171H12.5234V5.66921H15.5625V6.53171Z" fill="#777777"/>
<path d="M8.70482 3.80867C8.65011 3.78912 8.58989 3.79211 8.53739 3.81697C8.48489 3.84183 8.44442 3.88653 8.42488 3.94123C8.40533 3.99593 8.40832 4.05615 8.43318 4.10865C8.45804 4.16115 8.50274 4.20162 8.55744 4.22117C9.10564 4.40632 9.58326 4.75632 9.92494 5.22329C9.94136 5.24689 9.96226 5.26702 9.98645 5.28254C10.0106 5.29806 10.0377 5.30866 10.066 5.31374C10.0943 5.31882 10.1233 5.31827 10.1513 5.31214C10.1794 5.306 10.206 5.29439 10.2296 5.27798C10.2532 5.26156 10.2734 5.24066 10.2889 5.21647C10.3044 5.19227 10.315 5.16525 10.3201 5.13696C10.3252 5.10867 10.3246 5.07965 10.3185 5.05157C10.3123 5.02349 10.3007 4.99689 10.2843 4.97329C9.89049 4.43151 9.3388 4.02474 8.70482 3.80867Z" fill="#777777"/>
</svg>
