<svg width="83" height="90" viewBox="0 0 83 90" fill="none" xmlns="http://www.w3.org/2000/svg">
<rect width="83" height="90" fill="#1E1E1E"/>
<g id="Home Page" clip-path="url(#clip0_1_2)">
<rect width="1600" height="7756" transform="translate(-1287 -1593)" fill="#F3F8FA"/>
<g id="Group 24143">
<g id="Group 24141">
<g id="Frame 4">
<g id="Group 24138">
<g id="Group 24133">
<g id="Group 9">
<path id="Vector" d="M20 19.0836V89.0725H33.0361C36.3989 89.0725 39.7202 88.9756 43 88.8141V4.07251L20 6.06081V19.0836Z" fill="#083D5C"/>
<path id="Vector_2" d="M4 37.3306V77.0044V89.0725H20V77.0044V37.3306V6.57251L4 1.07251V37.3306Z" fill="#083D5C"/>
<path id="Vector_3" d="M9.684 9.61839V13.8006L0.043335 10.5756V0.0725098L9.684 9.61839Z" fill="url(#paint0_linear_1_2)"/>
<path id="Vector_4" d="M82.9718 42.6504C82.3075 32.7925 78.0427 23.4122 70.8456 15.9792C63.6486 8.54618 52.725 1.97748 42 0.0725098H41.8279L46 11.1297C49.1845 12.3213 54.6562 15.8622 57.3788 17.7721C63.3532 22.3263 67.7011 28.3772 69.8738 35.1616C72.0466 41.9459 71.9469 49.1597 69.5873 55.8929C68.6676 58.4958 67.5 61.0219 66.0978 63.4427C65.2286 64.9281 64.2711 66.3699 63.2297 67.7619C60.4908 70.7092 73.407 58.4197 76.5 61.5725L67.5 14.0725L43.0001 4.3435V88.8102C46.2764 88.2435 49.4799 87.6374 52.5604 86.481C61.4162 83.1337 69.0102 77.5413 74.4249 70.3793C79.4384 63.7431 82.3628 56.0012 82.8858 47.9802C82.9432 47.1164 82.9814 46.2526 82.9814 45.3196C82.9814 44.3867 83.0292 43.5315 82.9718 42.6504Z" fill="#083D5C"/>
<path id="Vector_5" d="M42 0.0725098C40.879 -0.0137222 39.6494 0.0811224 38.4594 0.0811224H0V89.0725H15.3407V79.4404H9.65804V9.76498H38.4594C41.1051 9.75248 43.7436 10.0418 46.3238 10.6273L42 0.0725098Z" fill="#C1986D"/>
<path id="Vector_6" d="M9.5 10.0363V15.0363L0 11.5124V0.0362549L9.5 10.0363Z" fill="url(#paint1_linear_1_2)"/>
</g>
<g id="Group 750">
<path id="Vector_7" d="M64.8068 46.2279C64.3871 45.7567 54.2185 34.8224 41.4434 34.8224C28.661 34.8224 18.4998 45.7567 18.0728 46.2279C17.8151 46.5077 17.8151 46.9348 18.0728 47.2219C18.4998 47.6858 28.661 58.6274 41.4434 58.6274C54.2185 58.6274 64.3871 47.6858 64.8068 47.2219C65.0644 46.9348 65.0644 46.5077 64.8068 46.2279ZM41.4434 57.1548C30.8258 57.1548 21.7985 48.8638 19.6411 46.7212C21.7912 44.5859 30.8184 36.2949 41.4434 36.2949C52.0538 36.2949 61.0883 44.5859 63.2383 46.7212C61.0883 48.8639 52.0685 57.1548 41.4434 57.1548Z" fill="#E2CBAF"/>
<path id="Vector_8" d="M41.4438 38.0986C36.6872 38.0986 32.8142 41.9643 32.8142 46.7209C32.8142 51.4775 36.6872 55.3431 41.4438 55.3431C46.1931 55.3431 50.0661 51.4775 50.0661 46.7209C50.0662 41.9643 46.1931 38.0986 41.4438 38.0986ZM41.4438 53.8705C37.4972 53.8705 34.2869 50.6675 34.2869 46.7209C34.2869 42.7815 37.4972 39.5713 41.4438 39.5713C45.3832 39.5713 48.5934 42.7816 48.5934 46.7209C48.5935 50.6675 45.3832 53.8705 41.4438 53.8705Z" fill="#E2CBAF"/>
<path id="Vector_9" d="M41.4432 39.5713C37.4966 39.5713 34.2863 42.7816 34.2863 46.7209C34.2863 50.6675 37.4966 53.8705 41.4432 53.8705C45.3826 53.8705 48.5928 50.6675 48.5928 46.7209C48.5929 42.7815 45.3826 39.5713 41.4432 39.5713ZM46.0305 47.4572C45.6255 47.4572 45.2943 47.1258 45.2943 46.7209C45.2943 44.6003 43.5639 42.8699 41.4433 42.8699C41.031 42.8699 40.707 42.5387 40.707 42.1337C40.707 41.7287 41.0311 41.3974 41.4433 41.3974C44.3813 41.3974 46.7669 43.783 46.7669 46.721C46.7668 47.1259 46.4355 47.4572 46.0305 47.4572ZM40.5803 23.7725V29.231C40.5803 29.6376 40.9096 29.9672 41.3165 29.9672C41.7235 29.9672 42.0528 29.6375 42.0528 29.231V23.7725C42.0528 23.3659 41.7235 23.0363 41.3165 23.0363C40.9096 23.0363 40.5803 23.3659 40.5803 23.7725ZM42.0529 69.3001V63.8417C42.0529 63.435 41.7236 63.1054 41.3166 63.1054C40.9097 63.1054 40.5804 63.4351 40.5804 63.8417V69.3C40.5804 69.7066 40.9097 70.0363 41.3166 70.0363C41.7236 70.0363 42.0529 69.7067 42.0529 69.3001ZM56.8921 29.9194L53.0329 33.779C52.7453 34.0666 52.7453 34.5326 53.0329 34.8202C53.3206 35.1078 53.7865 35.1078 54.0741 34.8202L57.9333 30.9606C58.2209 30.673 58.2209 30.2071 57.9333 29.9194C57.6457 29.6318 57.1798 29.6318 56.8921 29.9194ZM25.741 63.1536L29.6002 59.2937C29.6686 59.2253 29.7229 59.1442 29.7599 59.0549C29.7969 58.9655 29.8159 58.8698 29.8159 58.7731C29.8159 58.6764 29.7969 58.5807 29.7599 58.4913C29.7229 58.402 29.6686 58.3209 29.6002 58.2525C29.5319 58.1841 29.4507 58.1299 29.3614 58.0929C29.2721 58.0558 29.1763 58.0368 29.0796 58.0368C28.9829 58.0368 28.8872 58.0558 28.7979 58.0929C28.7086 58.1299 28.6274 58.1841 28.559 58.2525L24.6999 62.1124C24.6315 62.1807 24.5772 62.2619 24.5402 62.3512C24.5032 62.4405 24.4841 62.5363 24.4841 62.633C24.4841 62.7297 24.5032 62.8254 24.5402 62.9147C24.5772 63.0041 24.6315 63.0852 24.6999 63.1536C24.7682 63.222 24.8494 63.2762 24.9387 63.3132C25.028 63.3502 25.1238 63.3693 25.2204 63.3693C25.3171 63.3693 25.4129 63.3502 25.5022 63.3132C25.5915 63.2762 25.6727 63.222 25.741 63.1536ZM57.9333 63.1536C58.0017 63.0852 58.0559 63.0041 58.093 62.9147C58.13 62.8254 58.149 62.7297 58.149 62.633C58.149 62.5363 58.13 62.4405 58.093 62.3512C58.0559 62.2619 58.0017 62.1807 57.9333 62.1124L54.0741 58.2525C54.0058 58.1841 53.9246 58.1299 53.8353 58.0929C53.746 58.0558 53.6502 58.0368 53.5535 58.0368C53.4568 58.0368 53.3611 58.0558 53.2718 58.0929C53.1824 58.1299 53.1013 58.1841 53.0329 58.2525C52.9646 58.3209 52.9103 58.402 52.8733 58.4913C52.8363 58.5807 52.8172 58.6764 52.8172 58.7731C52.8172 58.8698 52.8363 58.9655 52.8733 59.0549C52.9103 59.1442 52.9646 59.2253 53.0329 59.2937L56.8921 63.1536C56.9605 63.222 57.0416 63.2762 57.131 63.3132C57.2203 63.3502 57.316 63.3693 57.4127 63.3693C57.5094 63.3693 57.6051 63.3502 57.6945 63.3132C57.7838 63.2762 57.865 63.222 57.9333 63.1536ZM24.6999 29.9194C24.6315 29.9878 24.5772 30.0689 24.5402 30.1583C24.5032 30.2476 24.4841 30.3433 24.4841 30.44C24.4841 30.5367 24.5032 30.6325 24.5402 30.7218C24.5772 30.8111 24.6315 30.8923 24.6999 30.9606L28.559 34.8202C28.7029 34.964 28.8912 35.0359 29.0796 35.0359C29.268 35.0359 29.4565 34.9639 29.6002 34.8202C29.6686 34.7518 29.7229 34.6707 29.7599 34.5814C29.7969 34.492 29.8159 34.3963 29.8159 34.2996C29.8159 34.2029 29.7969 34.1072 29.7599 34.0178C29.7229 33.9285 29.6686 33.8474 29.6002 33.779L25.741 29.9194C25.6727 29.851 25.5915 29.7968 25.5022 29.7598C25.4129 29.7228 25.3171 29.7037 25.2204 29.7037C25.1238 29.7037 25.028 29.7228 24.9387 29.7598C24.8494 29.7968 24.7682 29.851 24.6999 29.9194Z" fill="#E2CBAF"/>
</g>
</g>
</g>
</g>
</g>
</g>
</g>
<defs>
<linearGradient id="paint0_linear_1_2" x1="7.45923" y1="3.05613" x2="3.30285" y2="9.27343" gradientUnits="userSpaceOnUse">
<stop stop-color="#513A13"/>
<stop offset="1" stop-color="#7B6C3B" stop-opacity="0"/>
</linearGradient>
<linearGradient id="paint1_linear_1_2" x1="7.69231" y1="3.29631" x2="3.06507" y2="9.86714" gradientUnits="userSpaceOnUse">
<stop stop-color="#513A13"/>
<stop offset="1" stop-color="#7B6C3B" stop-opacity="0"/>
</linearGradient>
<clipPath id="clip0_1_2">
<rect width="1600" height="7756" fill="white" transform="translate(-1287 -1593)"/>
</clipPath>
</defs>
</svg>
