<svg width="83" height="90" viewBox="0 0 83 90" fill="none" xmlns="http://www.w3.org/2000/svg">
<path d="M20 19.0474V89.0363H33.0361C36.3989 89.0363 39.7202 88.9393 43 88.7778V4.03625L20 6.02456V19.0474Z" fill="#083D5C"/>
<path d="M4 37.2943V76.9682V89.0363H20V76.9682V37.2943V6.53625L4 1.03625V37.2943Z" fill="#083D5C"/>
<path d="M9.684 9.58213V13.7644L0.043335 10.5393V0.0362549L9.684 9.58213Z" fill="url(#paint0_linear_13_2832)"/>
<path d="M82.9718 42.6142C82.3075 32.7563 78.0427 23.376 70.8456 15.943C63.6486 8.50993 52.725 1.94122 42 0.0362549H41.8279L46 11.0934C49.1845 12.2851 54.6562 15.826 57.3788 17.7359C63.3532 22.29 67.7011 28.341 69.8738 35.1253C72.0466 41.9096 71.9469 49.1234 69.5873 55.8566C68.6676 58.4596 67.5 60.9856 66.0978 63.4065C65.2286 64.8918 64.2711 66.3336 63.2297 67.7256C60.4908 70.6729 73.407 58.3834 76.5 61.5363L67.5 14.0363L43.0001 4.30725V88.774C46.2764 88.2072 49.4799 87.6012 52.5604 86.4448C61.4162 83.0975 69.0102 77.5051 74.4249 70.343C79.4384 63.7068 82.3628 55.9649 82.8858 47.944C82.9432 47.0801 82.9814 46.2163 82.9814 45.2834C82.9814 44.3504 83.0292 43.4953 82.9718 42.6142Z" fill="#083D5C"/>
<path d="M42 0.0362549C40.879 -0.049977 39.6494 0.0448675 38.4594 0.0448675H0V89.0362H15.3407V79.4041H9.65804V9.72872H38.4594C41.1051 9.71623 43.7436 10.0055 46.3238 10.591L42 0.0362549Z" fill="#C1986D"/>
<path d="M9.5 10V15L0 11.4761V0L9.5 10Z" fill="url(#paint1_linear_13_2832)"/>
<path d="M53.615 47.7492C53.328 50.5297 52.0951 53.1277 50.1222 55.1092C48.1493 57.0908 45.5559 58.336 42.775 58.6369C42.719 58.6362 42.6634 58.6468 42.6116 58.6679C42.5597 58.689 42.5126 58.7202 42.473 58.7598C42.4334 58.7994 42.4021 58.8465 42.381 58.8983C42.3599 58.9501 42.3493 59.0057 42.35 59.0616V68.1506C42.35 68.3759 42.2604 68.5919 42.101 68.7512C41.9416 68.9105 41.7254 69 41.5 69C41.2746 69 41.0584 68.9105 40.899 68.7512C40.7396 68.5919 40.65 68.3759 40.65 68.1506V64.8528C40.6419 64.7428 40.5945 64.6394 40.5165 64.5614C40.4385 64.4835 40.335 64.4361 40.225 64.428C36.4446 64.1223 32.8587 62.6258 29.9835 60.1539C27.1083 57.6819 25.0921 54.3621 24.225 50.6722C24.1927 50.5629 24.1828 50.4482 24.1958 50.335C24.2088 50.2217 24.2445 50.1123 24.3007 50.0131C24.357 49.9139 24.4326 49.8271 24.5231 49.7577C24.6136 49.6884 24.7172 49.6379 24.8276 49.6094C24.9381 49.5809 25.0531 49.5749 25.1659 49.5918C25.2787 49.6086 25.387 49.648 25.4843 49.7075C25.5815 49.7671 25.6658 49.8455 25.7321 49.9383C25.7983 50.0311 25.8452 50.1362 25.87 50.2475C26.6408 53.5596 28.4382 56.5441 31.006 58.7754C33.5737 61.0068 36.7807 62.3712 40.17 62.6742C40.28 62.7292 40.385 62.6742 40.49 62.5693C40.5455 62.538 40.5904 62.4908 40.6189 62.4338C40.6474 62.3769 40.6582 62.3127 40.65 62.2495V59.0616C40.6507 59.0057 40.6401 58.9501 40.619 58.8983C40.5979 58.8465 40.5666 58.7994 40.527 58.7598C40.4874 58.7202 40.4403 58.689 40.3884 58.6679C40.3366 58.6468 40.281 58.6362 40.225 58.6369C37.4574 58.3288 34.8747 57.0964 32.895 55.1392C30.9157 53.1513 29.68 50.544 29.395 47.7542C29.3788 47.6521 29.3275 47.5588 29.2499 47.4904C29.1724 47.422 29.0734 47.3828 28.97 47.3794H19.875C19.6429 47.3794 19.4204 47.2873 19.2563 47.1233C19.0922 46.9593 19 46.7369 19 46.505C19 46.2731 19.0922 46.0507 19.2563 45.8867C19.4204 45.7227 19.6429 45.6306 19.875 45.6306H23.33C23.4331 45.6263 23.5316 45.5867 23.609 45.5185C23.6863 45.4502 23.7379 45.3575 23.755 45.2558C23.9819 41.4835 25.3844 37.8768 27.766 34.9412C30.1475 32.0057 33.3887 29.8886 37.035 28.8867C37.2558 28.8449 37.4843 28.889 37.6736 29.0101C37.8629 29.1312 37.9986 29.3201 38.053 29.538C38.1073 29.756 38.0762 29.9864 37.9659 30.1822C37.8557 30.3779 37.6747 30.524 37.46 30.5906C34.1978 31.4697 31.2918 33.3449 29.1476 35.9543C27.0034 38.5637 25.7282 41.7772 25.5 45.1459C25.4859 45.208 25.4865 45.2724 25.5016 45.3343C25.5168 45.3961 25.5462 45.4535 25.5874 45.502C25.6287 45.5505 25.6807 45.5887 25.7392 45.6136C25.7978 45.6385 25.8614 45.6495 25.925 45.6456H28.95C29.0534 45.6422 29.1524 45.6029 29.2299 45.5346C29.3075 45.4662 29.3588 45.3729 29.375 45.2708C29.6581 42.4852 30.8906 39.8814 32.8658 37.8956C34.8411 35.9098 37.4392 34.6627 40.225 34.3631C40.281 34.3638 40.3366 34.3532 40.3884 34.3321C40.4403 34.311 40.4874 34.2798 40.527 34.2402C40.5666 34.2006 40.5979 34.1535 40.619 34.1017C40.6401 34.0499 40.6507 33.9943 40.65 33.9384V24.8494C40.65 24.6242 40.7396 24.4081 40.899 24.2488C41.0584 24.0895 41.2746 24 41.5 24C41.7254 24 41.9416 24.0895 42.101 24.2488C42.2604 24.4081 42.35 24.6242 42.35 24.8494V35.1576C42.3557 35.2778 42.3362 35.398 42.2927 35.5103C42.2493 35.6226 42.1828 35.7246 42.0976 35.8097C42.0124 35.8949 41.9104 35.9613 41.798 36.0047C41.6856 36.0482 41.5654 36.0677 41.445 36.062C32.2 36.062 27.58 47.3744 34.115 53.9101C40.65 60.4457 51.805 55.7688 51.965 46.5C51.9637 46.3881 51.9847 46.277 52.027 46.1734C52.0692 46.0697 52.1318 45.9755 52.211 45.8964C52.2902 45.8172 52.3844 45.7547 52.4881 45.7125C52.5919 45.6703 52.703 45.6492 52.815 45.6506H63.125C63.3571 45.6506 63.5796 45.7427 63.7437 45.9067C63.9078 46.0707 64 46.2931 64 46.525C64 46.7569 63.9078 46.9793 63.7437 47.1433C63.5796 47.3073 63.3571 47.3994 63.125 47.3994H59.725C59.6195 47.3952 59.5164 47.4318 59.4373 47.5016C59.3581 47.5714 59.3089 47.669 59.3 47.7741C59.0241 51.57 57.5551 55.1816 55.1029 58.0935C52.6506 61.0053 49.3405 63.0685 45.645 63.9883C44.53 64.2532 44.145 62.5543 45.27 62.2895C48.5702 61.4695 51.5299 59.6355 53.732 57.0458C55.9341 54.4561 57.2677 51.2412 57.545 47.8541C57.5591 47.792 57.5585 47.7275 57.5434 47.6657C57.5282 47.6039 57.4988 47.5465 57.4576 47.498C57.4163 47.4495 57.3644 47.4113 57.3058 47.3864C57.2472 47.3615 57.1836 47.3505 57.12 47.3544H54.04C53.9366 47.3578 53.8376 47.3971 53.7601 47.4654C53.6825 47.5338 53.6312 47.6271 53.615 47.7292V47.7492ZM60.5 33.6186L54.355 39.7245C54.2048 39.8874 53.9964 39.9844 53.775 39.9943H49.68C49.5682 40.0041 49.4603 40.0401 49.365 40.0993L42.085 47.4294C41.9213 47.5822 41.7047 47.6656 41.4807 47.6621C41.2567 47.6585 41.0428 47.5682 40.8841 47.4102C40.7253 47.2523 40.6341 47.0389 40.6296 46.8151C40.6251 46.5912 40.7077 46.3744 40.86 46.2102L48.14 38.8751C48.189 38.8506 48.23 38.8127 48.2583 38.7658C48.2866 38.7189 48.3011 38.665 48.3 38.6103V34.508C48.299 34.3898 48.3219 34.2727 48.3675 34.1636C48.413 34.0545 48.4802 33.9558 48.565 33.8734L54.675 27.7725C54.793 27.645 54.9466 27.556 55.116 27.5171C55.2853 27.4781 55.4624 27.491 55.6243 27.5541C55.7862 27.6172 55.9253 27.7275 56.0235 27.8708C56.1217 28.014 56.1745 28.1835 56.175 28.3571V31.7049C56.1821 31.8152 56.2291 31.9192 56.3073 31.9973C56.3856 32.0755 56.4896 32.1225 56.6 32.1296H59.895C60.0708 32.125 60.2438 32.1734 60.3916 32.2685C60.5395 32.3636 60.6552 32.501 60.7237 32.6628C60.7922 32.8246 60.8104 33.0033 60.7759 33.1755C60.7413 33.3478 60.6556 33.5057 60.53 33.6286L60.5 33.6186ZM53.5 38.1156L57.06 34.558C57.1219 34.5009 57.1656 34.4269 57.1857 34.3451C57.2059 34.2634 57.2016 34.1776 57.1733 34.0983C57.1451 34.019 57.0942 33.9498 57.027 33.8991C56.9597 33.8485 56.879 33.8187 56.795 33.8135H55.295C55.0628 33.8189 54.8377 33.7329 54.6684 33.5739C54.4991 33.415 54.3991 33.196 54.39 32.964V31.51C54.3896 31.4239 54.3639 31.3399 54.3162 31.2683C54.2684 31.1967 54.2007 31.1406 54.1214 31.1071C54.042 31.0736 53.9546 31.0641 53.87 31.0798C53.7853 31.0954 53.7071 31.1356 53.645 31.1952L50.145 34.7528C50.0516 34.8342 49.9941 34.9491 49.985 35.0726V37.8358C49.9843 37.8917 49.9949 37.9473 50.016 37.9991C50.0371 38.0509 50.0684 38.098 50.108 38.1376C50.1476 38.1772 50.1947 38.2084 50.2466 38.2295C50.2984 38.2506 50.354 38.2612 50.41 38.2605H53.225C53.335 38.2605 53.44 38.2605 53.49 38.1506L53.5 38.1156ZM48.72 46.51C48.722 47.9386 48.2998 49.3358 47.5069 50.5246C46.714 51.7133 45.586 52.6403 44.2657 53.1882C42.9454 53.736 41.4921 53.8802 40.0898 53.6023C38.6875 53.3244 37.3992 52.6371 36.3879 51.6272C35.3767 50.6173 34.688 49.3304 34.409 47.9292C34.1299 46.528 34.2731 45.0756 34.8205 43.7558C35.3678 42.436 36.2946 41.3081 37.4836 40.5149C38.6726 39.7217 40.0704 39.2988 41.5 39.2998C41.7148 39.3163 41.9155 39.4131 42.0619 39.5711C42.2083 39.7291 42.2897 39.9364 42.2897 40.1517C42.2897 40.367 42.2083 40.5744 42.0619 40.7324C41.9155 40.8903 41.7148 40.9872 41.5 41.0037C40.0413 41.0037 38.6424 41.5827 37.6109 42.6135C36.5795 43.6443 36 45.0423 36 46.5C36 47.9577 36.5795 49.3557 37.6109 50.3865C38.6424 51.4173 40.0413 51.9963 41.5 51.9963C44.69 51.9963 46.815 49.6079 46.97 46.5C46.965 46.3794 46.9849 46.2592 47.0284 46.1466C47.072 46.0341 47.1382 45.9317 47.223 45.8458C47.3078 45.76 47.4094 45.6925 47.5215 45.6475C47.6335 45.6026 47.7536 45.5812 47.8743 45.5846C47.995 45.588 48.1137 45.6163 48.223 45.6675C48.3323 45.7187 48.4299 45.7919 48.5097 45.8825C48.5895 45.973 48.6498 46.079 48.6868 46.1938C48.7238 46.3087 48.7368 46.4299 48.725 46.55L48.72 46.51Z" fill="#E2CBAF"/>
<defs>
<linearGradient id="paint0_linear_13_2832" x1="7.45923" y1="3.01988" x2="3.30285" y2="9.23717" gradientUnits="userSpaceOnUse">
<stop stop-color="#513A13"/>
<stop offset="1" stop-color="#7B6C3B" stop-opacity="0"/>
</linearGradient>
<linearGradient id="paint1_linear_13_2832" x1="7.69231" y1="3.26005" x2="3.06507" y2="9.83088" gradientUnits="userSpaceOnUse">
<stop stop-color="#513A13"/>
<stop offset="1" stop-color="#7B6C3B" stop-opacity="0"/>
</linearGradient>
</defs>
</svg>
