<svg width="257" height="633" viewBox="0 0 257 633" fill="none" xmlns="http://www.w3.org/2000/svg">
<path d="M206.344 415.749H206.531V396.853L128.769 329.831V350.831H128.585V632.425H206.344V415.749Z" fill="#C1986D" fill-opacity="0.14"/>
<path d="M93.7079 350.498V317.91V312.706L15.9454 231.217V317.91V350.498V632.424H93.7079V350.498Z" fill="#C1986D" fill-opacity="0.14"/>
<path d="M256.059 632.425H248.418V304.329H248.602V289.751L173.24 224.759V242.659H173.02V632.425H165.379V235.019H165.603V208.078L256.243 286.245V311.968H256.059V632.425Z" fill="#C1986D" fill-opacity="0.14"/>
<path d="M135.782 632.425H128.142V199.7L52.7795 120.684V632.425H45.1388V101.603L135.782 196.636V632.425Z" fill="#C1986D" fill-opacity="0.14"/>
<path d="M19.4522 632.425H11.8115V98.0967L-63.5868 19.0804V632.425H-71.1879V0L19.4522 95.0335V632.425Z" fill="#C1986D" fill-opacity="0.14"/>
</svg>
