<svg width="16" height="19" viewBox="0 0 16 19" fill="none" xmlns="http://www.w3.org/2000/svg">
<path d="M15.6848 5.79147C15.6012 5.79147 15.5211 5.82467 15.462 5.88378C15.4029 5.94288 15.3697 6.02304 15.3697 6.10663C15.3697 6.19022 15.4029 6.27038 15.462 6.32948C15.5211 6.38859 15.6012 6.42179 15.6848 6.42179C15.7684 6.42179 15.8486 6.38859 15.9077 6.32948C15.9668 6.27038 16 6.19022 16 6.10663C16 6.02304 15.9668 5.94288 15.9077 5.88378C15.8486 5.82467 15.7684 5.79147 15.6848 5.79147ZM1.03175 11.7108C0.462888 11.7108 0 12.1737 0 12.7425C0 13.3114 0.462888 13.7743 1.03175 13.7743C1.60062 13.7743 2.0635 13.3114 2.0635 12.7425C2.0635 12.1737 1.60062 11.7108 1.03175 11.7108ZM1.03175 13.1847C0.78789 13.1847 0.589572 12.9864 0.589572 12.7425C0.589572 12.4987 0.78789 12.3003 1.03175 12.3003C1.27561 12.3003 1.47393 12.4987 1.47393 12.7425C1.47393 12.9864 1.27554 13.1847 1.03175 13.1847ZM14.4445 2.86719H4.12222C3.47465 2.86719 2.94779 3.39397 2.94779 4.04147V16.7221C2.94779 17.5348 3.60907 18.1961 4.42172 18.1961H14.4444C14.5226 18.1961 14.5976 18.165 14.6529 18.1097C14.7082 18.0544 14.7392 17.9795 14.7392 17.9013V3.16197C14.7393 2.99918 14.6073 2.86719 14.4445 2.86719ZM14.1497 15.2482H5.30615V3.45676H14.1497V15.2482ZM4.12222 3.45676H4.71651V15.2482H4.42172C4.08861 15.2482 3.78447 15.3635 3.53736 15.5505V4.04147C3.53743 3.71905 3.79979 3.45676 4.12222 3.45676ZM14.1497 17.6065H4.42179C4.03798 17.6065 3.71386 17.3593 3.59175 17.0169H8.25401C8.3322 17.0169 8.40718 16.9859 8.46246 16.9306C8.51774 16.8753 8.5488 16.8003 8.5488 16.7221C8.5488 16.644 8.51774 16.569 8.46246 16.5137C8.40718 16.4584 8.3322 16.4274 8.25401 16.4274H3.59175C3.71379 16.085 4.03798 15.8378 4.42179 15.8378H14.1497V16.7221V17.6065Z" fill="#777777"/>
<path d="M7.27464 9.88043C7.72485 10.6315 8.44067 11.1622 9.29024 11.3748C9.55236 11.4406 9.82158 11.4739 10.0918 11.4741C10.6782 11.4741 11.256 11.3155 11.7719 11.006C12.0179 10.8586 12.2437 10.6792 12.4432 10.4732C12.4883 10.4265 12.5168 10.3663 12.5242 10.3018C12.5316 10.2374 12.5175 10.1723 12.4841 10.1166C12.4508 10.061 12.4 10.0179 12.3396 9.99405C12.2792 9.97022 12.2127 9.96696 12.1503 9.98478C10.983 10.3181 9.73176 9.82346 9.10688 8.78176C8.48216 7.73976 8.63537 6.40291 9.47942 5.53049C9.52453 5.48385 9.55299 5.42363 9.56039 5.35916C9.56779 5.2947 9.55371 5.22959 9.52034 5.17394C9.48697 5.11829 9.43617 5.07521 9.37582 5.05137C9.31547 5.02754 9.24894 5.02428 9.18655 5.0421C8.91066 5.12099 8.6463 5.23568 8.40021 5.38324C7.64931 5.83346 7.11855 6.54927 6.90601 7.39884C6.69325 8.2482 6.82428 9.12953 7.27464 9.88043ZM7.47789 7.54189C7.62256 6.96381 7.94668 6.46135 8.4047 6.09589C7.99488 7.04473 8.04676 8.16028 8.60132 9.08495C9.15574 10.0098 10.1153 10.5809 11.1452 10.6664C10.6071 10.8982 10.0108 10.9475 9.43328 10.8029C8.73663 10.6286 8.14949 10.1933 7.78012 9.57739C7.4109 8.96136 7.30338 8.23854 7.47789 7.54189Z" fill="#777777"/>
<path d="M10.1571 6.58329L10.741 6.4908C10.7549 6.48859 10.7692 6.49084 10.7817 6.49722C10.7942 6.50361 10.8044 6.51379 10.8108 6.52632L11.0792 7.05311C11.1085 7.11059 11.1943 7.09703 11.2044 7.03328L11.2969 6.44931C11.2991 6.43542 11.3056 6.42258 11.3155 6.41264C11.3255 6.4027 11.3383 6.39616 11.3522 6.39396L11.9362 6.30147C11.9999 6.29138 12.0135 6.20559 11.956 6.17634L11.4292 5.90793C11.4167 5.90154 11.4065 5.89135 11.4001 5.87882C11.3937 5.86628 11.3914 5.85204 11.3936 5.83814L11.4861 5.25417C11.4962 5.19042 11.4188 5.151 11.3732 5.19662L10.9551 5.6147C10.9452 5.62465 10.9323 5.63119 10.9184 5.63339C10.9045 5.63559 10.8903 5.63333 10.8778 5.62693L10.351 5.35853C10.2935 5.3292 10.232 5.39066 10.2614 5.44814L10.5298 5.97492C10.5362 5.98746 10.5384 6.0017 10.5362 6.0156C10.534 6.0295 10.5275 6.04235 10.5175 6.05231L10.0994 6.47039C10.0539 6.516 10.0933 6.59339 10.1571 6.58329ZM2.86141 2.36401L1.97705 1.47966C1.94986 1.4515 1.91733 1.42904 1.88136 1.41359C1.8454 1.39814 1.80672 1.39001 1.76758 1.38967C1.72843 1.38933 1.68962 1.39679 1.65339 1.41161C1.61716 1.42643 1.58425 1.44832 1.55657 1.476C1.52889 1.50368 1.507 1.53659 1.49218 1.57282C1.47736 1.60905 1.4699 1.64787 1.47024 1.68701C1.47058 1.72615 1.47871 1.76483 1.49416 1.8008C1.50961 1.83676 1.53207 1.86929 1.56022 1.89648L2.44458 2.78084C2.50214 2.8384 2.57753 2.86721 2.65299 2.86721C2.72846 2.86721 2.80385 2.8384 2.86141 2.78084C2.8888 2.75348 2.91053 2.721 2.92535 2.68524C2.94018 2.64947 2.94781 2.61114 2.94781 2.57243C2.94781 2.53372 2.94018 2.49538 2.92535 2.45962C2.91053 2.42386 2.8888 2.39137 2.86141 2.36401ZM3.24257 2.27764C3.32075 2.27764 3.39573 2.24658 3.45101 2.1913C3.5063 2.13602 3.53735 2.06104 3.53735 1.98286V1.0985C3.53735 1.02031 3.5063 0.945335 3.45101 0.890052C3.39573 0.834769 3.32075 0.803711 3.24257 0.803711C3.16438 0.803711 3.08941 0.834769 3.03412 0.890052C2.97884 0.945335 2.94778 1.02031 2.94778 1.0985V1.98286C2.94778 2.06104 2.97884 2.13602 3.03412 2.1913C3.08941 2.24658 3.16438 2.27764 3.24257 2.27764ZM2.06342 2.86721H1.17906C1.10088 2.86721 1.0259 2.89827 0.970618 2.95356C0.915335 3.00884 0.884277 3.08382 0.884277 3.162C0.884277 3.24018 0.915335 3.31516 0.970618 3.37045C1.0259 3.42573 1.10088 3.45679 1.17906 3.45679H2.06342C2.1416 3.45679 2.21658 3.42573 2.27187 3.37045C2.32715 3.31516 2.35821 3.24018 2.35821 3.162C2.35821 3.08382 2.32715 3.00884 2.27187 2.95356C2.21658 2.89827 2.1416 2.86721 2.06342 2.86721ZM11.4966 12.0056H7.36957C7.29139 12.0056 7.21641 12.0366 7.16113 12.0919C7.10585 12.1472 7.07479 12.2222 7.07479 12.3004C7.07479 12.3786 7.10585 12.4535 7.16113 12.5088C7.21641 12.5641 7.29139 12.5952 7.36957 12.5952H11.4966C11.5748 12.5952 11.6497 12.5641 11.705 12.5088C11.7603 12.4535 11.7914 12.3786 11.7914 12.3004C11.7914 12.2222 11.7603 12.1472 11.705 12.0919C11.6497 12.0366 11.5748 12.0056 11.4966 12.0056ZM10.6122 12.8899H8.84351C8.76532 12.8899 8.69034 12.921 8.63506 12.9763C8.57978 13.0316 8.54872 13.1066 8.54872 13.1847C8.54872 13.2629 8.57978 13.3379 8.63506 13.3932C8.69034 13.4485 8.76532 13.4795 8.84351 13.4795H10.6122C10.6904 13.4795 10.7654 13.4485 10.8207 13.3932C10.876 13.3379 10.907 13.2629 10.907 13.1847C10.907 13.1066 10.876 13.0316 10.8207 12.9763C10.7654 12.921 10.6904 12.8899 10.6122 12.8899Z" fill="#777777"/>
</svg>
