<svg width="67" height="67" viewBox="0 0 67 67" fill="none" xmlns="http://www.w3.org/2000/svg">
<rect width="67" height="67" rx="6" fill="white" fill-opacity="0.07"/>
<path d="M33.5001 20.1689C26.1492 20.1689 20.1688 26.1492 20.1688 33.5002C20.1688 40.851 26.1492 46.8314 33.5001 46.8314C40.8509 46.8314 46.8313 40.851 46.8313 33.5002C46.8313 26.1492 40.8509 20.1689 33.5001 20.1689ZM33.5001 45.425C26.9246 45.425 21.575 40.0756 21.575 33.5001C21.575 26.9246 26.9246 21.575 33.5001 21.575C40.0755 21.575 45.425 26.9246 45.425 33.5001C45.425 40.0756 40.0756 45.425 33.5001 45.425ZM55.5496 30.6656L52.2572 29.3983C51.7719 27.1668 50.9007 25.065 49.6627 23.1396L51.0958 19.913C51.1535 19.7832 51.1705 19.6389 51.1445 19.4992C51.1186 19.3595 51.0509 19.2309 50.9504 19.1304L47.8698 16.05C47.7693 15.9495 47.6408 15.8818 47.5011 15.8559C47.3614 15.8299 47.2171 15.8468 47.0872 15.9045L43.8594 17.338C41.9334 16.1001 39.8319 15.2289 37.6023 14.7441L36.3345 11.4505C36.2834 11.3179 36.1934 11.2039 36.0763 11.1235C35.9591 11.043 35.8204 11 35.6783 11H31.3218C31.1797 11 31.041 11.043 30.9238 11.1235C30.8067 11.2039 30.7167 11.3179 30.6656 11.4505L29.3979 14.744C27.1682 15.2289 25.0668 16.1 23.1406 17.3379L19.9128 15.9044C19.783 15.8467 19.6387 15.8298 19.499 15.8557C19.3593 15.8817 19.2307 15.9494 19.1303 16.0499L16.0498 19.1304C15.9493 19.2309 15.8816 19.3595 15.8556 19.4992C15.8297 19.6389 15.8466 19.7832 15.9043 19.913L17.3377 23.1405C16.0998 25.0662 15.2286 27.1678 14.7436 29.398L11.4505 30.6656C11.3179 30.7167 11.2039 30.8067 11.1235 30.9238C11.0431 31.041 11 31.1797 11 31.3218V35.6784C11 35.8205 11.043 35.9592 11.1235 36.0764C11.2039 36.1935 11.3179 36.2835 11.4505 36.3346L14.7431 37.6019C15.2283 39.8335 16.0996 41.9353 17.3375 43.8607L15.9044 47.0872C15.8467 47.2171 15.8297 47.3614 15.8557 47.5011C15.8816 47.6408 15.9493 47.7694 16.0498 47.8698L19.1304 50.9503C19.2308 51.0508 19.3594 51.1185 19.4991 51.1444C19.6388 51.1704 19.7831 51.1534 19.9129 51.0958L23.1407 49.6623C25.0669 50.9001 27.1683 51.7714 29.3979 52.2562L30.6656 55.5496C30.7167 55.6823 30.8067 55.7963 30.9238 55.8767C31.041 55.9571 31.1797 56.0002 31.3218 56.0002H35.6783C35.8204 56.0002 35.9591 55.9571 36.0763 55.8767C36.1934 55.7963 36.2834 55.6823 36.3345 55.5496L37.6018 52.2572C39.8332 51.7719 41.935 50.9007 43.8605 49.6627L47.0871 51.0958C47.2169 51.1535 47.3612 51.1705 47.5009 51.1445C47.6406 51.1186 47.7692 51.0509 47.8696 50.9504L50.9501 47.8699C51.0506 47.7694 51.1183 47.6409 51.1443 47.5012C51.1702 47.3615 51.1533 47.2172 51.0956 47.0873L49.662 43.8594C50.8999 41.9334 51.7711 39.8319 52.256 37.6023L55.5495 36.3346C55.6821 36.2835 55.7961 36.1935 55.8765 36.0764C55.957 35.9592 56 35.8205 56 35.6784V31.3218C56.0001 31.1797 55.9571 31.0409 55.8767 30.9238C55.7963 30.8066 55.6823 30.7166 55.5496 30.6656ZM54.5939 35.1956L51.3928 36.4278C51.2819 36.4705 51.1835 36.5407 51.107 36.6318C51.0306 36.7228 50.9784 36.8318 50.9555 36.9485C50.5007 39.2638 49.6006 41.4352 48.2801 43.4022C48.2138 43.5009 48.1737 43.6149 48.1634 43.7333C48.1531 43.8517 48.173 43.9709 48.2213 44.0795L49.6146 47.2168L47.2169 49.6145L44.0808 48.2216C43.9721 48.1734 43.8529 48.1535 43.7345 48.1638C43.616 48.1741 43.5021 48.2143 43.4034 48.2805C41.4373 49.6009 39.2654 50.5012 36.9481 50.9563C36.8314 50.9792 36.7225 51.0314 36.6314 51.1079C36.5403 51.1844 36.4702 51.2827 36.4275 51.3937L35.1957 54.5939H31.8047L30.5724 51.3928C30.5297 51.2819 30.4595 51.1835 30.3685 51.107C30.2774 51.0306 30.1685 50.9784 30.0518 50.9555C27.7365 50.5008 25.5651 49.6007 23.598 48.2801C23.4993 48.2138 23.3854 48.1737 23.267 48.1634C23.1485 48.1531 23.0294 48.173 22.9207 48.2213L19.7835 49.6146L17.3856 47.2169L18.7785 44.0808C18.8268 43.9721 18.8468 43.8529 18.8365 43.7345C18.8262 43.616 18.786 43.5021 18.7196 43.4034C17.3994 41.4373 16.4991 39.2655 16.0439 36.9481C16.021 36.8314 15.9688 36.7224 15.8923 36.6313C15.8158 36.5403 15.7174 36.4701 15.6065 36.4274L12.4063 35.1956V31.8046L15.607 30.5725C15.718 30.5298 15.8163 30.4596 15.8928 30.3686C15.9693 30.2775 16.0215 30.1686 16.0444 30.0519C16.4992 27.7358 17.3994 25.5642 18.7199 23.5977C18.7862 23.499 18.8264 23.385 18.8367 23.2666C18.847 23.1481 18.8271 23.029 18.7788 22.9203L17.3855 19.7835L19.7834 17.3856L22.9206 18.779C23.0292 18.8272 23.1483 18.8471 23.2668 18.8368C23.3852 18.8265 23.4991 18.7864 23.5979 18.7202C25.565 17.3996 27.7365 16.4995 30.0518 16.0448C30.1685 16.0219 30.2774 15.9697 30.3685 15.8932C30.4596 15.8167 30.5297 15.7184 30.5724 15.6074L31.8046 12.4063H35.1956L36.4277 15.6073C36.4705 15.7183 36.5406 15.8166 36.6317 15.8931C36.7227 15.9696 36.8317 16.0218 36.9484 16.0447C39.2638 16.4994 41.4351 17.3996 43.4022 18.7201C43.501 18.7863 43.6149 18.8265 43.7333 18.8368C43.8517 18.847 43.9709 18.8271 44.0795 18.7789L47.2168 17.3855L49.6146 19.7833L48.2217 22.9194C48.1735 23.0281 48.1536 23.1472 48.1639 23.2657C48.1742 23.3842 48.2143 23.4981 48.2806 23.5968C49.6009 25.5628 50.5012 27.7347 50.9564 30.052C50.9793 30.1687 51.0315 30.2777 51.108 30.3688C51.1845 30.4598 51.2828 30.53 51.3938 30.5727L54.5939 31.8045V35.1956ZM32.3328 25.1166L24.8295 30.5681C23.9418 31.2113 23.7429 32.4567 24.3861 33.3445C24.5388 33.5564 24.732 33.736 24.9545 33.8727C25.1771 34.0094 25.4245 34.1007 25.6825 34.1412C26.0765 34.2041 26.4711 34.1488 26.8254 33.9853V39.722C26.8254 41.1228 27.9651 42.2625 29.3659 42.2625H37.634C39.0348 42.2625 40.1745 41.1228 40.1745 39.722V33.9838C40.5312 34.1494 40.9293 34.2043 41.3175 34.1412C41.5755 34.1007 41.8229 34.0094 42.0454 33.8727C42.268 33.7359 42.4612 33.5564 42.6139 33.3445C42.9254 32.9145 43.0509 32.3889 42.9673 31.8645C42.8836 31.3402 42.6006 30.8797 42.1713 30.5687L34.6949 25.1366C33.9933 24.6088 33.0453 24.6003 32.3328 25.1166ZM34.5779 40.8561H32.4222V35.3955C32.4222 35.3082 32.496 35.2344 32.5833 35.2344H34.4167C34.5041 35.2344 34.5778 35.3082 34.5778 35.3955V40.8561H34.5779ZM37.6341 40.8561H35.9841V35.3955C35.9841 34.5313 35.281 33.8281 34.4168 33.8281H32.5834C31.7192 33.8281 31.016 34.5312 31.016 35.3955V40.8561H29.366C28.7406 40.8561 28.2318 40.3473 28.2318 39.7219V33.011L33.5001 29.1833L38.7684 33.0109V39.7219C38.7684 40.3473 38.2596 40.8561 37.6341 40.8561ZM41.5787 32.0862C41.6032 32.2396 41.5665 32.3935 41.4752 32.5193C41.384 32.6452 41.2493 32.728 41.0958 32.7525C41.0205 32.7648 40.9435 32.762 40.8693 32.7443C40.7951 32.7266 40.7251 32.6944 40.6634 32.6496L33.9134 27.7454C33.7901 27.6559 33.6451 27.6111 33.5001 27.6111C33.3551 27.6111 33.21 27.6559 33.0868 27.7454L26.337 32.6494C26.2753 32.6943 26.2052 32.7266 26.131 32.7443C26.0567 32.762 25.9796 32.7648 25.9043 32.7525C25.8288 32.7406 25.7564 32.7139 25.6912 32.6739C25.6261 32.6339 25.5696 32.5814 25.5249 32.5194C25.3366 32.2596 25.3949 31.8951 25.6553 31.7064L33.1586 26.2549C33.3645 26.1057 33.6493 26.1087 33.8514 26.2619C33.8552 26.2648 33.859 26.2677 33.863 26.2705L41.3455 31.7069C41.4075 31.7516 41.4601 31.8081 41.5001 31.8732C41.5401 31.9383 41.5668 32.0107 41.5787 32.0862Z" fill="#C1986D"/>
</svg>
