<svg width="67" height="67" viewBox="0 0 67 67" fill="none" xmlns="http://www.w3.org/2000/svg">
<rect width="67" height="67" rx="6" fill="white" fill-opacity="0.07"/>
<path fill-rule="evenodd" clip-rule="evenodd" d="M52.1302 47.0227L45.7688 52.0624C44.3474 53.1881 43.3089 53.8477 41.6531 54.674C38.8168 56.0895 36.2371 56.9973 34.192 57.2981C31.9099 57.6353 29.164 57.1744 26.5089 56.7296C25.3557 56.5369 24.2678 56.3546 23.2285 56.238C21.7518 56.072 20.3988 55.947 19.0301 55.8506V47.6837C21.8183 47.1525 24.1781 46.4374 27.1795 47.2436C27.2446 47.2613 27.3119 47.2703 27.3794 47.2703H35.1693C35.7892 47.2703 36.3277 47.6239 36.594 48.1396V49.6091C36.3193 50.1417 35.7743 50.4796 35.1693 50.4796H27.3794C27.2779 50.4796 27.1774 50.4995 27.0836 50.5383C26.9898 50.5771 26.9046 50.6341 26.8328 50.7059C26.761 50.7776 26.7041 50.8629 26.6653 50.9566C26.6264 51.0504 26.6065 51.151 26.6066 51.2525C26.6064 51.354 26.6264 51.4545 26.6652 51.5483C26.704 51.6422 26.7609 51.7274 26.8327 51.7992C26.9045 51.871 26.9897 51.9279 27.0835 51.9667C27.1773 52.0055 27.2779 52.0254 27.3794 52.0253H35.1693C35.6782 52.0259 36.1795 51.9027 36.6301 51.6665C37.0808 51.4302 37.4672 51.0879 37.7562 50.669L38.5342 50.7393C39.7929 50.7393 40.463 50.2477 41.3138 49.7529L50.7062 44.3303C51.4302 43.9123 52.3601 44.1616 52.7781 44.8857C52.7866 44.9007 52.7957 44.915 52.8048 44.928C53.2716 45.6299 52.7827 46.5056 52.1302 47.0227ZM17.4843 56.9639C17.4843 57.2301 17.2584 57.4548 16.9927 57.4548H14.036C13.7703 57.4548 13.5457 57.2301 13.5457 56.9639V46.9106C13.5457 46.6442 13.7703 46.4203 14.036 46.4203H16.9927C17.2584 46.4203 17.4843 46.6442 17.4843 46.9106V56.9639ZM36.5939 46.0668V40.4177C36.5939 38.0652 34.6809 36.151 32.3291 36.151C29.9766 36.151 28.0629 38.0652 28.0629 40.4177V45.7243H35.1692C35.6646 45.7236 36.153 45.8411 36.5939 46.0668ZM31.6455 28.1162L20.5348 37.6133V45.8057C22.4471 45.4236 24.3184 45.1272 26.5178 45.5153V40.4177C26.5178 37.2129 29.125 34.6059 32.3291 34.6059C35.5333 34.6059 38.1397 37.2129 38.1397 40.4177V47.8261C38.2941 48.2611 38.3503 48.725 38.3044 49.1843C39.0967 49.2454 39.4907 49.0388 40.2115 48.6094L44.1234 46.3468V37.6133L33.0114 28.1162C32.6481 27.8056 32.0108 27.8056 31.6455 28.1162ZM17.4733 38.1975C16.5442 38.9907 14.8994 38.4492 14.8994 37.4213C14.8994 37.1355 15.0374 36.8587 15.2869 36.6458L28.7396 25.1478C30.706 23.4659 33.9107 23.4653 35.8804 25.1446L49.3722 36.6459C49.8872 37.0853 49.8862 37.7579 49.3722 38.1975C48.7796 38.7034 47.7782 38.7034 47.1857 38.1975L34.0163 26.9416C33.0699 26.1325 31.5891 26.1326 30.6422 26.9416L17.4733 38.1975ZM49.9334 42.9922L45.6692 45.4548V38.9339L46.1809 39.3721C48.1073 41.0192 51.3039 39.7956 51.3039 37.4213C51.3039 36.6855 50.966 35.9752 50.3742 35.4698L36.8824 23.9679C34.3587 21.8167 30.256 21.8185 27.7349 23.9731L14.2835 35.4712C13.0447 36.5292 13.0461 38.3156 14.2835 39.3721C15.4588 40.3761 17.3008 40.3774 18.4766 39.3721L18.9897 38.9339V46.117C18.9526 46.1242 18.9141 46.1313 18.8764 46.1391C18.5724 45.3981 17.8431 44.8747 16.9927 44.8747H14.036C12.9141 44.8747 12 45.7875 12 46.9107V56.964C12 58.0865 12.9142 59 14.036 59H16.9927C17.9674 59 18.7839 58.3118 18.9825 57.3957C20.3427 57.4944 21.7008 57.6203 23.056 57.7733C26.6364 58.1752 30.8447 59.3559 34.4173 58.8268C36.6533 58.4973 39.3209 57.5649 42.3433 56.0563C44.0844 55.1878 45.231 54.4598 46.7279 53.2735L53.0894 48.2332C54.3115 47.2663 55.0487 45.535 54.1045 44.0927C53.254 42.6459 51.3886 42.1517 49.9334 42.9922ZM53.0821 20.0899C53.0821 20.3555 52.8574 20.5801 52.5918 20.5801H49.6344C49.3674 20.5801 49.1428 20.3554 49.1428 20.0899V10.036C49.1428 9.77034 49.3674 9.5458 49.6344 9.5458H52.5918C52.8574 9.5458 53.0821 9.77046 53.0821 10.036V20.0899ZM46.4323 19.5488C44.0714 20.0313 42.032 20.4474 39.4484 19.7559C39.3831 19.7393 39.3159 19.7307 39.2485 19.7304H31.4573C30.3098 19.7304 29.5423 18.5561 29.9734 17.5173C30.2248 16.9112 30.8075 16.5211 31.4573 16.5211H39.2485C39.35 16.5211 39.4504 16.5011 39.5442 16.4622C39.6379 16.4234 39.7231 16.3664 39.7948 16.2947C39.8665 16.2229 39.9234 16.1377 39.9622 16.0439C40.0009 15.9502 40.0209 15.8497 40.0208 15.7482C40.021 15.6467 40.0011 15.5462 39.9624 15.4524C39.9236 15.3586 39.8668 15.2733 39.795 15.2015C39.7233 15.1297 39.6381 15.0728 39.5443 15.034C39.4505 14.9952 39.35 14.9753 39.2485 14.9754H31.4573C30.4097 14.9754 29.4525 15.4918 28.8705 16.331L28.0924 16.2613C26.8331 16.2613 26.1654 16.7526 25.3135 17.247L15.9211 22.6695C15.1971 23.0881 14.2667 22.8388 13.8486 22.114C13.84 22.0997 13.8316 22.0853 13.8225 22.071C13.355 21.3704 13.8453 20.4947 14.4978 19.9771L20.8585 14.9381C22.2806 13.8122 23.3191 13.1527 24.9748 12.3264C27.8111 10.9109 30.3908 10.0033 32.4359 9.70248C34.718 9.36526 37.4625 9.82553 40.1191 10.2697C41.2708 10.4637 42.3596 10.646 43.3994 10.7625C44.8761 10.9286 46.2284 11.0529 47.5978 11.15V19.3169C47.2012 19.3925 46.8119 19.4713 46.4323 19.5488ZM52.5919 8H49.6345C48.6598 8 47.8439 8.68828 47.6454 9.60375C46.3184 9.5087 45.0038 9.38761 43.5714 9.22747C42.5739 9.11548 41.5054 8.93575 40.3744 8.74623C37.6012 8.28135 34.7324 7.80011 32.2107 8.17328C29.9748 8.50336 27.3072 9.4345 24.2847 10.9445C22.5429 11.8125 21.3951 12.541 19.8995 13.7267L13.5387 18.7655C12.3165 19.7343 11.5788 21.4643 12.5235 22.9079C13.0926 23.8762 14.1161 24.4172 15.1683 24.4172C15.7039 24.4171 16.23 24.2761 16.6938 24.0083L26.0861 18.5852C26.9225 18.1028 27.3436 17.7415 28.3221 17.8156C28.1541 19.6996 29.6127 21.2756 31.4572 21.2756H39.1482C42.0372 22.0237 44.3226 21.5569 46.7414 21.0634C47.0776 20.9941 47.4143 20.9268 47.7513 20.8616C48.0553 21.6025 48.7846 22.126 49.6343 22.126H52.5917C53.7136 22.126 54.6277 21.2132 54.6277 20.09V10.036C54.6279 8.91282 53.7137 8 52.5919 8Z" fill="#C1986D"/>
</svg>
