<svg width="67" height="67" viewBox="0 0 67 67" fill="none" xmlns="http://www.w3.org/2000/svg">
<rect width="67" height="67" rx="6" fill="white" fill-opacity="0.07"/>
<path d="M54.2691 38.4301L43.038 27.1982C42.8886 27.0572 42.691 26.9787 42.4856 26.9787C42.2802 26.9787 42.0826 27.0572 41.9333 27.1982L39.4372 29.6942C39.2907 29.8407 39.2085 30.0394 39.2085 30.2466C39.2085 30.4537 39.2907 30.6524 39.4372 30.7989L40.1325 31.4942L39.0419 32.5856H34.6982C34.5165 32.5856 34.3405 32.6489 34.2005 32.7645L32.5208 34.1528L31.1818 32.8145C31.0906 32.7239 30.9786 32.6571 30.8557 32.6198C30.7327 32.5824 30.6024 32.5758 30.4763 32.6005L27.7662 33.1419L26.7427 32.1184L27.438 31.4231C27.5107 31.3506 27.5683 31.2644 27.6076 31.1696C27.6469 31.0747 27.6672 30.9731 27.6672 30.8704C27.6672 30.7677 27.6469 30.6661 27.6076 30.5712C27.5683 30.4764 27.5107 30.3902 27.438 30.3177L24.942 27.8224C24.7955 27.6759 24.5968 27.5936 24.3896 27.5936C24.1825 27.5936 23.9838 27.6759 23.8373 27.8224L13.2287 38.4301C13.0823 38.5766 13 38.7753 13 38.9825C13 39.1896 13.0823 39.3883 13.2287 39.5348L15.7248 42.0301C15.8713 42.1766 16.07 42.2589 16.2772 42.2589C16.4843 42.2589 16.683 42.1766 16.8295 42.0301L17.5248 41.3348L22.6599 46.4707L21.9646 47.166C21.6109 47.5188 21.369 47.9679 21.2691 48.4574C21.1692 48.9468 21.2158 49.4549 21.403 49.918C21.5902 50.3811 21.9098 50.7788 22.3218 51.0614C22.7337 51.3439 23.2198 51.4988 23.7193 51.5066C23.7282 52.1661 23.9941 52.7962 24.4604 53.2626C24.9267 53.7291 25.5567 53.9952 26.2162 54.0043C26.2249 54.6634 26.4907 55.2931 26.957 55.7591C27.4233 56.2251 28.0531 56.4905 28.7123 56.4988C28.7203 56.9982 28.8753 57.4841 29.1578 57.896C29.4404 58.3078 29.838 58.6273 30.301 58.8146C30.764 59.0018 31.2719 59.0485 31.7613 58.9489C32.2507 58.8492 32.6999 58.6076 33.0529 58.2542L33.7732 57.5347C34.1456 57.8219 34.5906 57.9997 35.0584 58.0482C35.5262 58.0967 35.9983 58.014 36.4217 57.8092C36.8451 57.6045 37.2031 57.2859 37.4556 56.8891C37.7081 56.4924 37.8451 56.0331 37.8513 55.5629C38.5102 55.5538 39.1397 55.2879 39.6057 54.8219C40.0717 54.3559 40.3375 53.7265 40.3466 53.0676C41.006 53.0588 41.636 52.793 42.1022 52.3266C42.5685 51.8602 42.8342 51.2301 42.8426 50.5707C43.313 50.5652 43.7725 50.4286 44.1696 50.1764C44.5666 49.9241 44.8855 49.5662 45.0903 49.1427C45.2951 48.7193 45.3778 48.2471 45.3291 47.7792C45.2804 47.3113 45.1022 46.8663 44.8145 46.4942L49.9731 41.3348L50.6684 42.0301C50.8149 42.1766 51.0136 42.2589 51.2207 42.2589C51.4279 42.2589 51.6266 42.1766 51.7731 42.0301L54.2691 39.5348C54.4156 39.3883 54.4979 39.1896 54.4979 38.9825C54.4979 38.7753 54.4156 38.5766 54.2691 38.4301ZM14.8858 38.9825L24.3888 29.4794L25.7795 30.87L16.2779 40.3731L14.8858 38.9825ZM23.0693 48.2707L23.7646 47.5754L25.156 48.966L24.4607 49.6613C24.2736 49.8319 24.0279 49.9238 23.7748 49.9179C23.5217 49.912 23.2806 49.8089 23.1016 49.6299C22.9225 49.4508 22.8194 49.2097 22.8135 48.9566C22.8076 48.7035 22.8988 48.4578 23.0693 48.2707ZM25.2771 51.4621C25.2768 51.3329 25.3021 51.2049 25.3516 51.0855C25.4011 50.9662 25.4737 50.8578 25.5654 50.7668L26.2607 50.0715L27.6521 51.4621L26.9568 52.1574C26.7696 52.3368 26.5204 52.437 26.2611 52.437C26.0018 52.437 25.7526 52.3368 25.5654 52.1574C25.4738 52.0663 25.4011 51.958 25.3516 51.8386C25.3022 51.7193 25.2768 51.5913 25.2771 51.4621ZM28.0615 53.2621L28.7568 52.5668L30.1474 53.9582L29.4521 54.6535C29.265 54.824 29.0193 54.9159 28.7662 54.9101C28.5131 54.9042 28.272 54.801 28.0929 54.622C27.9139 54.443 27.8107 54.2019 27.8049 53.9487C27.799 53.6956 27.8909 53.4492 28.0615 53.2621ZM30.5576 57.1496C30.3734 56.965 30.27 56.715 30.27 56.4543C30.27 56.1936 30.3734 55.9435 30.5576 55.7589L31.2529 55.0636L32.6435 56.4543L31.9482 57.1496C31.761 57.3287 31.5119 57.4287 31.2529 57.4287C30.9938 57.4287 30.7447 57.3287 30.5576 57.1496ZM43.4926 48.7262C43.3079 48.9102 43.0577 49.0135 42.7969 49.0135C42.5362 49.0135 42.286 48.9102 42.1012 48.7262L36.4849 43.1098C36.3375 42.9675 36.1402 42.8887 35.9353 42.8905C35.7305 42.8923 35.5346 42.9745 35.3897 43.1193C35.2449 43.2642 35.1627 43.4601 35.1609 43.6649C35.1591 43.8698 35.2379 44.0671 35.3802 44.2145L40.9966 49.8309C41.094 49.9208 41.1722 50.0294 41.2266 50.1503C41.281 50.2712 41.3104 50.4018 41.3131 50.5344C41.3158 50.6669 41.2917 50.7986 41.2422 50.9216C41.1927 51.0446 41.1189 51.1563 41.0252 51.2501C40.9315 51.3438 40.8198 51.4177 40.6968 51.4673C40.5739 51.5168 40.4422 51.541 40.3096 51.5384C40.1771 51.5358 40.0465 51.5065 39.9255 51.4521C39.8046 51.3978 39.6959 51.3196 39.6059 51.2223L33.9888 45.6067C33.8408 45.4679 33.6446 45.3921 33.4417 45.3954C33.2388 45.3987 33.0452 45.4808 32.9018 45.6243C32.7583 45.7678 32.6764 45.9615 32.6732 46.1644C32.6701 46.3673 32.746 46.5634 32.8849 46.7113L38.5005 52.3269C38.5954 52.4174 38.6712 52.526 38.7235 52.6462C38.7758 52.7665 38.8035 52.8959 38.8051 53.027C38.8066 53.1582 38.782 53.2882 38.7325 53.4097C38.683 53.5311 38.6098 53.6414 38.5171 53.7341C38.4244 53.8269 38.314 53.9001 38.1926 53.9496C38.0712 53.999 37.9411 54.0237 37.81 54.0222C37.6789 54.0206 37.5494 53.9929 37.4292 53.9406C37.3089 53.8882 37.2004 53.8124 37.1099 53.7176L31.4927 48.102C31.421 48.0256 31.3348 47.9645 31.239 47.9222C31.1433 47.8799 31.04 47.8572 30.9353 47.8556C30.8307 47.854 30.7267 47.8734 30.6297 47.9127C30.5327 47.9521 30.4446 48.0105 30.3706 48.0845C30.2966 48.1586 30.2382 48.2467 30.199 48.3438C30.1597 48.4408 30.1404 48.5448 30.1421 48.6494C30.1438 48.7541 30.1665 48.8574 30.2089 48.9531C30.2513 49.0488 30.3124 49.135 30.3888 49.2066L36.0044 54.8222C36.1794 55.0086 36.275 55.2557 36.2711 55.5113C36.2672 55.7669 36.164 56.0109 35.9833 56.1918C35.8026 56.3726 35.5587 56.4761 35.3031 56.4803C35.0475 56.4846 34.8003 56.3892 34.6138 56.2144L34.3021 55.9035V55.9019H34.3005L31.806 53.4066L31.8044 53.4051L29.3107 50.9113L29.3099 50.9105L29.3083 50.9098L26.8146 48.4152L26.8138 48.4137H26.8123L24.3185 45.9192L24.317 45.9176L18.6295 40.2301L25.6373 33.2223L26.9568 34.5427C27.0478 34.6334 27.1598 34.7004 27.2828 34.7377C27.4058 34.7751 27.5361 34.7816 27.6623 34.7567L30.3724 34.2145L31.3099 35.152L27.0365 38.6848C26.4721 39.1441 26.1102 39.8063 26.0284 40.5294C25.9467 41.2524 26.1515 41.9787 26.599 42.5525C27.0465 43.1262 27.7011 43.5018 28.4223 43.5985C29.1435 43.6952 29.8739 43.5055 30.4568 43.07L35.5091 39.3512L43.4919 47.334C43.5833 47.4254 43.6558 47.5339 43.7053 47.6534C43.7548 47.7728 43.7802 47.9008 43.7802 48.0301C43.7802 48.1594 43.7548 48.2874 43.7053 48.4068C43.6558 48.5262 43.5841 48.6348 43.4926 48.7262ZM43.7333 45.3653L36.1396 37.7723C36.0073 37.6404 35.8323 37.5601 35.646 37.5459C35.4598 37.5317 35.2746 37.5846 35.1239 37.695L29.5302 41.8114C29.2742 41.9945 28.9574 42.0716 28.6459 42.0265C28.3344 41.9814 28.0524 41.8176 27.8589 41.5694C27.6654 41.3212 27.5753 41.0077 27.6075 40.6947C27.6397 40.3816 27.7918 40.0931 28.0318 39.8895L34.9786 34.1473H39.3645C39.5717 34.1473 39.7704 34.065 39.9169 33.9184L41.2372 32.5989L48.8684 40.2301L43.7333 45.3653ZM51.2207 40.3731L41.7895 30.9434V30.9419H41.788L41.0934 30.2466L42.4848 28.856L52.6121 38.9825L51.2207 40.3731ZM24.8466 18.7248C24.8962 18.824 24.9662 18.9115 25.0522 18.9815C25.1381 19.0515 25.238 19.1024 25.3451 19.1309C25.4523 19.1593 25.5643 19.1647 25.6736 19.1465C25.783 19.1283 25.8873 19.0871 25.9795 19.0255L26.7177 18.5334V25.4068C26.7177 25.614 26.8 25.8127 26.9466 25.9592C27.0931 26.1057 27.2918 26.188 27.499 26.188H39.9989C40.2061 26.188 40.4048 26.1057 40.5513 25.9592C40.6978 25.8127 40.7802 25.614 40.7802 25.4068V18.5334L41.5184 19.0255C41.6106 19.0871 41.7149 19.1283 41.8242 19.1465C41.9336 19.1647 42.0456 19.1593 42.1527 19.1309C42.2599 19.1024 42.3598 19.0515 42.4457 18.9815C42.5317 18.9115 42.6017 18.824 42.6512 18.7248L43.8231 16.381C43.9082 16.2107 43.9282 16.0152 43.8792 15.8312C43.8303 15.6472 43.7159 15.4874 43.5575 15.3818L34.1825 9.13184C34.0543 9.04589 33.9033 9 33.7489 9C33.5945 9 33.4436 9.04589 33.3154 9.13184L30.624 10.9264V9.78184C30.624 9.57464 30.5417 9.37593 30.3951 9.22941C30.2486 9.0829 30.0499 9.00059 29.8427 9.00059H27.499C27.2918 9.00059 27.0931 9.0829 26.9466 9.22941C26.8 9.37593 26.7177 9.57464 26.7177 9.78184V13.5303L23.9404 15.3818C23.7818 15.4874 23.6672 15.6474 23.6183 15.8315C23.5694 16.0157 23.5895 16.2114 23.6748 16.3818L24.8466 18.7248ZM35.3114 24.6255H32.1865V19.938H35.3114V24.6255ZM39.2177 24.6255H36.8739V19.1568C36.8739 18.9496 36.7916 18.7509 36.6451 18.6044C36.4986 18.4579 36.2999 18.3755 36.0927 18.3755H31.4052C31.198 18.3755 30.9993 18.4579 30.8528 18.6044C30.7063 18.7509 30.624 18.9496 30.624 19.1568V24.6255H28.2802V17.492L33.7489 13.8459L39.2177 17.492V24.6255ZM28.2802 10.5631H29.0615V11.9678L28.2802 12.4889V10.5631ZM33.7489 10.7209L42.1161 16.299L41.6489 17.2349L34.1825 12.2568C34.0542 12.1712 33.9033 12.1255 33.7489 12.1255C33.5946 12.1255 33.4437 12.1712 33.3154 12.2568L25.849 17.2349L25.381 16.2998L33.7489 10.7209Z" fill="#C1986D"/>
</svg>
