<svg width="28" height="29" viewBox="0 0 28 29" fill="none" xmlns="http://www.w3.org/2000/svg">
<path d="M13.6557 0.0477656C13.2904 0.0196675 12.9195 0.00280762 12.5317 0.00280762H0V29H4.99866V25.8615H3.14701V3.15822H12.5317C13.3938 3.15415 14.2536 3.24842 15.0943 3.43921L13.6557 0.0477656Z" fill="#C1986D"/>
<path d="M3.15551 3.11046V4.47321L0.0141602 3.42234V0L3.15551 3.11046Z" fill="url(#paint0_linear_18_2925)"/>
<path d="M10.7811 10.7279V28.9916H12.5457C13.0009 28.9916 13.4505 28.9663 13.8944 28.9242V12.9083L10.7811 10.0535V10.7279Z" fill="#083D5C"/>
<path d="M6.41772 15.5044V25.8501V28.9971H9.53094V25.8501V15.5044V8.9042L6.41772 6.04944V15.5044Z" fill="#083D5C"/>
<path d="M27.0165 13.6332C26.8212 10.4267 25.5678 7.37549 23.4526 4.95772C21.3374 2.53995 18.4798 0.892159 15.3277 0.272522H15.2771L16.8787 4.0208C17.8147 4.40842 18.6945 4.91967 19.4946 5.54091C21.2505 7.02226 22.5284 8.99047 23.167 11.1972C23.8056 13.404 23.7762 15.7505 23.0828 17.9406C22.8124 18.7873 22.4693 19.6089 22.0572 20.3964C21.8017 20.8795 21.5203 21.3485 21.2142 21.8013C20.4093 22.7599 19.4525 23.5801 18.382 24.2289V17.0386L15.2687 14.1839V28.7331C16.2316 28.5487 17.1731 28.2663 18.0785 27.8901C20.6812 26.8013 22.9131 24.9823 24.5045 22.6526C25.978 20.4941 26.8375 17.9758 26.9912 15.3668C27.0081 15.0858 27.0193 14.8049 27.0193 14.5014C27.0193 14.1979 27.0334 13.9198 27.0165 13.6332Z" fill="#083D5C"/>
<defs>
<linearGradient id="paint0_linear_18_2925" x1="2.43058" y1="0.972193" x2="1.07625" y2="2.99806" gradientUnits="userSpaceOnUse">
<stop stop-color="#513A13"/>
<stop offset="1" stop-color="#7B6C3B" stop-opacity="0"/>
</linearGradient>
</defs>
</svg>
