<svg width="16" height="16" viewBox="0 0 16 16" fill="none" xmlns="http://www.w3.org/2000/svg">
<path d="M15.8008 15.602H14.3781V7.2554C14.7851 7.16412 15.0905 6.8003 15.0905 6.36611V4.94802C15.0905 4.83814 15.0012 4.74885 14.8913 4.74885H14.3781V4.09856H15.1964C15.3062 4.09856 15.3955 4.00926 15.3955 3.89939C15.3955 3.78951 15.3062 3.70022 15.1964 3.70022H13.1618C13.052 3.70022 12.9627 3.78951 12.9627 3.89939C12.9627 4.00926 13.052 4.09856 13.1618 4.09856H13.9801V4.74885H13.4669C13.357 4.74885 13.2677 4.83814 13.2677 4.94802V6.36611C13.2677 6.8003 13.5728 7.16412 13.9801 7.2554V15.602H10.8332V15.025H11.4841C11.594 15.025 11.6833 14.9357 11.6833 14.8259V13.983C11.6833 13.8732 11.594 13.7839 11.4841 13.7839H10.8332V12.9374H11.4841C11.594 12.9374 11.6833 12.8481 11.6833 12.7382V11.3829C11.6833 11.273 11.594 11.1837 11.4841 11.1837H6.19386C6.08398 11.1837 5.99469 11.273 5.99469 11.3829V12.7382C5.99469 12.8481 6.08398 12.9374 6.19386 12.9374H6.84481V13.7839H6.19386C6.08398 13.7839 5.99469 13.8732 5.99469 13.983V14.8259C5.99469 14.9357 6.08398 15.025 6.19386 15.025H6.84481V15.602H3.69793V11.2474C5.20133 11.1455 6.39303 9.90038 6.39303 8.38403C6.39303 7.55217 6.0395 6.77939 5.41643 6.23399C5.69901 5.84019 5.85087 5.36765 5.85062 4.88296C5.85062 4.18918 5.54988 3.54852 5.02042 3.10403C5.05427 2.9759 5.07253 2.84279 5.07253 2.70735C5.07253 1.84661 4.36681 1.14619 3.49909 1.14619C2.63137 1.14619 1.92564 1.84661 1.92564 2.70735C1.92564 2.84279 1.94357 2.9759 1.97776 3.10403C1.4483 3.54852 1.14755 4.18885 1.14755 4.88296C1.14755 5.37491 1.3029 5.84495 1.58174 6.23399C0.958672 6.77939 0.605145 7.55184 0.605145 8.38403C0.605145 9.90038 1.79685 11.1455 3.30025 11.2474V15.602H0.19917C0.0892946 15.602 0 15.6913 0 15.8011C0 15.911 0.0892946 16.0003 0.19917 16.0003H15.8008C15.9107 16.0003 16 15.911 16 15.8011C16 15.6913 15.9107 15.602 15.8008 15.602ZM13.6661 6.36611V5.14719H14.6921V6.36611C14.6921 6.64893 14.4621 6.8793 14.1789 6.8793C13.8958 6.8793 13.6661 6.64893 13.6661 6.36611ZM1.00282 8.38403C1.00282 7.67001 1.30589 7.00644 1.84 6.53673C1.94755 6.64262 2.06606 6.73955 2.19519 6.82486C2.22905 6.8471 2.26722 6.85806 2.30473 6.85806C2.36946 6.85806 2.43286 6.82652 2.47104 6.76876C2.53178 6.67715 2.50656 6.55333 2.41494 6.49291C1.87021 6.13275 1.54523 5.53092 1.54523 4.88329C1.54523 4.35117 1.75934 3.8569 2.13942 3.49408C2.22705 3.64312 2.33959 3.77856 2.47502 3.89374C2.55867 3.96511 2.68448 3.95482 2.75585 3.87117C2.82722 3.78752 2.81693 3.66171 2.73328 3.59034C2.47303 3.3686 2.32365 3.04694 2.32365 2.70769C2.32365 2.06636 2.85079 1.54486 3.49876 1.54486C4.14672 1.54486 4.67386 2.06669 4.67386 2.70769C4.67386 3.04694 4.52448 3.3686 4.26423 3.59001C4.22401 3.62426 4.19904 3.67309 4.19481 3.72575C4.19057 3.77841 4.20743 3.8306 4.24166 3.87084C4.26033 3.89284 4.28358 3.9105 4.30978 3.9226C4.33598 3.9347 4.3645 3.94093 4.39336 3.94088C4.43884 3.94088 4.48498 3.92528 4.52216 3.89341C4.6555 3.77981 4.76893 3.64473 4.85776 3.49374C5.23784 3.85656 5.45195 4.35084 5.45195 4.88296C5.45195 5.53059 5.12697 6.13242 4.58224 6.49258C4.56044 6.50701 4.5417 6.52559 4.52709 6.54726C4.51247 6.56893 4.50227 6.59327 4.49706 6.61889C4.49185 6.6445 4.49173 6.67089 4.49672 6.69655C4.50172 6.72221 4.51171 6.74664 4.52614 6.76843C4.54431 6.79592 4.56901 6.81846 4.59804 6.83405C4.62706 6.84963 4.6595 6.85777 4.69245 6.85773C4.73029 6.85773 4.76847 6.8471 4.80199 6.82453C4.93112 6.73922 5.04963 6.64262 5.15718 6.5364C5.69129 7.00578 5.99436 7.66934 5.99436 8.3837C5.99436 9.6803 4.98091 10.7462 3.69759 10.8471V10.0484L5.1688 8.54603C5.24581 8.46735 5.24448 8.34121 5.16581 8.26453C5.08714 8.18752 4.961 8.18885 4.88432 8.26752L3.69759 9.47947V5.55018L4.5922 4.63632C4.66921 4.55764 4.66788 4.4315 4.58921 4.35482C4.57055 4.33651 4.54845 4.32206 4.5242 4.31229C4.49994 4.30253 4.47399 4.29765 4.44785 4.29793C4.4217 4.2982 4.39586 4.30364 4.37182 4.31391C4.34777 4.32419 4.32599 4.3391 4.30772 4.35781L3.69759 4.98088V2.8813C3.69759 2.77142 3.6083 2.68213 3.49842 2.68213C3.38855 2.68213 3.29925 2.77142 3.29925 2.8813V8.1198L2.67718 7.48445C2.60017 7.40578 2.47403 7.40445 2.39568 7.48146C2.31701 7.55847 2.31568 7.68462 2.3927 7.76296L3.29925 8.68876V10.8468C2.01627 10.7465 1.00282 9.68063 1.00282 8.38403ZM6.39303 11.582H11.285V12.5391H6.39303V11.582ZM7.24315 12.9374H10.4349V13.7839H7.24315V12.9374ZM6.39303 14.1822H11.285V14.6267H6.39303V14.1822ZM7.24315 15.025H10.4349V15.602H7.24315V15.025ZM8.38108 3.72943C8.37552 3.67688 8.39102 3.62428 8.42418 3.58314C8.45735 3.54201 8.50548 3.51571 8.55801 3.51001C8.88498 3.47515 9.20797 3.56876 9.42241 3.7613C9.44797 3.7842 9.47187 3.80843 9.49411 3.83366C9.51635 3.80843 9.53992 3.7842 9.56581 3.7613C9.78025 3.56876 10.1032 3.47482 10.4302 3.51001C10.5394 3.52163 10.6188 3.61988 10.6071 3.72943C10.5955 3.83864 10.4966 3.91764 10.3877 3.90603C10.1746 3.88312 9.96149 3.94121 9.83203 4.05773C9.74008 4.14038 9.69328 4.24827 9.69328 4.37872C9.69328 4.4886 9.60398 4.57789 9.49411 4.57789C9.38423 4.57789 9.29494 4.4886 9.29494 4.37872C9.29494 4.24827 9.24813 4.14038 9.15618 4.05773C9.02672 3.94121 8.81361 3.88312 8.6005 3.90603C8.54799 3.91166 8.4954 3.89622 8.45426 3.86311C8.41312 3.83 8.3868 3.78192 8.38108 3.72943ZM6.00764 2.01159C6.00207 1.95904 6.01757 1.90643 6.05074 1.8653C6.08391 1.82417 6.13203 1.79787 6.18456 1.79217C6.51154 1.75698 6.83452 1.85092 7.04896 2.04345C7.07452 2.06636 7.09842 2.09059 7.12066 2.11582C7.1429 2.09059 7.16647 2.06636 7.19237 2.04345C7.40681 1.85092 7.72979 1.75698 8.05676 1.79217C8.16598 1.80379 8.24531 1.90204 8.23369 2.01159C8.23091 2.0376 8.22302 2.06281 8.21048 2.08577C8.19794 2.10873 8.181 2.129 8.16062 2.1454C8.14023 2.1618 8.11682 2.17403 8.09171 2.18137C8.0666 2.18871 8.04028 2.19103 8.01427 2.18818C7.80116 2.16528 7.58805 2.22337 7.45859 2.33988C7.36664 2.42254 7.31983 2.53042 7.31983 2.66088C7.31983 2.77076 7.23054 2.86005 7.12066 2.86005C7.01079 2.86005 6.92149 2.77076 6.92149 2.66088C6.92149 2.53042 6.87469 2.42254 6.78274 2.33988C6.65328 2.22337 6.4405 2.16528 6.22705 2.18818C6.11751 2.20013 6.01925 2.1208 6.00764 2.01159ZM10.7549 1.97905C10.7493 1.92651 10.7648 1.8739 10.798 1.83277C10.8311 1.79164 10.8793 1.76534 10.9318 1.75964C11.2588 1.72445 11.5821 1.81839 11.7962 2.01092C11.8217 2.03383 11.8456 2.05806 11.8679 2.08329C11.8901 2.05806 11.9137 2.03383 11.9396 2.01092C12.154 1.81839 12.477 1.72445 12.804 1.75964C12.9132 1.77125 12.9925 1.86951 12.9809 1.97905C12.969 2.08827 12.8707 2.1676 12.7615 2.15565C12.5477 2.13308 12.3349 2.19117 12.2051 2.30735C12.1132 2.39001 12.0664 2.49789 12.0664 2.62835C12.0664 2.73822 11.9771 2.82752 11.8672 2.82752C11.7573 2.82752 11.6681 2.73822 11.6681 2.62835C11.6681 2.49789 11.6212 2.39001 11.5293 2.30735C11.3998 2.19084 11.1871 2.13308 10.9736 2.15565C10.8651 2.1676 10.7665 2.0886 10.7549 1.97905ZM8.38108 0.226689C8.37552 0.174144 8.39102 0.121536 8.42418 0.0804037C8.45735 0.0392709 8.50548 0.0129706 8.55801 0.00727028C8.88498 -0.0279164 9.2083 0.0660255 9.42241 0.258557C9.44797 0.281461 9.47187 0.305694 9.49411 0.330922C9.51635 0.305694 9.53992 0.281461 9.56581 0.258557C9.78025 0.0660255 10.1032 -0.0279164 10.4302 0.00727028C10.5394 0.0188885 10.6188 0.117146 10.6071 0.226689C10.5955 0.335901 10.4966 0.415237 10.3877 0.403287C10.1746 0.380382 9.96149 0.438474 9.83203 0.554988C9.74008 0.637644 9.69328 0.745528 9.69328 0.875984C9.69328 0.98586 9.60398 1.07515 9.49411 1.07515C9.38423 1.07515 9.29494 0.98586 9.29494 0.875984C9.29494 0.745528 9.24813 0.637644 9.15618 0.554988C9.02672 0.438474 8.81394 0.380714 8.6005 0.403287C8.49129 0.415237 8.39303 0.336233 8.38108 0.226689Z" fill="#777777"/>
</svg>
