<svg width="50" height="220" viewBox="0 0 50 220" fill="none" xmlns="http://www.w3.org/2000/svg">
<path opacity="0.12" d="M0.00905228 0C3.63546 3.44198 7.02674 7.13494 10.2462 10.9803C13.4656 14.8256 16.5042 18.8233 19.362 22.9555C22.2197 27.0877 24.9146 31.3453 27.4196 35.7285C28.0526 36.822 28.6585 37.9245 29.2644 39.027C29.8613 40.1385 30.4582 41.25 31.037 42.3704C31.6248 43.4908 32.1764 44.6203 32.7462 45.7497C33.2978 46.888 33.8495 48.0264 34.374 49.1737C36.5173 53.7541 38.4255 58.4509 40.1618 63.2195C41.871 67.9971 43.3993 72.8374 44.6925 77.7583C45.9766 82.6793 47.0528 87.663 47.8758 92.6825C48.6987 97.711 49.2866 102.775 49.6393 107.867C49.6935 108.503 49.7207 109.14 49.7568 109.776L49.8563 111.685C49.8925 112.322 49.9015 112.958 49.9196 113.594C49.9377 114.231 49.9648 114.867 49.9739 115.504L49.992 117.413C49.992 118.049 50.01 118.686 49.992 119.322L49.9648 121.231V122.19L49.9196 123.149C49.7659 128.25 49.3679 133.332 48.7168 138.387L48.5992 139.338L48.5359 139.813L48.4636 140.288L48.1833 142.179C48.0024 143.443 47.7763 144.689 47.5593 145.944L47.3965 146.885L47.2156 147.826L46.8448 149.699L46.7544 150.165L46.6549 150.632L46.4469 151.564L46.04 153.428L45.5968 155.284L45.3707 156.207L45.2622 156.673L45.1447 157.13L44.6563 158.977L44.4121 159.9L44.1499 160.814L43.6254 162.643C43.5349 162.947 43.4445 163.252 43.3541 163.557L43.0737 164.462C42.8838 165.072 42.703 165.672 42.504 166.282L41.9072 168.083L41.6087 168.989L41.2922 169.885L40.6592 171.678C40.4421 172.278 40.216 172.861 39.99 173.462L39.6554 174.349L39.4835 174.788L39.3117 175.227C38.8414 176.402 38.3712 177.576 37.8738 178.741C37.6296 179.324 37.3854 179.906 37.1322 180.489L36.3635 182.219C36.1103 182.802 35.839 183.366 35.5768 183.94C35.3055 184.514 35.0432 185.087 34.7628 185.652C34.2022 186.781 33.6596 187.92 33.0717 189.04C32.7823 189.596 32.502 190.161 32.2035 190.716L31.3083 192.384C31.1636 192.661 31.0098 192.939 30.8561 193.208L30.3949 194.033C30.0874 194.58 29.7799 195.135 29.4634 195.673C26.9494 200.038 24.2183 204.26 21.2882 208.33C18.3581 212.399 15.2291 216.316 11.8559 220L13.5832 216.693L14.4333 215.043L15.2743 213.385C16.3867 211.18 17.4718 208.957 18.5209 206.734C20.628 202.288 22.5814 197.788 24.3901 193.262C25.2854 190.994 26.1626 188.726 26.9765 186.432C27.3925 185.293 27.7814 184.137 28.1793 182.999C28.3782 182.425 28.5591 181.851 28.758 181.269C28.957 180.686 29.1469 180.121 29.3278 179.539L29.8794 177.809C30.0603 177.235 30.2321 176.653 30.4039 176.07C30.7657 174.914 31.0912 173.748 31.4168 172.592L31.5434 172.162L31.661 171.723L31.8961 170.853C32.0498 170.271 32.2217 169.688 32.3664 169.105L32.8185 167.357L33.0446 166.488L33.2526 165.61L33.6776 163.853C33.75 163.557 33.8133 163.261 33.8766 162.974L34.0755 162.096L34.2745 161.217C34.3378 160.922 34.4101 160.635 34.4644 160.339L34.8262 158.573L35.007 157.695L35.1789 156.807L35.5225 155.042L35.6039 154.602L35.6762 154.163L35.83 153.276L36.1375 151.501C36.9152 146.768 37.512 142.018 37.9371 137.249C38.3531 132.489 38.5882 127.712 38.6424 122.943C38.6967 118.175 38.5611 113.397 38.2355 108.638C37.91 103.878 37.4035 99.1273 36.7252 94.3946C36.0379 89.6618 35.1698 84.956 34.1479 80.2681C34.0213 79.6765 33.8856 79.1028 33.75 78.5112L33.5511 77.6328C33.4878 77.337 33.4154 77.0502 33.343 76.7544C33.0536 75.5892 32.7824 74.4239 32.4749 73.2586C31.8871 70.9281 31.245 68.6155 30.5757 66.303C29.2192 61.6868 27.718 57.0975 26.0721 52.553C22.7623 43.464 18.9007 34.5274 14.5328 25.7701C12.3533 21.3869 10.0472 17.0575 7.61453 12.764C5.1909 8.4705 2.64067 4.23077 0 0" fill="#B8C1C7"/>
</svg>
