<svg width="27" height="29" viewBox="0 0 27 29" fill="none" xmlns="http://www.w3.org/2000/svg">
<path d="M13.6432 0.0478876C13.2783 0.0197895 12.9077 0.00292969 12.5203 0.00292969H0V29.0001H4.9941V25.8616H3.14413V3.15834H12.5203C13.3816 3.15427 14.2406 3.24854 15.0805 3.43932L13.6432 0.0478876Z" fill="#C1986D"/>
<path d="M3.15264 3.11046V4.4732L0.0141602 3.42234V0L3.15264 3.11046Z" fill="url(#paint0_linear_20_39)"/>
<path d="M10.7712 10.7278V28.9916H12.5342C12.989 28.9916 13.4381 28.9663 13.8817 28.9241V12.9082L10.7712 10.0535V10.7278Z" fill="#F3F8FA"/>
<path d="M6.41174 15.5043V25.85V28.997H9.52212V25.85V15.5043V8.90407L6.41174 6.04932V15.5043Z" fill="#F3F8FA"/>
<path d="M26.9916 13.6331C26.7965 10.4266 25.5443 7.37542 23.431 4.95765C21.3177 2.53988 18.4627 0.892097 15.3135 0.272461H15.2629L16.8631 4.02074C17.7982 4.40836 18.6772 4.9196 19.4766 5.54084C21.2309 7.02219 22.5076 8.9904 23.1456 11.1972C23.7836 13.4039 23.7543 15.7504 23.0615 17.9405C22.7914 18.7872 22.4486 19.6088 22.0368 20.3963C21.7816 20.8794 21.5005 21.3484 21.1947 21.8012C20.3904 22.7599 19.4345 23.58 18.365 24.2289V17.0386L15.2545 14.1838V28.733C16.2166 28.5486 17.1572 28.2662 18.0618 27.89C20.6621 26.8012 22.892 24.9822 24.482 22.6525C25.9541 20.494 26.8128 17.9757 26.9664 15.3667C26.9832 15.0857 26.9944 14.8048 26.9944 14.5013C26.9944 14.1979 27.0085 13.9197 26.9916 13.6331Z" fill="#F3F8FA"/>
<defs>
<linearGradient id="paint0_linear_20_39" x1="2.42838" y1="0.972191" x2="1.07358" y2="2.99691" gradientUnits="userSpaceOnUse">
<stop stop-color="#513A13"/>
<stop offset="1" stop-color="#7B6C3B" stop-opacity="0"/>
</linearGradient>
</defs>
</svg>
